# Blender 4.4.0
# www.blender.org
mtllib dragon.mtl
o 球
v 0.000000 4.157350 -2.777850
v 0.000000 2.777850 -4.157350
v 0.000000 0.975450 -4.903925
v 0.000000 -0.000000 -5.000000
v 0.000000 -0.975450 -4.903925
v 0.000000 -2.777850 -4.157350
v 0.190300 4.903925 -0.956710
v 0.373290 4.619400 -1.876650
v 0.541930 4.157350 -2.724475
v 0.689750 3.535535 -3.467600
v 0.811060 2.777850 -4.077465
v 0.901200 1.913415 -4.530635
v 0.956710 0.975450 -4.809700
v 0.975450 -0.000000 -4.903925
v 0.956710 -0.975450 -4.809700
v 0.901200 -1.913415 -4.530635
v 0.811060 -2.777850 -4.077465
v 0.689750 -3.535535 -3.467600
v 0.541930 -4.157350 -2.724475
v 0.373290 -4.619400 -1.876650
v 0.190300 -4.903925 -0.956710
v 0.373290 4.903925 -0.901200
v 0.732235 4.619400 -1.767765
v 1.063040 4.157350 -2.566400
v 1.352990 3.535535 -3.266405
v 1.590950 2.777850 -3.840890
v 1.767765 1.913415 -4.267765
v 1.876650 0.975450 -4.530635
v 1.913415 -0.000000 -4.619395
v 1.876650 -0.975450 -4.530635
v 1.767765 -1.913415 -4.267765
v 1.590950 -2.777850 -3.840890
v 1.352990 -3.535535 -3.266405
v 1.063040 -4.157350 -2.566400
v 0.732235 -4.619400 -1.767765
v 0.373290 -4.903925 -0.901200
v 0.541930 4.903925 -0.811060
v 1.063040 4.619400 -1.590950
v 1.543290 4.157350 -2.309700
v 1.964235 3.535535 -2.939690
v 2.309700 2.777850 -3.456710
v 2.566400 1.913415 -3.840890
v 2.724475 0.975450 -4.077465
v 2.777850 -0.000000 -4.157345
v 2.724475 -0.975450 -4.077465
v 2.566400 -1.913415 -3.840890
v 2.309700 -2.777850 -3.456710
v 1.964235 -3.535535 -2.939690
v 1.543290 -4.157350 -2.309700
v 1.063040 -4.619400 -1.590950
v 0.541930 -4.903925 -0.811060
v 0.689750 4.903925 -0.689750
v 1.352990 4.619400 -1.352990
v 1.964235 4.157350 -1.964235
v 2.500000 3.535535 -2.500000
v 2.939690 2.777850 -2.939690
v 3.266405 1.913415 -3.266405
v 3.467600 0.975450 -3.467600
v 3.535535 -0.000000 -3.535535
v 3.467600 -0.975450 -3.467600
v 3.266405 -1.913415 -3.266405
v 2.939690 -2.777850 -2.939690
v 2.500000 -3.535535 -2.500000
v 1.964235 -4.157350 -1.964235
v 1.352990 -4.619400 -1.352990
v 0.689750 -4.903925 -0.689750
v 0.811060 4.903925 -0.541930
v 1.590950 4.619400 -1.063040
v 2.309700 4.157350 -1.543290
v 2.939690 3.535535 -1.964235
v 3.456710 2.777850 -2.309700
v 3.840890 1.913415 -2.566400
v 4.077465 0.975450 -2.724475
v 4.157350 -0.000000 -2.777850
v 4.077465 -0.975450 -2.724475
v 3.840890 -1.913415 -2.566400
v 3.456710 -2.777850 -2.309700
v 2.939690 -3.535535 -1.964235
v 2.309700 -4.157350 -1.543290
v 1.590950 -4.619400 -1.063040
v 0.811060 -4.903925 -0.541930
v 0.000000 5.000000 -0.000000
v 0.901200 4.903925 -0.373290
v 1.767765 4.619400 -0.732235
v 2.566400 4.157350 -1.063035
v 3.266405 3.535535 -1.352990
v 3.840890 2.777850 -1.590950
v 4.267765 1.913415 -1.767765
v 4.530635 0.975450 -1.876650
v 4.619395 -0.000000 -1.913415
v 4.530635 -0.975450 -1.876650
v 4.267765 -1.913415 -1.767765
v 3.840890 -2.777850 -1.590950
v 3.266405 -3.535535 -1.352990
v 2.566400 -4.157350 -1.063035
v 1.767765 -4.619400 -0.732235
v 0.901200 -4.903925 -0.373290
v 0.956710 4.903925 -0.190300
v 1.876650 4.619400 -0.373290
v 2.724475 4.157350 -0.541930
v 3.467600 3.535535 -0.689750
v 4.077465 2.777850 -0.811060
v 4.530635 1.913415 -0.901200
v 4.809700 0.975450 -0.956710
v 4.903925 -0.000000 -0.975450
v 4.809700 -0.975450 -0.956710
v 4.530635 -1.913415 -0.901200
v 4.077465 -2.777850 -0.811060
v 3.467600 -3.535535 -0.689750
v 2.724475 -4.157350 -0.541930
v 1.876650 -4.619400 -0.373290
v 0.956710 -4.903925 -0.190300
v 0.975450 4.903925 -0.000000
v 1.913415 4.619400 -0.000000
v 2.777850 4.157350 -0.000000
v 3.535535 3.535535 -0.000000
v 4.157345 2.777850 -0.000000
v 4.619395 1.913415 -0.000000
v 4.903925 0.975450 -0.000000
v 5.000000 0.000000 0.000000
v 4.903925 -0.975450 0.000000
v 4.619395 -1.913415 0.000000
v 4.157345 -2.777850 0.000000
v 3.535535 -3.535535 0.000000
v 2.777850 -4.157350 0.000000
v 1.913415 -4.619400 0.000000
v 0.975450 -4.903925 0.000000
v 0.956710 4.903925 0.190300
v 1.876650 4.619400 0.373290
v 2.724475 4.157350 0.541930
v 3.467600 3.535535 0.689750
v 4.077465 2.777850 0.811060
v 4.530635 1.913415 0.901200
v 4.809700 0.975450 0.956710
v 4.903925 0.000000 0.975450
v 4.809700 -0.975450 0.956710
v 4.530635 -1.913415 0.901200
v 4.077465 -2.777850 0.811060
v 3.467600 -3.535535 0.689750
v 2.724475 -4.157350 0.541930
v 1.876650 -4.619400 0.373290
v 0.956710 -4.903925 0.190300
v 0.901200 4.903925 0.373290
v 1.767765 4.619400 0.732235
v 2.566400 4.157350 1.063040
v 3.266405 3.535535 1.352990
v 3.840890 2.777850 1.590950
v 4.267765 1.913415 1.767765
v 4.530635 0.975450 1.876650
v 4.619395 0.000000 1.913415
v 4.530635 -0.975450 1.876650
v 4.267765 -1.913415 1.767765
v 3.840890 -2.777850 1.590950
v 3.266405 -3.535535 1.352990
v 2.566400 -4.157350 1.063040
v 1.767765 -4.619400 0.732235
v 0.901200 -4.903925 0.373290
v 0.811060 4.903925 0.541930
v 1.590950 4.619400 1.063040
v 2.309700 4.157350 1.543290
v 2.939690 3.535535 1.964235
v 3.456705 2.777850 2.309700
v 3.840890 1.913415 2.566400
v 4.077465 0.975450 2.724475
v 4.157345 0.000000 2.777850
v 4.077465 -0.975450 2.724475
v 3.840890 -1.913415 2.566400
v 3.456705 -2.777850 2.309700
v 2.939690 -3.535535 1.964235
v 2.309700 -4.157350 1.543290
v 1.590950 -4.619400 1.063040
v 0.811060 -4.903925 0.541930
v 0.689750 4.903925 0.689750
v 1.352990 4.619400 1.352990
v 1.964235 4.157350 1.964235
v 2.500000 3.535535 2.500000
v 2.939690 2.777850 2.939690
v 3.266405 1.913415 3.266405
v 3.467600 0.975450 3.467600
v 3.535530 0.000000 3.535535
v 3.467600 -0.975450 3.467600
v 3.266405 -1.913415 3.266405
v 2.939690 -2.777850 2.939690
v 2.500000 -3.535535 2.500000
v 1.964235 -4.157350 1.964235
v 1.352990 -4.619400 1.352990
v 0.689750 -4.903925 0.689750
v 0.541930 4.903925 0.811060
v 1.063035 4.619400 1.590950
v 1.543290 4.157350 2.309700
v 1.964235 3.535535 2.939690
v 2.309700 2.777850 3.456710
v 2.566400 1.913415 3.840890
v 2.724475 0.975450 4.077465
v 2.777850 0.000000 4.157345
v 2.724475 -0.975450 4.077465
v 2.566400 -1.913415 3.840890
v 2.309700 -2.777850 3.456710
v 1.964235 -3.535535 2.939690
v 1.543290 -4.157350 2.309700
v 1.063035 -4.619400 1.590950
v 0.541930 -4.903925 0.811060
v 0.373290 4.903925 0.901200
v 0.732235 4.619400 1.767765
v 1.063035 4.157350 2.566400
v 1.352990 3.535535 3.266405
v 1.590945 2.777850 3.840890
v 1.767765 1.913415 4.267765
v 1.876650 0.975450 4.530635
v 1.913415 0.000000 4.619395
v 1.876650 -0.975450 4.530635
v 1.767765 -1.913415 4.267765
v 1.590945 -2.777850 3.840890
v 1.352990 -3.535535 3.266405
v 1.063035 -4.157350 2.566400
v 0.732235 -4.619400 1.767765
v 0.373290 -4.903925 0.901200
v 0.190300 4.903925 0.956710
v 0.373290 4.619400 1.876650
v 0.541930 4.157350 2.724475
v 0.689750 3.535535 3.467600
v 0.811060 2.777850 4.077465
v 0.901200 1.913415 4.530635
v 0.956710 0.975450 4.809695
v 0.975450 0.000000 4.903925
v 0.956710 -0.975450 4.809695
v 0.901200 -1.913415 4.530635
v 0.811060 -2.777850 4.077465
v 0.689750 -3.535535 3.467600
v 0.541930 -4.157350 2.724475
v 0.373290 -4.619400 1.876650
v 0.190300 -4.903925 0.956710
v 0.000000 4.903925 0.975450
v 0.000000 4.619400 1.913415
v 0.000000 4.157350 2.777850
v 0.000000 3.535535 3.535535
v 0.000000 2.777850 4.157345
v 0.000000 1.913415 4.619395
v 0.000000 0.975450 4.903925
v 0.000000 0.000000 4.999995
v 0.000000 -0.975450 4.903925
v 0.000000 -1.913415 4.619395
v 0.000000 -2.777850 4.157345
v 0.000000 -3.535535 3.535535
v 0.000000 -4.157350 2.777850
v 0.000000 -4.619400 1.913415
v 0.000000 -4.903925 0.975450
v -0.190300 4.903925 0.956710
v -0.373290 4.619400 1.876650
v -0.541930 4.157350 2.724475
v -0.689750 3.535535 3.467600
v -0.811060 2.777850 4.077465
v -0.901200 1.913415 4.530635
v -0.956710 0.975450 4.809695
v -0.975455 0.000000 4.903925
v -0.956710 -0.975450 4.809695
v -0.901200 -1.913415 4.530635
v -0.811060 -2.777850 4.077465
v -0.689750 -3.535535 3.467600
v -0.541930 -4.157350 2.724475
v -0.373290 -4.619400 1.876650
v -0.190300 -4.903925 0.956710
v -0.373290 4.903925 0.901200
v -0.732235 4.619400 1.767765
v -1.063040 4.157350 2.566400
v -1.352990 3.535535 3.266405
v -1.590950 2.777850 3.840885
v -1.767765 1.913415 4.267765
v -1.876650 0.975450 4.530635
v -1.913415 0.000000 4.619395
v -1.876650 -0.975450 4.530635
v -1.767765 -1.913415 4.267765
v -1.590950 -2.777850 3.840885
v -1.352990 -3.535535 3.266405
v -1.063040 -4.157350 2.566400
v -0.732235 -4.619400 1.767765
v -0.373290 -4.903925 0.901200
v -0.541930 4.903925 0.811060
v -1.063040 4.619400 1.590950
v -1.543290 4.157350 2.309695
v -1.964235 3.535535 2.939690
v -2.309700 2.777850 3.456705
v -2.566400 1.913415 3.840890
v -2.724475 0.975450 4.077465
v -2.777850 0.000000 4.157345
v -2.724475 -0.975450 4.077465
v -2.566400 -1.913415 3.840890
v -2.309700 -2.777850 3.456705
v -1.964235 -3.535535 2.939690
v -1.543290 -4.157350 2.309695
v -1.063040 -4.619400 1.590950
v -0.541930 -4.903925 0.811060
v -0.689750 4.903925 0.689750
v -1.352990 4.619400 1.352990
v -1.964235 4.157350 1.964235
v -2.500000 3.535535 2.500000
v -2.939690 2.777850 2.939685
v -3.266405 1.913415 3.266405
v -3.467600 0.975450 3.467600
v -3.535530 0.000000 3.535530
v -3.467600 -0.975450 3.467600
v -3.266405 -1.913415 3.266405
v -2.939690 -2.777850 2.939685
v -2.500000 -3.535535 2.500000
v -1.964235 -4.157350 1.964235
v -1.352990 -4.619400 1.352990
v -0.689750 -4.903925 0.689750
v 0.000000 -5.000000 0.000000
v -0.811060 4.903925 0.541930
v -1.590950 4.619400 1.063035
v -2.309700 4.157350 1.543290
v -2.939690 3.535535 1.964235
v -3.456705 2.777850 2.309695
v -3.840885 1.913415 2.566400
v -4.077465 0.975450 2.724475
v -4.157345 0.000000 2.777845
v -4.077465 -0.975450 2.724475
v -3.840885 -1.913415 2.566400
v -3.456705 -2.777850 2.309695
v -2.939690 -3.535535 1.964235
v -2.309700 -4.157350 1.543290
v -1.590950 -4.619400 1.063035
v -0.811060 -4.903925 0.541930
v -0.901200 4.903925 0.373290
v -1.767765 4.619400 0.732235
v -2.566400 4.157350 1.063035
v -3.266405 3.535535 1.352990
v -3.840885 2.777850 1.590945
v -4.267765 1.913415 1.767765
v -4.530635 0.975450 1.876650
v -4.619395 0.000000 1.913415
v -4.530635 -0.975450 1.876650
v -4.267765 -1.913415 1.767765
v -3.840885 -2.777850 1.590945
v -3.266405 -3.535535 1.352990
v -2.566400 -4.157350 1.063035
v -1.767765 -4.619400 0.732235
v -0.901200 -4.903925 0.373290
v -0.956710 4.903925 0.190300
v -1.876650 4.619400 0.373290
v -2.724475 4.157350 0.541930
v -3.467600 3.535535 0.689750
v -4.077465 2.777850 0.811055
v -4.530635 1.913415 0.901200
v -4.809695 0.975450 0.956705
v -4.903920 0.000000 0.975450
v -4.809695 -0.975450 0.956705
v -4.530635 -1.913415 0.901200
v -4.077465 -2.777850 0.811055
v -3.467600 -3.535535 0.689750
v -2.724475 -4.157350 0.541930
v -1.876650 -4.619400 0.373290
v -0.956710 -4.903925 0.190300
v -0.975450 4.903925 -0.000000
v -1.913415 4.619400 -0.000000
v -2.777850 4.157350 -0.000000
v -3.535535 3.535535 -0.000000
v -4.157345 2.777850 -0.000000
v -4.619395 1.913415 -0.000000
v -4.903925 0.975450 -0.000000
v -4.999995 0.000000 0.000000
v -4.903925 -0.975450 0.000000
v -4.619395 -1.913415 0.000000
v -4.157345 -2.777850 0.000000
v -3.535535 -3.535535 0.000000
v -2.777850 -4.157350 0.000000
v -1.913415 -4.619400 0.000000
v -0.975450 -4.903925 0.000000
v -0.956710 4.903925 -0.190300
v -1.876650 4.619400 -0.373290
v -2.724475 4.157350 -0.541930
v -3.467600 3.535535 -0.689750
v -4.077465 2.777850 -0.811060
v -4.530635 1.913415 -0.901200
v -4.809695 0.975450 -0.956710
v -4.903920 -0.000000 -0.975455
v -4.809695 -0.975450 -0.956710
v -4.530635 -1.913415 -0.901200
v -4.077465 -2.777850 -0.811060
v -3.467600 -3.535535 -0.689750
v -2.724475 -4.157350 -0.541930
v -1.876650 -4.619400 -0.373290
v -0.956710 -4.903925 -0.190300
v -0.901200 4.903925 -0.373290
v -1.767765 4.619400 -0.732235
v -2.566395 4.157350 -1.063035
v -3.266405 3.535535 -1.352990
v -3.840885 2.777850 -1.590950
v -4.267765 1.913415 -1.767765
v -4.530635 0.975450 -1.876650
v -4.619390 -0.000000 -1.913415
v -4.530635 -0.975450 -1.876650
v -4.267765 -1.913415 -1.767765
v -3.840885 -2.777850 -1.590950
v -3.266405 -3.535535 -1.352990
v -2.566395 -4.157350 -1.063035
v -1.767765 -4.619400 -0.732235
v -0.901200 -4.903925 -0.373290
v -0.811060 4.903925 -0.541930
v -1.590945 4.619400 -1.063035
v -2.309695 4.157350 -1.543290
v -2.939690 3.535535 -1.964235
v -3.456705 2.777850 -2.309700
v -3.840885 1.913415 -2.566400
v -4.077465 0.975450 -2.724475
v -4.157340 -0.000000 -2.777850
v -4.077465 -0.975450 -2.724475
v -3.840885 -1.913415 -2.566400
v -3.456705 -2.777850 -2.309700
v -2.939690 -3.535535 -1.964235
v -2.309695 -4.157350 -1.543290
v -1.590945 -4.619400 -1.063035
v -0.811060 -4.903925 -0.541930
v -0.689750 4.903925 -0.689750
v -1.352990 4.619400 -1.352990
v -1.964235 4.157350 -1.964235
v -2.500000 3.535535 -2.500000
v -2.939685 2.777850 -2.939690
v -3.266405 1.913415 -3.266405
v -3.467595 0.975450 -3.467600
v -3.535530 -0.000000 -3.535530
v -3.467595 -0.975450 -3.467600
v -3.266405 -1.913415 -3.266405
v -2.939685 -2.777850 -2.939690
v -2.500000 -3.535535 -2.500000
v -1.964235 -4.157350 -1.964235
v -1.352990 -4.619400 -1.352990
v -0.689750 -4.903925 -0.689750
v -0.541930 4.903925 -0.811060
v -1.063035 4.619400 -1.590950
v -1.543290 4.157350 -2.309695
v -1.964235 3.535535 -2.939690
v -2.309695 2.777850 -3.456705
v -2.566400 1.913415 -3.840885
v -2.724475 0.975450 -4.077465
v -2.777845 -0.000000 -4.157345
v -2.724475 -0.975450 -4.077465
v -2.566400 -1.913415 -3.840885
v -2.309695 -2.777850 -3.456705
v -1.964235 -3.535535 -2.939690
v -1.543290 -4.157350 -2.309695
v -1.063035 -4.619400 -1.590950
v -0.541930 -4.903925 -0.811060
v -0.373290 4.903925 -0.901200
v -0.732230 4.619400 -1.767765
v -1.063035 4.157350 -2.566395
v -1.352990 3.535535 -3.266405
v -1.590945 2.777850 -3.840885
v -1.767765 1.913415 -4.267765
v -1.876650 0.975450 -4.530635
v -1.913415 -0.000000 -4.619395
v -1.876650 -0.975450 -4.530635
v -1.767765 -1.913415 -4.267765
v -1.590945 -2.777850 -3.840885
v -1.352990 -3.535535 -3.266405
v -1.063035 -4.157350 -2.566395
v -0.732230 -4.619400 -1.767765
v -0.373290 -4.903925 -0.901200
v -0.190300 4.903925 -0.956710
v -0.373290 4.619400 -1.876650
v -0.541930 4.157350 -2.724475
v -0.689750 3.535535 -3.467600
v -0.811055 2.777850 -4.077465
v -0.901200 1.913415 -4.530635
v -0.956705 0.975450 -4.809695
v -0.975450 -0.000000 -4.903920
v -0.956705 -0.975450 -4.809695
v -0.901200 -1.913415 -4.530635
v -0.811055 -2.777850 -4.077465
v -0.689750 -3.535535 -3.467600
v -0.541930 -4.157350 -2.724475
v -0.373290 -4.619400 -1.876650
v -0.190300 -4.903925 -0.956710
v 0.000000 4.903925 -0.975450
v 0.000000 4.619400 -1.913415
v 0.000000 3.535535 -3.535535
v 0.000000 1.913415 -4.619395
v 0.000000 -1.913415 -4.619395
v 0.000000 -3.535535 -3.535535
v 0.000000 -4.157350 -2.777850
v 0.000000 -4.619400 -1.913415
v 0.000000 -4.903925 -0.975450
vn 0.0464 0.8810 -0.4709
vn 0.0865 -0.4696 -0.8786
vn 0.0624 0.7715 -0.6332
vn 0.0759 -0.6326 -0.7708
vn 0.0759 0.6326 -0.7708
vn 0.0624 -0.7715 -0.6332
vn 0.0865 0.4696 -0.8786
vn 0.0464 -0.8810 -0.4709
vn 0.0938 0.2890 -0.9527
vn 0.0286 -0.9566 -0.2902
vn 0.0975 0.0975 -0.9904
vn 0.0976 0.0976 -0.9904
vn 0.0097 0.9951 -0.0980
vn 0.0097 -0.9951 -0.0980
vn 0.0975 -0.0975 -0.9904
vn 0.0286 0.9566 -0.2902
vn 0.0938 -0.2890 -0.9527
vn 0.2889 -0.0975 -0.9524
vn 0.0846 0.9566 -0.2790
vn 0.2779 -0.2890 -0.9161
vn 0.1374 0.8810 -0.4528
vn 0.2563 -0.4696 -0.8449
vn 0.2563 -0.4696 -0.8448
vn 0.1847 0.7715 -0.6088
vn 0.2248 -0.6326 -0.7412
vn 0.2248 0.6326 -0.7412
vn 0.1847 -0.7715 -0.6088
vn 0.2563 0.4696 -0.8449
vn 0.2563 0.4696 -0.8448
vn 0.1374 -0.8810 -0.4528
vn 0.2779 0.2890 -0.9161
vn 0.0846 -0.9566 -0.2790
vn 0.2889 0.0975 -0.9524
vn 0.0286 0.9951 -0.0942
vn 0.0286 -0.9951 -0.0942
vn 0.2999 -0.7715 -0.5611
vn 0.4162 0.4696 -0.7786
vn 0.2230 -0.8810 -0.4173
vn 0.4513 0.2890 -0.8443
vn 0.1374 -0.9566 -0.2571
vn 0.4691 0.0975 -0.8777
vn 0.0464 0.9951 -0.0869
vn 0.0464 -0.9951 -0.0869
vn 0.4691 -0.0975 -0.8777
vn 0.1374 0.9566 -0.2571
vn 0.4513 -0.2890 -0.8443
vn 0.2230 0.8810 -0.4173
vn 0.2231 0.8810 -0.4173
vn 0.4162 -0.4696 -0.7786
vn 0.2999 0.7715 -0.5611
vn 0.3651 -0.6326 -0.6831
vn 0.3651 0.6326 -0.6831
vn 0.6073 -0.2890 -0.7400
vn 0.3002 0.8810 -0.3658
vn 0.5601 -0.4696 -0.6825
vn 0.4036 0.7715 -0.4918
vn 0.4913 -0.6326 -0.5987
vn 0.4913 0.6326 -0.5987
vn 0.4036 -0.7715 -0.4918
vn 0.5601 0.4696 -0.6825
vn 0.3002 -0.8810 -0.3658
vn 0.6073 0.2890 -0.7400
vn 0.1850 -0.9565 -0.2254
vn 0.1850 -0.9566 -0.2254
vn 0.6314 0.0975 -0.7693
vn 0.6314 0.0976 -0.7693
vn 0.0625 0.9951 -0.0761
vn 0.0625 -0.9951 -0.0761
vn 0.6314 -0.0975 -0.7693
vn 0.1850 0.9565 -0.2254
vn 0.1850 0.9566 -0.2254
vn 0.3658 -0.8810 -0.3002
vn 0.7400 0.2890 -0.6073
vn 0.2254 -0.9566 -0.1850
vn 0.7693 0.0976 -0.6314
vn 0.0761 0.9951 -0.0625
vn 0.0761 -0.9951 -0.0625
vn 0.7693 -0.0976 -0.6314
vn 0.2254 0.9566 -0.1850
vn 0.7400 -0.2890 -0.6073
vn 0.3658 0.8810 -0.3002
vn 0.6825 -0.4696 -0.5601
vn 0.4918 0.7715 -0.4036
vn 0.5987 -0.6326 -0.4913
vn 0.5987 0.6326 -0.4913
vn 0.4918 -0.7715 -0.4036
vn 0.6825 0.4696 -0.5601
vn 0.4173 0.8810 -0.2230
vn 0.4173 0.8810 -0.2231
vn 0.7786 -0.4696 -0.4162
vn 0.5611 0.7715 -0.2999
vn 0.6831 -0.6326 -0.3651
vn 0.6831 0.6326 -0.3651
vn 0.5611 -0.7715 -0.2999
vn 0.7786 0.4696 -0.4162
vn 0.4173 -0.8810 -0.2230
vn 0.8443 0.2890 -0.4513
vn 0.2571 -0.9566 -0.1374
vn 0.8777 0.0976 -0.4691
vn 0.8777 0.0975 -0.4691
vn 0.0869 0.9951 -0.0464
vn 0.0869 -0.9951 -0.0464
vn 0.8777 -0.0976 -0.4691
vn 0.2571 0.9566 -0.1374
vn 0.8443 -0.2890 -0.4513
vn 0.9161 0.2890 -0.2779
vn 0.2790 -0.9566 -0.0846
vn 0.9524 0.0975 -0.2889
vn 0.0942 0.9951 -0.0286
vn 0.0942 -0.9951 -0.0286
vn 0.9524 -0.0975 -0.2889
vn 0.2790 0.9566 -0.0846
vn 0.9161 -0.2890 -0.2779
vn 0.4528 0.8810 -0.1374
vn 0.8448 -0.4696 -0.2563
vn 0.8449 -0.4696 -0.2563
vn 0.6088 0.7715 -0.1847
vn 0.7412 -0.6326 -0.2248
vn 0.7412 0.6326 -0.2248
vn 0.6088 -0.7715 -0.1847
vn 0.8448 0.4696 -0.2563
vn 0.8449 0.4696 -0.2563
vn 0.4528 -0.8810 -0.1374
vn 0.8786 -0.4696 -0.0865
vn 0.6332 0.7715 -0.0624
vn 0.7708 -0.6326 -0.0759
vn 0.7708 0.6326 -0.0759
vn 0.6332 -0.7715 -0.0624
vn 0.8786 0.4696 -0.0865
vn 0.4709 -0.8810 -0.0464
vn 0.9527 0.2890 -0.0938
vn 0.2902 -0.9566 -0.0286
vn 0.9904 0.0975 -0.0975
vn 0.9904 0.0976 -0.0976
vn 0.0980 0.9951 -0.0097
vn 0.0980 -0.9951 -0.0097
vn 0.9904 -0.0975 -0.0975
vn 0.2902 0.9566 -0.0286
vn 0.9527 -0.2890 -0.0938
vn 0.4709 0.8810 -0.0464
vn 0.2902 -0.9566 0.0286
vn 0.9904 0.0975 0.0975
vn 0.9904 0.0976 0.0976
vn 0.0980 0.9951 0.0096
vn 0.0980 -0.9951 0.0097
vn 0.9904 -0.0975 0.0975
vn 0.2902 0.9566 0.0286
vn 0.9527 -0.2890 0.0938
vn 0.4709 0.8810 0.0464
vn 0.8786 -0.4696 0.0865
vn 0.6332 0.7715 0.0624
vn 0.7708 -0.6326 0.0759
vn 0.7708 0.6326 0.0759
vn 0.6332 -0.7715 0.0624
vn 0.8786 0.4696 0.0865
vn 0.4709 -0.8810 0.0464
vn 0.9527 0.2890 0.0938
vn 0.6088 0.7715 0.1847
vn 0.7412 -0.6326 0.2248
vn 0.7412 0.6326 0.2248
vn 0.6088 -0.7715 0.1847
vn 0.8448 0.4696 0.2563
vn 0.4528 -0.8810 0.1374
vn 0.9161 0.2890 0.2779
vn 0.2790 -0.9566 0.0846
vn 0.9524 0.0975 0.2889
vn 0.0942 0.9951 0.0286
vn 0.0942 -0.9951 0.0286
vn 0.9524 -0.0975 0.2889
vn 0.2790 0.9566 0.0846
vn 0.9161 -0.2890 0.2779
vn 0.4528 0.8810 0.1374
vn 0.8448 -0.4696 0.2563
vn 0.8449 -0.4696 0.2563
vn 0.8777 0.0975 0.4691
vn 0.0869 0.9951 0.0464
vn 0.0869 -0.9951 0.0464
vn 0.8777 -0.0975 0.4691
vn 0.2571 0.9566 0.1374
vn 0.8443 -0.2890 0.4513
vn 0.4173 0.8810 0.2231
vn 0.4173 0.8810 0.2230
vn 0.7786 -0.4696 0.4162
vn 0.5611 0.7715 0.2999
vn 0.6831 -0.6326 0.3651
vn 0.6831 0.6326 0.3651
vn 0.5611 -0.7715 0.2999
vn 0.7786 0.4696 0.4162
vn 0.4173 -0.8810 0.2231
vn 0.4173 -0.8810 0.2230
vn 0.8443 0.2890 0.4513
vn 0.2571 -0.9566 0.1374
vn 0.5987 -0.6326 0.4913
vn 0.5987 0.6326 0.4913
vn 0.4918 -0.7715 0.4036
vn 0.6825 0.4696 0.5601
vn 0.3658 -0.8810 0.3002
vn 0.7400 0.2890 0.6073
vn 0.2254 -0.9566 0.1850
vn 0.7693 0.0975 0.6314
vn 0.0761 0.9951 0.0625
vn 0.0761 -0.9951 0.0625
vn 0.7693 -0.0975 0.6314
vn 0.2254 0.9566 0.1850
vn 0.7400 -0.2890 0.6073
vn 0.3658 0.8810 0.3002
vn 0.6825 -0.4696 0.5601
vn 0.4918 0.7715 0.4036
vn 0.0625 -0.9951 0.0761
vn 0.6314 -0.0975 0.7693
vn 0.1850 0.9566 0.2254
vn 0.6073 -0.2890 0.7400
vn 0.3002 0.8810 0.3658
vn 0.5601 -0.4696 0.6825
vn 0.4036 0.7715 0.4918
vn 0.4913 -0.6326 0.5987
vn 0.4913 0.6326 0.5987
vn 0.4036 -0.7715 0.4918
vn 0.5601 0.4696 0.6825
vn 0.3002 -0.8810 0.3658
vn 0.6073 0.2890 0.7400
vn 0.1850 -0.9566 0.2254
vn 0.6314 0.0975 0.7693
vn 0.0625 0.9951 0.0761
vn 0.2999 -0.7715 0.5611
vn 0.4162 0.4696 0.7786
vn 0.2230 -0.8810 0.4173
vn 0.4513 0.2890 0.8443
vn 0.1374 -0.9566 0.2571
vn 0.4691 0.0975 0.8777
vn 0.0464 0.9951 0.0869
vn 0.0464 -0.9951 0.0869
vn 0.4691 -0.0975 0.8777
vn 0.1374 0.9566 0.2571
vn 0.4513 -0.2890 0.8443
vn 0.2230 0.8810 0.4173
vn 0.4162 -0.4696 0.7786
vn 0.2999 0.7715 0.5611
vn 0.3651 -0.6326 0.6831
vn 0.3651 0.6326 0.6831
vn 0.0846 0.9566 0.2790
vn 0.2779 -0.2890 0.9161
vn 0.1374 0.8810 0.4528
vn 0.2563 -0.4696 0.8448
vn 0.1847 0.7715 0.6088
vn 0.2248 -0.6326 0.7412
vn 0.2248 0.6326 0.7412
vn 0.1847 -0.7715 0.6088
vn 0.2563 0.4696 0.8448
vn 0.1374 -0.8810 0.4528
vn 0.2779 0.2890 0.9161
vn 0.0846 -0.9566 0.2790
vn 0.2889 0.0976 0.9524
vn 0.0286 0.9951 0.0942
vn 0.0286 -0.9951 0.0942
vn 0.2889 -0.0976 0.9524
vn 0.2889 -0.0975 0.9524
vn 0.0865 0.4696 0.8786
vn 0.0464 -0.8810 0.4709
vn 0.0938 0.2890 0.9527
vn 0.0286 -0.9566 0.2902
vn 0.0975 0.0975 0.9904
vn 0.0097 0.9951 0.0980
vn 0.0097 -0.9951 0.0980
vn 0.0975 -0.0975 0.9904
vn 0.0976 -0.0976 0.9904
vn 0.0286 0.9566 0.2902
vn 0.0938 -0.2890 0.9527
vn 0.0464 0.8810 0.4709
vn 0.0865 -0.4696 0.8786
vn 0.0624 0.7715 0.6332
vn 0.0759 -0.6326 0.7708
vn 0.0759 0.6326 0.7708
vn 0.0624 -0.7715 0.6332
vn -0.0938 -0.2890 0.9527
vn -0.0464 0.8810 0.4709
vn -0.0865 -0.4696 0.8786
vn -0.0624 0.7715 0.6332
vn -0.0759 -0.6326 0.7708
vn -0.0759 0.6326 0.7708
vn -0.0624 -0.7715 0.6332
vn -0.0865 0.4696 0.8786
vn -0.0464 -0.8810 0.4709
vn -0.0938 0.2890 0.9527
vn -0.0286 -0.9566 0.2902
vn -0.0975 0.0975 0.9904
vn -0.0975 0.0976 0.9904
vn -0.0097 0.9951 0.0980
vn -0.0097 -0.9951 0.0980
vn -0.0975 -0.0975 0.9904
vn -0.0976 -0.0975 0.9904
vn -0.0286 0.9566 0.2902
vn -0.1374 -0.8810 0.4528
vn -0.2779 0.2890 0.9161
vn -0.0846 -0.9566 0.2790
vn -0.2889 0.0976 0.9524
vn -0.2889 0.0975 0.9524
vn -0.0286 0.9951 0.0942
vn -0.0286 -0.9951 0.0942
vn -0.2889 -0.0976 0.9524
vn -0.0846 0.9566 0.2790
vn -0.2779 -0.2890 0.9161
vn -0.1374 0.8810 0.4528
vn -0.2563 -0.4696 0.8448
vn -0.1847 0.7715 0.6088
vn -0.2248 -0.6326 0.7412
vn -0.2248 0.6326 0.7412
vn -0.1847 -0.7715 0.6088
vn -0.2563 0.4696 0.8448
vn -0.2230 0.8810 0.4173
vn -0.2231 0.8810 0.4173
vn -0.4162 -0.4696 0.7786
vn -0.2999 0.7715 0.5611
vn -0.3651 -0.6326 0.6831
vn -0.3651 0.6326 0.6831
vn -0.2999 -0.7715 0.5611
vn -0.4162 0.4696 0.7786
vn -0.2230 -0.8810 0.4173
vn -0.2231 -0.8810 0.4173
vn -0.4513 0.2890 0.8443
vn -0.1374 -0.9566 0.2571
vn -0.4691 0.0975 0.8777
vn -0.0464 0.9951 0.0869
vn -0.0464 -0.9951 0.0869
vn -0.4691 -0.0975 0.8777
vn -0.1374 0.9566 0.2571
vn -0.4513 -0.2890 0.8443
vn -0.6073 0.2890 0.7400
vn -0.1850 -0.9565 0.2254
vn -0.1850 -0.9566 0.2254
vn -0.6314 0.0975 0.7693
vn -0.0625 0.9951 0.0761
vn -0.0625 -0.9951 0.0761
vn -0.6314 -0.0975 0.7693
vn -0.1850 0.9565 0.2254
vn -0.1850 0.9566 0.2254
vn -0.6073 -0.2890 0.7400
vn -0.3002 0.8810 0.3658
vn -0.5601 -0.4696 0.6825
vn -0.4036 0.7715 0.4918
vn -0.4913 -0.6326 0.5987
vn -0.4913 0.6326 0.5987
vn -0.4036 -0.7715 0.4918
vn -0.5601 0.4696 0.6825
vn -0.3002 -0.8810 0.3658
vn -0.6825 -0.4696 0.5601
vn -0.4918 0.7715 0.4036
vn -0.5987 -0.6326 0.4913
vn -0.5987 0.6326 0.4913
vn -0.4918 -0.7715 0.4036
vn -0.6825 0.4696 0.5601
vn -0.3658 -0.8810 0.3002
vn -0.7400 0.2890 0.6073
vn -0.2254 -0.9566 0.1850
vn -0.7693 0.0975 0.6314
vn -0.0761 0.9951 0.0625
vn -0.0761 -0.9951 0.0625
vn -0.7693 -0.0975 0.6314
vn -0.2254 0.9566 0.1850
vn -0.7400 -0.2890 0.6073
vn -0.3658 0.8810 0.3002
vn -0.2571 -0.9566 0.1374
vn -0.8777 0.0975 0.4691
vn -0.8777 0.0975 0.4692
vn -0.0869 0.9951 0.0464
vn -0.0869 -0.9951 0.0464
vn -0.8777 -0.0975 0.4691
vn -0.2571 0.9566 0.1374
vn -0.8443 -0.2890 0.4513
vn -0.4173 0.8810 0.2230
vn -0.7786 -0.4696 0.4162
vn -0.5611 0.7715 0.2999
vn -0.6831 -0.6326 0.3651
vn -0.6831 0.6326 0.3651
vn -0.5611 -0.7715 0.2999
vn -0.7786 0.4696 0.4162
vn -0.4173 -0.8810 0.2230
vn -0.8443 0.2890 0.4513
vn -0.7412 -0.6326 0.2248
vn -0.7412 0.6326 0.2248
vn -0.6088 -0.7715 0.1847
vn -0.8448 0.4696 0.2563
vn -0.4528 -0.8810 0.1374
vn -0.9161 0.2890 0.2779
vn -0.2790 -0.9566 0.0846
vn -0.9524 0.0975 0.2889
vn -0.0942 0.9951 0.0286
vn -0.0942 -0.9951 0.0286
vn -0.9524 -0.0975 0.2889
vn -0.2790 0.9566 0.0846
vn -0.9161 -0.2890 0.2779
vn -0.4528 0.8810 0.1374
vn -0.8448 -0.4696 0.2563
vn -0.6088 0.7715 0.1847
vn -0.0980 0.9951 0.0096
vn -0.0980 -0.9951 0.0097
vn -0.9904 -0.0975 0.0976
vn -0.2902 0.9566 0.0286
vn -0.9527 -0.2890 0.0938
vn -0.4709 0.8810 0.0464
vn -0.8786 -0.4696 0.0865
vn -0.6332 0.7715 0.0624
vn -0.7708 -0.6326 0.0759
vn -0.7708 0.6326 0.0759
vn -0.6332 -0.7715 0.0624
vn -0.8786 0.4696 0.0865
vn -0.4709 -0.8810 0.0464
vn -0.9527 0.2890 0.0938
vn -0.2902 -0.9566 0.0286
vn -0.9904 0.0975 0.0976
vn -0.7708 0.6326 -0.0759
vn -0.6332 -0.7715 -0.0624
vn -0.8786 0.4696 -0.0865
vn -0.4709 -0.8810 -0.0464
vn -0.9527 0.2890 -0.0938
vn -0.2902 -0.9566 -0.0286
vn -0.9904 0.0975 -0.0976
vn -0.0980 0.9951 -0.0097
vn -0.0980 -0.9951 -0.0097
vn -0.9904 -0.0975 -0.0976
vn -0.2902 0.9566 -0.0286
vn -0.9527 -0.2890 -0.0938
vn -0.4709 0.8810 -0.0464
vn -0.8786 -0.4696 -0.0865
vn -0.6332 0.7715 -0.0624
vn -0.7708 -0.6326 -0.0759
vn -0.9524 -0.0975 -0.2889
vn -0.2790 0.9566 -0.0846
vn -0.9161 -0.2890 -0.2779
vn -0.4528 0.8810 -0.1374
vn -0.8448 -0.4696 -0.2563
vn -0.6088 0.7715 -0.1847
vn -0.7412 -0.6326 -0.2248
vn -0.7412 0.6326 -0.2248
vn -0.6088 -0.7715 -0.1847
vn -0.8448 0.4696 -0.2563
vn -0.4528 -0.8810 -0.1374
vn -0.9161 0.2890 -0.2779
vn -0.2790 -0.9566 -0.0846
vn -0.9524 0.0975 -0.2889
vn -0.0942 0.9951 -0.0286
vn -0.0942 -0.9951 -0.0286
vn -0.5611 -0.7715 -0.2999
vn -0.7786 0.4696 -0.4162
vn -0.4173 -0.8810 -0.2231
vn -0.4173 -0.8810 -0.2230
vn -0.8443 0.2890 -0.4513
vn -0.2571 -0.9566 -0.1374
vn -0.8777 0.0975 -0.4691
vn -0.0869 0.9951 -0.0464
vn -0.0869 -0.9951 -0.0464
vn -0.8777 -0.0975 -0.4691
vn -0.2571 0.9566 -0.1374
vn -0.8443 -0.2890 -0.4513
vn -0.4173 0.8810 -0.2231
vn -0.4173 0.8810 -0.2230
vn -0.7786 -0.4696 -0.4162
vn -0.5611 0.7715 -0.2999
vn -0.6831 -0.6326 -0.3651
vn -0.6831 0.6326 -0.3651
vn -0.2254 0.9566 -0.1850
vn -0.7400 -0.2890 -0.6073
vn -0.3658 0.8810 -0.3002
vn -0.6825 -0.4696 -0.5601
vn -0.4918 0.7715 -0.4036
vn -0.5987 -0.6326 -0.4913
vn -0.5987 0.6326 -0.4913
vn -0.4918 -0.7715 -0.4036
vn -0.6825 0.4696 -0.5601
vn -0.3658 -0.8810 -0.3002
vn -0.7400 0.2890 -0.6073
vn -0.2254 -0.9566 -0.1850
vn -0.7693 0.0975 -0.6314
vn -0.0761 0.9951 -0.0625
vn -0.0761 -0.9951 -0.0625
vn -0.7693 -0.0975 -0.6314
vn -0.5601 0.4696 -0.6825
vn -0.3002 -0.8810 -0.3658
vn -0.6073 0.2890 -0.7400
vn -0.1850 -0.9566 -0.2254
vn -0.6314 0.0975 -0.7693
vn -0.0625 0.9951 -0.0761
vn -0.0625 -0.9951 -0.0761
vn -0.6314 -0.0975 -0.7693
vn -0.1850 0.9566 -0.2254
vn -0.6073 -0.2890 -0.7400
vn -0.3002 0.8810 -0.3658
vn -0.5601 -0.4696 -0.6825
vn -0.4036 0.7715 -0.4918
vn -0.4913 -0.6326 -0.5987
vn -0.4913 0.6326 -0.5987
vn -0.4036 -0.7715 -0.4918
vn -0.4513 -0.2890 -0.8443
vn -0.2230 0.8810 -0.4173
vn -0.4162 -0.4696 -0.7786
vn -0.2999 0.7715 -0.5611
vn -0.3651 -0.6326 -0.6831
vn -0.3651 0.6326 -0.6831
vn -0.2999 -0.7715 -0.5611
vn -0.4162 0.4696 -0.7786
vn -0.2230 -0.8810 -0.4173
vn -0.4513 0.2890 -0.8443
vn -0.1374 -0.9566 -0.2571
vn -0.4691 0.0975 -0.8777
vn -0.4692 0.0975 -0.8777
vn -0.0464 0.9951 -0.0869
vn -0.0464 -0.9951 -0.0869
vn -0.4691 -0.0975 -0.8777
vn -0.1374 0.9566 -0.2571
vn -0.1374 -0.8810 -0.4528
vn -0.2779 0.2890 -0.9161
vn -0.0846 -0.9566 -0.2790
vn -0.2889 0.0975 -0.9524
vn -0.0286 0.9951 -0.0942
vn -0.0286 -0.9951 -0.0942
vn -0.2889 -0.0975 -0.9524
vn -0.0846 0.9566 -0.2790
vn -0.2779 -0.2890 -0.9161
vn -0.1374 0.8810 -0.4528
vn -0.2563 -0.4696 -0.8448
vn -0.1847 0.7715 -0.6088
vn -0.2248 -0.6326 -0.7412
vn -0.2248 0.6326 -0.7412
vn -0.1847 -0.7715 -0.6088
vn -0.2563 0.4696 -0.8448
vn -0.0865 -0.4696 -0.8786
vn -0.0624 0.7715 -0.6332
vn -0.0759 -0.6326 -0.7708
vn -0.0759 0.6326 -0.7708
vn -0.0624 -0.7715 -0.6332
vn -0.0865 0.4696 -0.8786
vn -0.0464 -0.8810 -0.4709
vn -0.0938 0.2890 -0.9527
vn -0.0286 -0.9566 -0.2902
vn -0.0976 0.0975 -0.9904
vn -0.0097 0.9951 -0.0980
vn -0.0097 -0.9951 -0.0980
vn -0.0976 -0.0975 -0.9904
vn -0.0976 -0.0976 -0.9904
vn -0.0286 0.9566 -0.2902
vn -0.0938 -0.2890 -0.9527
vn -0.0464 0.8810 -0.4709
vn 0.0976 -0.0976 -0.9904
vn 0.2231 -0.8810 -0.4173
vn 0.6314 -0.0976 -0.7693
vn 0.8777 -0.0975 -0.4691
vn 0.9904 -0.0976 -0.0976
vn 0.9904 -0.0976 0.0976
vn 0.8449 0.4696 0.2563
vn 0.2889 0.0975 0.9524
vn 0.0976 0.0976 0.9904
vn -0.0976 0.0975 0.9904
vn -0.0975 -0.0976 0.9904
vn -0.2889 -0.0975 0.9524
vn -0.8777 -0.0975 0.4692
vn -0.2571 0.9565 -0.1374
vn -0.4692 -0.0975 -0.8777
vn -0.1374 0.9565 -0.2571
vn -0.0976 0.0976 -0.9904
vt 0.750000 0.875000
vt 0.718750 0.812500
vt 0.750000 0.812500
vt 0.750000 0.312500
vt 0.718750 0.375000
vt 0.718750 0.312500
vt 0.750000 0.750000
vt 0.718750 0.750000
vt 0.750000 0.250000
vt 0.718750 0.250000
vt 0.718750 0.687500
vt 0.750000 0.687500
vt 0.718750 0.187500
vt 0.750000 0.187500
vt 0.718750 0.625000
vt 0.750000 0.625000
vt 0.750000 0.125000
vt 0.718750 0.125000
vt 0.750000 0.562500
vt 0.718750 0.562500
vt 0.718750 0.062500
vt 0.750000 0.062500
vt 0.718750 0.500000
vt 0.750000 0.500000
vt 0.750000 0.937500
vt 0.734375 1.000000
vt 0.718750 0.937500
vt 0.734375 0.000000
vt 0.750000 0.437500
vt 0.718750 0.437500
vt 0.718750 0.875000
vt 0.750000 0.375000
vt 0.687500 0.500000
vt 0.687500 0.437500
vt 0.687500 0.937500
vt 0.687500 0.875000
vt 0.687500 0.375000
vt 0.687500 0.812500
vt 0.687500 0.312500
vt 0.687500 0.750000
vt 0.687500 0.250000
vt 0.687500 0.687500
vt 0.687500 0.187500
vt 0.687500 0.625000
vt 0.687500 0.125000
vt 0.687500 0.562500
vt 0.687500 0.062500
vt 0.703125 1.000000
vt 0.703125 0.000000
vt 0.656250 0.250000
vt 0.656250 0.187500
vt 0.656250 0.625000
vt 0.656250 0.125000
vt 0.656250 0.562500
vt 0.656250 0.062500
vt 0.656250 0.500000
vt 0.671875 1.000000
vt 0.656250 0.937500
vt 0.671875 0.000000
vt 0.656250 0.437500
vt 0.656250 0.875000
vt 0.656250 0.375000
vt 0.656250 0.812500
vt 0.656250 0.312500
vt 0.656250 0.750000
vt 0.656250 0.687500
vt 0.625000 0.375000
vt 0.625000 0.812500
vt 0.625000 0.312500
vt 0.625000 0.750000
vt 0.625000 0.250000
vt 0.625000 0.687500
vt 0.625000 0.187500
vt 0.625000 0.625000
vt 0.625000 0.125000
vt 0.625000 0.562500
vt 0.625000 0.062500
vt 0.625000 0.500000
vt 0.640625 1.000000
vt 0.625000 0.937500
vt 0.640625 0.000000
vt 0.625000 0.437500
vt 0.625000 0.875000
vt 0.593750 0.125000
vt 0.593750 0.562500
vt 0.593750 0.062500
vt 0.593750 0.500000
vt 0.609375 1.000000
vt 0.593750 0.937500
vt 0.609375 0.000000
vt 0.593750 0.437500
vt 0.593750 0.875000
vt 0.593750 0.375000
vt 0.593750 0.812500
vt 0.593750 0.312500
vt 0.593750 0.750000
vt 0.593750 0.250000
vt 0.593750 0.687500
vt 0.593750 0.187500
vt 0.593750 0.625000
vt 0.562500 0.812500
vt 0.562500 0.312500
vt 0.562500 0.750000
vt 0.562500 0.250000
vt 0.562500 0.687500
vt 0.562500 0.187500
vt 0.562500 0.625000
vt 0.562500 0.125000
vt 0.562500 0.562500
vt 0.562500 0.062500
vt 0.562500 0.500000
vt 0.578125 1.000000
vt 0.562500 0.937500
vt 0.578125 0.000000
vt 0.562500 0.437500
vt 0.562500 0.875000
vt 0.562500 0.375000
vt 0.531250 0.625000
vt 0.531250 0.562500
vt 0.531250 0.125000
vt 0.531250 0.062500
vt 0.531250 0.500000
vt 0.546875 1.000000
vt 0.531250 0.937500
vt 0.546875 0.000000
vt 0.531250 0.437500
vt 0.531250 0.875000
vt 0.531250 0.375000
vt 0.531250 0.812500
vt 0.531250 0.312500
vt 0.531250 0.750000
vt 0.531250 0.250000
vt 0.531250 0.687500
vt 0.531250 0.187500
vt 0.500000 0.375000
vt 0.500000 0.312500
vt 0.500000 0.750000
vt 0.500000 0.250000
vt 0.500000 0.687500
vt 0.500000 0.187500
vt 0.500000 0.625000
vt 0.500000 0.125000
vt 0.500000 0.562500
vt 0.500000 0.062500
vt 0.500000 0.500000
vt 0.515625 1.000000
vt 0.500000 0.937500
vt 0.515625 0.000000
vt 0.500000 0.437500
vt 0.500000 0.875000
vt 0.500000 0.812500
vt 0.468750 0.062500
vt 0.468750 0.500000
vt 0.484375 1.000000
vt 0.468750 0.937500
vt 0.484375 0.000000
vt 0.468750 0.437500
vt 0.468750 0.875000
vt 0.468750 0.375000
vt 0.468750 0.812500
vt 0.468750 0.312500
vt 0.468750 0.750000
vt 0.468750 0.250000
vt 0.468750 0.687500
vt 0.468750 0.187500
vt 0.468750 0.625000
vt 0.468750 0.125000
vt 0.468750 0.562500
vt 0.437500 0.750000
vt 0.437500 0.250000
vt 0.437500 0.687500
vt 0.437500 0.187500
vt 0.437500 0.625000
vt 0.437500 0.125000
vt 0.437500 0.562500
vt 0.437500 0.062500
vt 0.437500 0.500000
vt 0.453125 1.000000
vt 0.437500 0.937500
vt 0.453125 0.000000
vt 0.437500 0.437500
vt 0.437500 0.875000
vt 0.437500 0.375000
vt 0.437500 0.812500
vt 0.437500 0.312500
vt 0.406250 0.562500
vt 0.406250 0.500000
vt 0.421875 1.000000
vt 0.406250 0.937500
vt 0.421875 0.000000
vt 0.406250 0.062500
vt 0.406250 0.437500
vt 0.406250 0.875000
vt 0.406250 0.375000
vt 0.406250 0.812500
vt 0.406250 0.312500
vt 0.406250 0.750000
vt 0.406250 0.250000
vt 0.406250 0.687500
vt 0.406250 0.187500
vt 0.406250 0.625000
vt 0.406250 0.125000
vt 0.375000 0.250000
vt 0.375000 0.750000
vt 0.375000 0.687500
vt 0.375000 0.187500
vt 0.375000 0.625000
vt 0.375000 0.125000
vt 0.375000 0.562500
vt 0.375000 0.062500
vt 0.375000 0.500000
vt 0.390625 1.000000
vt 0.375000 0.937500
vt 0.390625 0.000000
vt 0.375000 0.437500
vt 0.375000 0.875000
vt 0.375000 0.375000
vt 0.375000 0.812500
vt 0.375000 0.312500
vt 0.359375 0.000000
vt 0.343750 0.062500
vt 0.343750 0.437500
vt 0.343750 0.875000
vt 0.343750 0.375000
vt 0.343750 0.812500
vt 0.343750 0.312500
vt 0.343750 0.750000
vt 0.343750 0.250000
vt 0.343750 0.687500
vt 0.343750 0.187500
vt 0.343750 0.625000
vt 0.343750 0.125000
vt 0.343750 0.562500
vt 0.343750 0.500000
vt 0.359375 1.000000
vt 0.343750 0.937500
vt 0.312500 0.250000
vt 0.312500 0.187500
vt 0.312500 0.625000
vt 0.312500 0.125000
vt 0.312500 0.562500
vt 0.312500 0.062500
vt 0.312500 0.500000
vt 0.328125 1.000000
vt 0.312500 0.937500
vt 0.328125 0.000000
vt 0.312500 0.437500
vt 0.312500 0.875000
vt 0.312500 0.375000
vt 0.312500 0.812500
vt 0.312500 0.312500
vt 0.312500 0.750000
vt 0.312500 0.687500
vt 0.281250 0.875000
vt 0.281250 0.437500
vt 0.281250 0.375000
vt 0.281250 0.812500
vt 0.281250 0.312500
vt 0.281250 0.750000
vt 0.281250 0.250000
vt 0.281250 0.687500
vt 0.281250 0.187500
vt 0.281250 0.625000
vt 0.281250 0.125000
vt 0.281250 0.562500
vt 0.281250 0.062500
vt 0.281250 0.500000
vt 0.296875 1.000000
vt 0.281250 0.937500
vt 0.296875 0.000000
vt 0.250000 0.625000
vt 0.250000 0.125000
vt 0.250000 0.562500
vt 0.250000 0.062500
vt 0.250000 0.500000
vt 0.265625 1.000000
vt 0.250000 0.937500
vt 0.265625 0.000000
vt 0.250000 0.437500
vt 0.250000 0.875000
vt 0.250000 0.375000
vt 0.250000 0.812500
vt 0.250000 0.312500
vt 0.250000 0.750000
vt 0.250000 0.250000
vt 0.250000 0.687500
vt 0.250000 0.187500
vt 0.218750 0.375000
vt 0.218750 0.812500
vt 0.218750 0.312500
vt 0.218750 0.750000
vt 0.218750 0.250000
vt 0.218750 0.687500
vt 0.218750 0.187500
vt 0.218750 0.625000
vt 0.218750 0.125000
vt 0.218750 0.562500
vt 0.218750 0.062500
vt 0.218750 0.500000
vt 0.234375 1.000000
vt 0.218750 0.937500
vt 0.234375 0.000000
vt 0.218750 0.437500
vt 0.218750 0.875000
vt 0.187500 0.125000
vt 0.187500 0.625000
vt 0.187500 0.562500
vt 0.187500 0.062500
vt 0.187500 0.500000
vt 0.203125 1.000000
vt 0.187500 0.937500
vt 0.203125 0.000000
vt 0.187500 0.437500
vt 0.187500 0.875000
vt 0.187500 0.375000
vt 0.187500 0.812500
vt 0.187500 0.312500
vt 0.187500 0.750000
vt 0.187500 0.250000
vt 0.187500 0.687500
vt 0.187500 0.187500
vt 0.156250 0.812500
vt 0.156250 0.375000
vt 0.156250 0.312500
vt 0.156250 0.750000
vt 0.156250 0.250000
vt 0.156250 0.687500
vt 0.156250 0.187500
vt 0.156250 0.625000
vt 0.156250 0.125000
vt 0.156250 0.562500
vt 0.156250 0.062500
vt 0.156250 0.500000
vt 0.171875 1.000000
vt 0.156250 0.937500
vt 0.171875 0.000000
vt 0.156250 0.437500
vt 0.156250 0.875000
vt 0.125000 0.625000
vt 0.125000 0.562500
vt 0.125000 0.125000
vt 0.125000 0.062500
vt 0.125000 0.500000
vt 0.140625 1.000000
vt 0.125000 0.937500
vt 0.140625 0.000000
vt 0.125000 0.437500
vt 0.125000 0.875000
vt 0.125000 0.375000
vt 0.125000 0.812500
vt 0.125000 0.312500
vt 0.125000 0.750000
vt 0.125000 0.250000
vt 0.125000 0.687500
vt 0.125000 0.187500
vt 0.093750 0.375000
vt 0.093750 0.312500
vt 0.093750 0.812500
vt 0.093750 0.750000
vt 0.093750 0.250000
vt 0.093750 0.687500
vt 0.093750 0.187500
vt 0.093750 0.625000
vt 0.093750 0.125000
vt 0.093750 0.562500
vt 0.093750 0.062500
vt 0.093750 0.500000
vt 0.109375 1.000000
vt 0.093750 0.937500
vt 0.109375 0.000000
vt 0.093750 0.437500
vt 0.093750 0.875000
vt 0.062500 0.125000
vt 0.062500 0.062500
vt 0.062500 0.562500
vt 0.062500 0.500000
vt 0.078125 1.000000
vt 0.062500 0.937500
vt 0.078125 0.000000
vt 0.062500 0.437500
vt 0.062500 0.875000
vt 0.062500 0.375000
vt 0.062500 0.812500
vt 0.062500 0.312500
vt 0.062500 0.750000
vt 0.062500 0.250000
vt 0.062500 0.687500
vt 0.062500 0.187500
vt 0.062500 0.625000
vt 0.031250 0.250000
vt 0.031250 0.750000
vt 0.031250 0.687500
vt 0.031250 0.187500
vt 0.031250 0.625000
vt 0.031250 0.125000
vt 0.031250 0.562500
vt 0.031250 0.062500
vt 0.031250 0.500000
vt 0.046875 1.000000
vt 0.031250 0.937500
vt 0.046875 0.000000
vt 0.031250 0.437500
vt 0.031250 0.875000
vt 0.031250 0.375000
vt 0.031250 0.812500
vt 0.031250 0.312500
vt 0.015625 1.000000
vt 0.000000 0.937500
vt 0.015625 0.000000
vt 0.000000 0.062500
vt 0.000000 0.500000
vt 0.000000 0.437500
vt 0.000000 0.875000
vt 0.000000 0.375000
vt 0.000000 0.812500
vt 0.000000 0.312500
vt 0.000000 0.750000
vt 0.000000 0.250000
vt 0.000000 0.687500
vt 0.000000 0.187500
vt 0.000000 0.625000
vt 0.000000 0.125000
vt 0.000000 0.562500
vt 1.000000 0.687500
vt 0.968750 0.750000
vt 0.968750 0.687500
vt 1.000000 0.250000
vt 0.968750 0.187500
vt 1.000000 0.187500
vt 1.000000 0.625000
vt 0.968750 0.625000
vt 1.000000 0.125000
vt 0.968750 0.125000
vt 1.000000 0.562500
vt 0.968750 0.562500
vt 0.968750 0.062500
vt 1.000000 0.062500
vt 1.000000 0.500000
vt 0.968750 0.500000
vt 1.000000 0.937500
vt 0.984375 1.000000
vt 0.968750 0.937500
vt 0.984375 0.000000
vt 0.968750 0.437500
vt 1.000000 0.437500
vt 1.000000 0.875000
vt 0.968750 0.875000
vt 0.968750 0.375000
vt 1.000000 0.375000
vt 0.968750 0.812500
vt 1.000000 0.812500
vt 0.968750 0.312500
vt 1.000000 0.312500
vt 1.000000 0.750000
vt 0.968750 0.250000
vt 0.937500 0.437500
vt 0.937500 0.937500
vt 0.937500 0.875000
vt 0.937500 0.375000
vt 0.937500 0.812500
vt 0.937500 0.312500
vt 0.937500 0.750000
vt 0.937500 0.250000
vt 0.937500 0.687500
vt 0.937500 0.187500
vt 0.937500 0.625000
vt 0.937500 0.125000
vt 0.937500 0.562500
vt 0.937500 0.062500
vt 0.937500 0.500000
vt 0.953125 1.000000
vt 0.953125 0.000000
vt 0.906250 0.187500
vt 0.906250 0.625000
vt 0.906250 0.125000
vt 0.906250 0.562500
vt 0.906250 0.062500
vt 0.906250 0.500000
vt 0.921875 1.000000
vt 0.906250 0.937500
vt 0.921875 0.000000
vt 0.906250 0.437500
vt 0.906250 0.875000
vt 0.906250 0.375000
vt 0.906250 0.812500
vt 0.906250 0.312500
vt 0.906250 0.750000
vt 0.906250 0.250000
vt 0.906250 0.687500
vt 0.875000 0.937500
vt 0.875000 0.875000
vt 0.875000 0.375000
vt 0.875000 0.812500
vt 0.875000 0.312500
vt 0.875000 0.750000
vt 0.875000 0.250000
vt 0.875000 0.687500
vt 0.875000 0.187500
vt 0.875000 0.625000
vt 0.875000 0.125000
vt 0.875000 0.562500
vt 0.875000 0.062500
vt 0.875000 0.500000
vt 0.890625 1.000000
vt 0.890625 0.000000
vt 0.875000 0.437500
vt 0.843750 0.625000
vt 0.843750 0.187500
vt 0.843750 0.125000
vt 0.843750 0.562500
vt 0.843750 0.062500
vt 0.843750 0.500000
vt 0.859375 1.000000
vt 0.843750 0.937500
vt 0.859375 0.000000
vt 0.843750 0.437500
vt 0.843750 0.875000
vt 0.843750 0.375000
vt 0.843750 0.812500
vt 0.843750 0.312500
vt 0.843750 0.750000
vt 0.843750 0.250000
vt 0.843750 0.687500
vt 0.812500 0.375000
vt 0.812500 0.812500
vt 0.812500 0.312500
vt 0.812500 0.750000
vt 0.812500 0.250000
vt 0.812500 0.687500
vt 0.812500 0.187500
vt 0.812500 0.625000
vt 0.812500 0.125000
vt 0.812500 0.562500
vt 0.812500 0.062500
vt 0.812500 0.500000
vt 0.828125 1.000000
vt 0.812500 0.937500
vt 0.828125 0.000000
vt 0.812500 0.437500
vt 0.812500 0.875000
vt 0.781250 0.125000
vt 0.781250 0.625000
vt 0.781250 0.562500
vt 0.781250 0.062500
vt 0.781250 0.500000
vt 0.796875 1.000000
vt 0.781250 0.937500
vt 0.796875 0.000000
vt 0.781250 0.437500
vt 0.781250 0.875000
vt 0.781250 0.375000
vt 0.781250 0.812500
vt 0.781250 0.312500
vt 0.781250 0.750000
vt 0.781250 0.250000
vt 0.781250 0.687500
vt 0.781250 0.187500
vt 0.765625 1.000000
vt 0.765625 0.000000
s 1
f 475/1/1 9/2/1 1/3/1
f 6/4/2 16/5/2 17/6/2
f 476/7/3 9/2/3 10/8/3
f 479/9/4 17/6/4 18/10/4
f 476/7/5 11/11/5 2/12/5
f 479/9/6 19/13/6 480/14/6
f 2/12/7 12/15/7 477/16/7
f 481/17/8 19/13/8 20/18/8
f 3/19/9 12/15/9 13/20/9
f 481/17/10 21/21/10 482/22/10
f 3/19/11 14/23/11 4/24/12
f 474/25/13 82/26/13 7/27/13
f 308/28/14 482/22/14 21/21/14
f 5/29/15 14/23/15 15/30/15
f 475/1/16 7/27/16 8/31/16
f 5/29/17 16/5/17 478/32/17
f 15/30/18 29/33/18 30/34/18
f 8/31/19 22/35/19 23/36/19
f 16/5/20 30/34/20 31/37/20
f 8/31/21 24/38/21 9/2/21
f 17/6/22 31/37/23 32/39/22
f 9/2/24 25/40/24 10/8/24
f 17/6/25 33/41/25 18/10/25
f 11/11/26 25/40/26 26/42/26
f 19/13/27 33/41/27 34/43/27
f 11/11/28 27/44/29 12/15/29
f 19/13/30 35/45/30 20/18/30
f 12/15/31 28/46/31 13/20/31
f 20/18/32 36/47/32 21/21/32
f 13/20/33 29/33/33 14/23/33
f 7/27/34 82/48/34 22/35/34
f 308/49/35 21/21/35 36/47/35
f 34/43/36 48/50/36 49/51/36
f 26/42/37 42/52/37 27/44/37
f 34/43/38 50/53/38 35/45/38
f 28/46/39 42/52/39 43/54/39
f 35/45/40 51/55/40 36/47/40
f 29/33/41 43/54/41 44/56/41
f 22/35/42 82/57/42 37/58/42
f 308/59/43 36/47/43 51/55/43
f 29/33/44 45/60/44 30/34/44
f 23/36/45 37/58/45 38/61/45
f 30/34/46 46/62/46 31/37/46
f 24/38/47 38/61/47 39/63/48
f 32/39/49 46/62/49 47/64/49
f 24/38/50 40/65/50 25/40/50
f 32/39/51 48/50/51 33/41/51
f 26/42/52 40/65/52 41/66/52
f 45/60/53 61/67/53 46/62/53
f 38/61/54 54/68/54 39/63/54
f 47/64/55 61/67/55 62/69/55
f 39/63/56 55/70/56 40/65/56
f 47/64/57 63/71/57 48/50/57
f 41/66/58 55/70/58 56/72/58
f 49/51/59 63/71/59 64/73/59
f 41/66/60 57/74/60 42/52/60
f 50/53/61 64/73/61 65/75/61
f 43/54/62 57/74/62 58/76/62
f 51/55/63 65/75/64 66/77/63
f 44/56/65 58/76/65 59/78/66
f 37/58/67 82/79/67 52/80/67
f 308/81/68 51/55/68 66/77/68
f 44/56/69 60/82/69 45/60/69
f 37/58/70 53/83/71 38/61/71
f 64/73/72 80/84/72 65/75/72
f 57/74/73 73/85/73 58/76/73
f 65/75/74 81/86/74 66/77/74
f 59/78/75 73/85/75 74/87/75
f 52/80/76 82/88/76 67/89/76
f 308/90/77 66/77/77 81/86/77
f 59/78/78 75/91/78 60/82/78
f 53/83/79 67/89/79 68/92/79
f 61/67/80 75/91/80 76/93/80
f 54/68/81 68/92/81 69/94/81
f 61/67/82 77/95/82 62/69/82
f 55/70/83 69/94/83 70/96/83
f 63/71/84 77/95/84 78/97/84
f 55/70/85 71/98/85 56/72/85
f 63/71/86 79/99/86 64/73/86
f 57/74/87 71/98/87 72/100/87
f 68/92/88 85/101/88 69/94/89
f 76/93/90 93/102/90 77/95/90
f 69/94/91 86/103/91 70/96/91
f 78/97/92 93/102/92 94/104/92
f 70/96/93 87/105/93 71/98/93
f 79/99/94 94/104/94 95/106/94
f 72/100/95 87/105/95 88/107/95
f 80/84/96 95/106/96 96/108/96
f 72/100/97 89/109/97 73/85/97
f 81/86/98 96/108/98 97/110/98
f 74/87/99 89/109/99 90/111/100
f 67/89/101 82/112/101 83/113/101
f 308/114/102 81/86/102 97/110/102
f 74/87/103 91/115/103 75/91/103
f 67/89/104 84/116/104 68/92/104
f 76/93/105 91/115/105 92/117/105
f 89/109/106 103/118/106 104/119/106
f 97/110/107 111/120/107 112/121/107
f 90/111/108 104/119/108 105/122/108
f 83/113/109 82/123/109 98/124/109
f 308/125/110 97/110/110 112/121/110
f 90/111/111 106/126/111 91/115/111
f 83/113/112 99/127/112 84/116/112
f 91/115/113 107/128/113 92/117/113
f 85/101/114 99/127/114 100/129/114
f 92/117/115 108/130/116 93/102/116
f 85/101/117 101/131/117 86/103/117
f 94/104/118 108/130/118 109/132/118
f 86/103/119 102/133/119 87/105/119
f 95/106/120 109/132/120 110/134/120
f 88/107/121 102/133/122 103/118/121
f 95/106/123 111/120/123 96/108/123
f 108/130/124 122/135/124 123/136/124
f 100/129/125 116/137/125 101/131/125
f 109/132/126 123/136/126 124/138/126
f 101/131/127 117/139/127 102/133/127
f 110/134/128 124/138/128 125/140/128
f 102/133/129 118/141/129 103/118/129
f 110/134/130 126/142/130 111/120/130
f 103/118/131 119/143/131 104/119/131
f 112/121/132 126/142/132 127/144/132
f 105/122/133 119/143/133 120/145/134
f 98/124/135 82/146/135 113/147/135
f 308/148/136 112/121/136 127/144/136
f 105/122/137 121/149/137 106/126/137
f 98/124/138 114/150/138 99/127/138
f 107/128/139 121/149/139 122/135/139
f 100/129/140 114/150/140 115/151/140
f 126/142/141 142/152/141 127/144/141
f 119/143/142 135/153/142 120/145/143
f 113/147/144 82/154/144 128/155/144
f 308/156/145 127/144/145 142/152/145
f 121/149/146 135/153/146 136/157/146
f 114/150/147 128/155/147 129/158/147
f 121/149/148 137/159/148 122/135/148
f 114/150/149 130/160/149 115/151/149
f 122/135/150 138/161/150 123/136/150
f 116/137/151 130/160/151 131/162/151
f 123/136/152 139/163/152 124/138/152
f 117/139/153 131/162/153 132/164/153
f 124/138/154 140/165/154 125/140/154
f 118/141/155 132/164/155 133/166/155
f 126/142/156 140/165/156 141/167/156
f 119/143/157 133/166/157 134/168/157
f 130/160/158 146/169/158 131/162/158
f 138/161/159 154/170/159 139/163/159
f 132/164/160 146/169/160 147/171/160
f 140/165/161 154/170/161 155/172/161
f 132/164/162 148/173/162 133/166/162
f 140/165/163 156/174/163 141/167/163
f 133/166/164 149/175/164 134/168/164
f 141/167/165 157/176/165 142/152/165
f 134/168/166 150/177/166 135/153/166
f 128/155/167 82/178/167 143/179/167
f 308/180/168 142/152/168 157/176/168
f 136/157/169 150/177/169 151/181/169
f 129/158/170 143/179/170 144/182/170
f 137/159/171 151/181/171 152/183/171
f 129/158/172 145/184/172 130/160/172
f 138/161/173 152/183/173 153/185/174
f 150/177/175 164/186/175 165/187/175
f 143/179/176 82/188/176 158/189/176
f 308/190/177 157/176/177 172/191/177
f 150/177/178 166/192/178 151/181/178
f 144/182/179 158/189/179 159/193/179
f 151/181/180 167/194/180 152/183/180
f 145/184/181 159/193/182 160/195/181
f 153/185/183 167/194/183 168/196/183
f 145/184/184 161/197/184 146/169/184
f 153/185/185 169/198/185 154/170/185
f 147/171/186 161/197/186 162/199/186
f 155/172/187 169/198/187 170/200/187
f 147/171/188 163/201/188 148/173/188
f 155/172/189 171/202/190 156/174/190
f 149/175/191 163/201/191 164/186/191
f 156/174/192 172/191/192 157/176/192
f 168/196/193 184/203/193 169/198/193
f 162/199/194 176/204/194 177/205/194
f 170/200/195 184/203/195 185/206/195
f 162/199/196 178/207/196 163/201/196
f 171/202/197 185/206/197 186/208/197
f 164/186/198 178/207/198 179/209/198
f 172/191/199 186/208/199 187/210/199
f 165/187/200 179/209/200 180/211/200
f 158/189/201 82/212/201 173/213/201
f 308/214/202 172/191/202 187/210/202
f 165/187/203 181/215/203 166/192/203
f 158/189/204 174/216/204 159/193/204
f 166/192/205 182/217/205 167/194/205
f 159/193/206 175/218/206 160/195/206
f 168/196/207 182/217/207 183/219/207
f 160/195/208 176/204/208 161/197/208
f 308/220/209 187/210/209 202/221/209
f 180/211/210 196/222/210 181/215/210
f 173/213/211 189/223/211 174/216/211
f 182/217/212 196/222/212 197/224/212
f 175/218/213 189/223/213 190/225/213
f 182/217/214 198/226/214 183/219/214
f 176/204/215 190/225/215 191/227/215
f 184/203/216 198/226/216 199/228/216
f 176/204/217 192/229/217 177/205/217
f 184/203/218 200/230/218 185/206/218
f 178/207/219 192/229/219 193/231/219
f 185/206/220 201/232/220 186/208/220
f 178/207/221 194/233/221 179/209/221
f 187/210/222 201/232/222 202/221/222
f 180/211/223 194/233/223 195/234/223
f 173/213/224 82/235/224 188/236/224
f 200/230/225 214/237/225 215/238/225
f 192/229/226 208/239/226 193/231/226
f 201/232/227 215/238/227 216/240/227
f 193/231/228 209/241/228 194/233/228
f 202/221/229 216/240/229 217/242/229
f 194/233/230 210/243/230 195/234/230
f 188/236/231 82/244/231 203/245/231
f 308/246/232 202/221/232 217/242/232
f 196/222/233 210/243/233 211/247/233
f 188/236/234 204/248/234 189/223/234
f 197/224/235 211/247/235 212/249/235
f 189/223/236 205/250/236 190/225/236
f 198/226/237 212/249/237 213/251/237
f 190/225/238 206/252/238 191/227/238
f 199/228/239 213/251/239 214/237/239
f 191/227/240 207/253/240 192/229/240
f 203/245/241 219/254/241 204/248/241
f 212/249/242 226/255/242 227/256/242
f 205/250/243 219/254/243 220/257/243
f 213/251/244 227/256/244 228/258/244
f 205/250/245 221/259/245 206/252/245
f 213/251/246 229/260/246 214/237/246
f 207/253/247 221/259/247 222/261/247
f 215/238/248 229/260/248 230/262/248
f 207/253/249 223/263/249 208/239/249
f 215/238/250 231/264/250 216/240/250
f 208/239/251 224/265/251 209/241/251
f 217/242/252 231/264/252 232/266/252
f 210/243/253 224/265/253 225/267/253
f 203/245/254 82/268/254 218/269/254
f 308/270/255 217/242/255 232/266/255
f 210/243/256 226/255/256 211/247/257
f 222/261/258 238/271/258 223/263/258
f 230/262/259 246/272/259 231/264/259
f 223/263/260 239/273/260 224/265/260
f 232/266/261 246/272/261 247/274/261
f 225/267/262 239/273/262 240/275/262
f 218/269/263 82/276/263 233/277/263
f 308/278/264 232/266/264 247/274/264
f 225/267/265 241/279/265 226/255/266
f 218/269/267 234/280/267 219/254/267
f 227/256/268 241/279/268 242/281/268
f 220/257/269 234/280/269 235/282/269
f 228/258/270 242/281/270 243/283/270
f 220/257/271 236/284/271 221/259/271
f 229/260/272 243/283/272 244/285/272
f 221/259/273 237/286/273 222/261/273
f 230/262/274 244/285/274 245/287/274
f 241/279/275 257/288/275 242/281/275
f 234/280/276 250/289/276 235/282/276
f 242/281/277 258/290/277 243/283/277
f 236/284/278 250/289/278 251/291/278
f 243/283/279 259/292/279 244/285/279
f 237/286/280 251/291/280 252/293/280
f 244/285/281 260/294/281 245/287/281
f 238/271/282 252/293/282 253/295/282
f 246/272/283 260/294/283 261/296/283
f 239/273/284 253/295/284 254/297/284
f 246/272/285 262/298/285 247/274/285
f 240/275/286 254/297/286 255/299/287
f 233/277/288 82/300/288 248/301/288
f 308/302/289 247/274/289 262/298/289
f 240/275/290 256/303/290 241/279/291
f 234/280/292 248/301/292 249/304/292
f 260/294/293 276/305/293 261/296/293
f 254/297/294 268/306/294 269/307/294
f 261/296/295 277/308/295 262/298/295
f 255/299/296 269/307/296 270/309/297
f 248/301/298 82/310/298 263/311/298
f 308/312/299 262/298/299 277/308/299
f 255/299/300 271/313/300 256/303/300
f 249/304/301 263/311/301 264/314/301
f 256/303/302 272/315/302 257/288/302
f 249/304/303 265/316/303 250/289/303
f 258/290/304 272/315/304 273/317/304
f 250/289/305 266/318/305 251/291/305
f 259/292/306 273/317/306 274/319/306
f 251/291/307 267/320/307 252/293/307
f 260/294/308 274/319/308 275/321/308
f 252/293/309 268/306/309 253/295/309
f 264/314/310 280/322/311 265/316/311
f 273/317/312 287/323/312 288/324/312
f 265/316/313 281/325/313 266/318/313
f 273/317/314 289/326/314 274/319/314
f 267/320/315 281/325/315 282/327/315
f 275/321/316 289/326/316 290/328/316
f 267/320/317 283/329/317 268/306/317
f 276/305/318 290/328/319 291/330/318
f 269/307/320 283/329/320 284/331/320
f 276/305/321 292/332/321 277/308/321
f 270/309/322 284/331/322 285/333/322
f 263/311/323 82/334/323 278/335/323
f 308/336/324 277/308/324 292/332/324
f 270/309/325 286/337/325 271/313/325
f 264/314/326 278/335/326 279/338/326
f 271/313/327 287/323/327 272/315/327
f 284/331/328 298/339/328 299/340/328
f 292/332/329 306/341/330 307/342/329
f 285/333/331 299/340/331 300/343/331
f 278/335/332 82/344/332 293/345/332
f 308/346/333 292/332/333 307/342/333
f 285/333/334 301/347/334 286/337/334
f 278/335/335 294/348/336 279/338/336
f 286/337/337 302/349/337 287/323/337
f 279/338/338 295/350/338 280/322/338
f 288/324/339 302/349/339 303/351/339
f 280/322/340 296/352/340 281/325/340
f 288/324/341 304/353/341 289/326/341
f 282/327/342 296/352/342 297/354/342
f 290/328/343 304/353/343 305/355/343
f 282/327/344 298/339/344 283/329/344
f 291/330/345 305/355/345 306/341/345
f 303/351/346 318/356/346 319/357/346
f 296/352/347 311/358/347 312/359/347
f 304/353/348 319/357/348 320/360/348
f 296/352/349 313/361/349 297/354/349
f 304/353/350 321/362/350 305/355/350
f 297/354/351 314/363/351 298/339/351
f 305/355/352 322/364/352 306/341/352
f 299/340/353 314/363/353 315/365/353
f 307/342/354 322/364/354 323/366/354
f 300/343/355 315/365/355 316/367/355
f 293/345/356 82/368/356 309/369/356
f 308/370/357 307/342/357 323/366/357
f 300/343/358 317/371/358 301/347/358
f 293/345/359 310/372/359 294/348/359
f 301/347/360 318/356/360 302/349/360
f 295/350/361 310/372/361 311/358/361
f 323/366/362 337/373/362 338/374/362
f 316/367/363 330/375/363 331/376/364
f 309/369/365 82/377/365 324/378/365
f 308/379/366 323/366/366 338/374/366
f 316/367/367 332/380/367 317/371/367
f 309/369/368 325/381/368 310/372/368
f 317/371/369 333/382/369 318/356/369
f 310/372/370 326/383/370 311/358/370
f 319/357/371 333/382/371 334/384/371
f 311/358/372 327/385/372 312/359/372
f 320/360/373 334/384/373 335/386/373
f 312/359/374 328/387/374 313/361/374
f 321/362/375 335/386/375 336/388/375
f 313/361/376 329/389/376 314/363/376
f 322/364/377 336/388/377 337/373/377
f 315/365/378 329/389/378 330/375/378
f 334/384/379 350/390/379 335/386/379
f 328/387/380 342/391/380 343/392/380
f 336/388/381 350/390/381 351/393/381
f 328/387/382 344/394/382 329/389/382
f 336/388/383 352/395/383 337/373/383
f 330/375/384 344/394/384 345/396/384
f 338/374/385 352/395/385 353/397/385
f 330/375/386 346/398/386 331/376/386
f 324/378/387 82/399/387 339/400/387
f 308/401/388 338/374/388 353/397/388
f 332/380/389 346/398/389 347/402/389
f 324/378/390 340/403/390 325/381/390
f 332/380/391 348/404/391 333/382/391
f 326/383/392 340/403/392 341/405/392
f 334/384/393 348/404/393 349/406/393
f 326/383/394 342/391/394 327/385/394
f 339/400/395 82/407/395 354/408/395
f 308/409/396 353/397/396 368/410/396
f 347/402/397 361/411/397 362/412/397
f 339/400/398 355/413/398 340/403/398
f 347/402/399 363/414/399 348/404/399
f 341/405/400 355/413/400 356/415/400
f 349/406/401 363/414/401 364/416/401
f 341/405/402 357/417/402 342/391/402
f 349/406/403 365/418/403 350/390/403
f 343/392/404 357/417/404 358/419/404
f 351/393/405 365/418/405 366/420/405
f 343/392/406 359/421/406 344/394/406
f 351/393/407 367/422/407 352/395/407
f 345/396/408 359/421/408 360/423/408
f 353/397/409 367/422/409 368/410/409
f 345/396/410 361/411/410 346/398/410
f 358/424/411 372/425/411 373/426/411
f 365/427/412 381/428/412 366/429/412
f 359/430/413 373/426/413 374/431/413
f 367/432/414 381/428/414 382/433/414
f 360/434/415 374/431/415 375/435/415
f 367/432/416 383/436/416 368/437/416
f 361/438/417 375/435/417 376/439/417
f 354/440/418 82/441/418 369/442/418
f 308/443/419 368/437/419 383/436/419
f 361/438/420 377/444/420 362/445/420
f 355/446/421 369/442/421 370/447/421
f 362/445/422 378/448/422 363/449/422
f 355/446/423 371/450/423 356/451/423
f 363/449/424 379/452/424 364/453/424
f 357/454/425 371/450/425 372/425/425
f 364/453/426 380/455/426 365/427/426
f 376/439/427 392/456/427 377/444/427
f 370/447/428 384/457/428 385/458/428
f 377/444/429 393/459/429 378/448/429
f 370/447/430 386/460/430 371/450/430
f 379/452/431 393/459/431 394/461/431
f 371/450/432 387/462/432 372/425/432
f 380/455/433 394/461/433 395/463/433
f 372/425/434 388/464/434 373/426/434
f 381/428/435 395/463/435 396/465/435
f 373/426/436 389/466/436 374/431/436
f 382/433/437 396/465/437 397/467/437
f 375/435/438 389/466/438 390/468/438
f 382/433/439 398/469/439 383/436/439
f 376/439/440 390/468/440 391/470/440
f 369/442/441 82/471/441 384/457/441
f 308/472/442 383/436/442 398/469/442
f 395/463/443 411/473/443 396/465/443
f 388/464/444 404/474/444 389/466/444
f 397/467/445 411/473/446 412/475/445
f 389/466/447 405/476/447 390/468/447
f 398/469/448 412/475/448 413/477/448
f 391/470/449 405/476/449 406/478/449
f 384/457/450 82/479/450 399/480/450
f 308/481/451 398/469/451 413/477/451
f 391/470/452 407/482/452 392/456/452
f 384/457/453 400/483/453 385/458/453
f 393/459/454 407/482/454 408/484/454
f 385/458/455 401/485/456 386/460/456
f 394/461/457 408/484/457 409/486/457
f 387/462/458 401/485/458 402/487/458
f 394/461/459 410/488/459 395/463/459
f 388/464/460 402/487/460 403/489/460
f 400/483/461 414/490/461 415/491/461
f 407/482/462 423/492/462 408/484/462
f 401/485/463 415/491/463 416/493/463
f 409/486/464 423/492/464 424/494/464
f 401/485/465 417/495/465 402/487/465
f 409/486/466 425/496/466 410/488/466
f 403/489/467 417/495/467 418/497/467
f 411/473/468 425/496/468 426/498/468
f 403/489/469 419/499/469 404/474/469
f 411/473/470 427/500/470 412/475/470
f 405/476/471 419/499/471 420/501/471
f 412/475/472 428/502/472 413/477/472
f 406/478/473 420/501/473 421/503/473
f 399/480/474 82/504/474 414/490/474
f 308/505/475 413/477/475 428/502/475
f 406/478/476 422/506/476 407/482/476
f 418/497/477 434/507/477 419/499/477
f 427/500/478 441/508/478 442/509/478
f 420/501/479 434/507/479 435/510/479
f 428/502/480 442/509/480 443/511/480
f 420/501/481 436/512/481 421/503/481
f 414/490/482 82/513/482 429/514/482
f 308/515/483 428/502/483 443/511/483
f 422/506/484 436/512/484 437/516/484
f 414/490/485 430/517/485 415/491/485
f 422/506/486 438/518/486 423/492/486
f 415/491/487 431/519/487 416/493/487
f 424/494/488 438/518/488 439/520/488
f 417/495/489 431/519/489 432/521/489
f 425/496/490 439/520/490 440/522/490
f 417/495/491 433/523/491 418/497/491
f 425/496/492 441/508/492 426/498/492
f 437/516/493 453/524/493 438/518/493
f 430/517/494 446/525/494 431/519/494
f 439/520/495 453/524/495 454/526/495
f 431/519/496 447/527/496 432/521/496
f 440/522/497 454/526/497 455/528/497
f 432/521/498 448/529/498 433/523/498
f 441/508/499 455/528/499 456/530/499
f 433/523/500 449/531/500 434/507/500
f 442/509/501 456/530/501 457/532/501
f 435/510/502 449/531/502 450/533/502
f 443/511/503 457/532/503 458/534/503
f 436/512/504 450/533/504 451/535/505
f 429/514/506 82/536/506 444/537/506
f 308/538/507 443/511/507 458/534/507
f 436/512/508 452/539/508 437/516/508
f 429/514/509 445/540/509 430/517/509
f 456/530/510 472/541/510 457/532/510
f 450/533/511 464/542/511 465/543/511
f 457/532/512 473/544/512 458/534/512
f 450/533/513 466/545/513 451/535/513
f 444/537/514 82/546/514 459/547/514
f 308/548/515 458/534/515 473/544/515
f 452/539/516 466/545/516 467/549/516
f 445/540/517 459/547/517 460/550/517
f 452/539/518 468/551/518 453/524/518
f 446/525/519 460/550/519 461/552/519
f 454/526/520 468/551/520 469/553/520
f 447/527/521 461/552/521 462/554/521
f 454/526/522 470/555/522 455/528/522
f 448/529/523 462/554/523 463/556/523
f 455/528/524 471/557/524 456/530/524
f 448/529/525 464/542/525 449/531/525
f 469/553/526 478/32/526 6/4/526
f 461/552/527 476/7/527 462/554/527
f 469/553/528 479/9/528 470/555/528
f 463/556/529 476/7/529 2/12/529
f 471/557/530 479/9/530 480/14/530
f 463/556/531 477/16/531 464/542/531
f 471/557/532 481/17/532 472/541/532
f 465/543/533 477/16/533 3/19/533
f 473/544/534 481/17/534 482/22/534
f 465/543/535 4/24/535 466/545/535
f 459/547/536 82/558/536 474/25/536
f 308/559/537 473/544/537 482/22/537
f 467/549/538 4/24/538 5/29/539
f 459/547/540 475/1/540 460/550/540
f 467/549/541 478/32/541 468/551/541
f 461/552/542 475/1/542 1/3/542
f 475/1/1 8/31/1 9/2/1
f 6/4/2 478/32/2 16/5/2
f 476/7/3 1/3/3 9/2/3
f 479/9/4 6/4/4 17/6/4
f 476/7/5 10/8/5 11/11/5
f 479/9/6 18/10/6 19/13/6
f 2/12/7 11/11/7 12/15/7
f 481/17/8 480/14/8 19/13/8
f 3/19/9 477/16/9 12/15/9
f 481/17/10 20/18/10 21/21/10
f 3/19/11 13/20/11 14/23/11
f 5/29/15 4/24/543 14/23/15
f 475/1/16 474/25/16 7/27/16
f 5/29/17 15/30/17 16/5/17
f 15/30/18 14/23/18 29/33/18
f 8/31/19 7/27/19 22/35/19
f 16/5/20 15/30/20 30/34/20
f 8/31/21 23/36/21 24/38/21
f 17/6/22 16/5/23 31/37/23
f 9/2/24 24/38/24 25/40/24
f 17/6/25 32/39/25 33/41/25
f 11/11/26 10/8/26 25/40/26
f 19/13/27 18/10/27 33/41/27
f 11/11/28 26/42/28 27/44/29
f 19/13/30 34/43/30 35/45/30
f 12/15/31 27/44/31 28/46/31
f 20/18/32 35/45/32 36/47/32
f 13/20/33 28/46/33 29/33/33
f 34/43/36 33/41/36 48/50/36
f 26/42/37 41/66/37 42/52/37
f 34/43/38 49/51/544 50/53/38
f 28/46/39 27/44/39 42/52/39
f 35/45/40 50/53/40 51/55/40
f 29/33/41 28/46/41 43/54/41
f 29/33/44 44/56/44 45/60/44
f 23/36/45 22/35/45 37/58/45
f 30/34/46 45/60/46 46/62/46
f 24/38/47 23/36/47 38/61/47
f 32/39/49 31/37/49 46/62/49
f 24/38/50 39/63/50 40/65/50
f 32/39/51 47/64/51 48/50/51
f 26/42/52 25/40/52 40/65/52
f 45/60/53 60/82/53 61/67/53
f 38/61/54 53/83/54 54/68/54
f 47/64/55 46/62/55 61/67/55
f 39/63/56 54/68/56 55/70/56
f 47/64/57 62/69/57 63/71/57
f 41/66/58 40/65/58 55/70/58
f 49/51/59 48/50/59 63/71/59
f 41/66/60 56/72/60 57/74/60
f 50/53/61 49/51/61 64/73/61
f 43/54/62 42/52/62 57/74/62
f 51/55/63 50/53/64 65/75/64
f 44/56/65 43/54/65 58/76/65
f 44/56/69 59/78/545 60/82/69
f 37/58/70 52/80/70 53/83/71
f 64/73/72 79/99/72 80/84/72
f 57/74/73 72/100/73 73/85/73
f 65/75/74 80/84/74 81/86/74
f 59/78/75 58/76/75 73/85/75
f 59/78/78 74/87/78 75/91/78
f 53/83/79 52/80/79 67/89/79
f 61/67/80 60/82/80 75/91/80
f 54/68/81 53/83/81 68/92/81
f 61/67/82 76/93/82 77/95/82
f 55/70/83 54/68/83 69/94/83
f 63/71/84 62/69/84 77/95/84
f 55/70/85 70/96/85 71/98/85
f 63/71/86 78/97/86 79/99/86
f 57/74/87 56/72/87 71/98/87
f 68/92/88 84/116/88 85/101/88
f 76/93/90 92/117/90 93/102/90
f 69/94/91 85/101/91 86/103/91
f 78/97/92 77/95/92 93/102/92
f 70/96/93 86/103/93 87/105/93
f 79/99/94 78/97/94 94/104/94
f 72/100/95 71/98/95 87/105/95
f 80/84/96 79/99/96 95/106/96
f 72/100/97 88/107/97 89/109/97
f 81/86/98 80/84/98 96/108/98
f 74/87/99 73/85/99 89/109/99
f 74/87/103 90/111/546 91/115/103
f 67/89/104 83/113/104 84/116/104
f 76/93/105 75/91/105 91/115/105
f 89/109/106 88/107/106 103/118/106
f 97/110/107 96/108/107 111/120/107
f 90/111/108 89/109/108 104/119/108
f 90/111/111 105/122/111 106/126/111
f 83/113/112 98/124/112 99/127/112
f 91/115/113 106/126/113 107/128/113
f 85/101/114 84/116/114 99/127/114
f 92/117/115 107/128/115 108/130/116
f 85/101/117 100/129/117 101/131/117
f 94/104/118 93/102/118 108/130/118
f 86/103/119 101/131/119 102/133/119
f 95/106/120 94/104/120 109/132/120
f 88/107/121 87/105/122 102/133/122
f 95/106/123 110/134/123 111/120/123
f 108/130/124 107/128/124 122/135/124
f 100/129/125 115/151/125 116/137/125
f 109/132/126 108/130/126 123/136/126
f 101/131/127 116/137/127 117/139/127
f 110/134/128 109/132/128 124/138/128
f 102/133/129 117/139/129 118/141/129
f 110/134/130 125/140/130 126/142/130
f 103/118/131 118/141/131 119/143/131
f 112/121/132 111/120/132 126/142/132
f 105/122/133 104/119/133 119/143/133
f 105/122/137 120/145/547 121/149/137
f 98/124/138 113/147/138 114/150/138
f 107/128/139 106/126/139 121/149/139
f 100/129/140 99/127/140 114/150/140
f 126/142/141 141/167/141 142/152/141
f 119/143/142 134/168/142 135/153/142
f 121/149/146 120/145/548 135/153/146
f 114/150/147 113/147/147 128/155/147
f 121/149/148 136/157/148 137/159/148
f 114/150/149 129/158/149 130/160/149
f 122/135/150 137/159/150 138/161/150
f 116/137/151 115/151/151 130/160/151
f 123/136/152 138/161/152 139/163/152
f 117/139/153 116/137/153 131/162/153
f 124/138/154 139/163/154 140/165/154
f 118/141/155 117/139/155 132/164/155
f 126/142/156 125/140/156 140/165/156
f 119/143/157 118/141/157 133/166/157
f 130/160/158 145/184/158 146/169/158
f 138/161/159 153/185/159 154/170/159
f 132/164/160 131/162/160 146/169/160
f 140/165/161 139/163/161 154/170/161
f 132/164/162 147/171/549 148/173/162
f 140/165/163 155/172/163 156/174/163
f 133/166/164 148/173/164 149/175/164
f 141/167/165 156/174/165 157/176/165
f 134/168/166 149/175/166 150/177/166
f 136/157/169 135/153/169 150/177/169
f 129/158/170 128/155/170 143/179/170
f 137/159/171 136/157/171 151/181/171
f 129/158/172 144/182/172 145/184/172
f 138/161/173 137/159/173 152/183/173
f 150/177/175 149/175/175 164/186/175
f 150/177/178 165/187/178 166/192/178
f 144/182/179 143/179/179 158/189/179
f 151/181/180 166/192/180 167/194/180
f 145/184/181 144/182/182 159/193/182
f 153/185/183 152/183/183 167/194/183
f 145/184/184 160/195/184 161/197/184
f 153/185/185 168/196/185 169/198/185
f 147/171/186 146/169/186 161/197/186
f 155/172/187 154/170/187 169/198/187
f 147/171/188 162/199/188 163/201/188
f 155/172/189 170/200/189 171/202/190
f 149/175/191 148/173/191 163/201/191
f 156/174/192 171/202/192 172/191/192
f 168/196/193 183/219/193 184/203/193
f 162/199/194 161/197/194 176/204/194
f 170/200/195 169/198/195 184/203/195
f 162/199/196 177/205/196 178/207/196
f 171/202/197 170/200/197 185/206/197
f 164/186/198 163/201/198 178/207/198
f 172/191/199 171/202/199 186/208/199
f 165/187/200 164/186/200 179/209/200
f 165/187/203 180/211/203 181/215/203
f 158/189/204 173/213/204 174/216/204
f 166/192/205 181/215/205 182/217/205
f 159/193/206 174/216/206 175/218/206
f 168/196/207 167/194/207 182/217/207
f 160/195/208 175/218/208 176/204/208
f 180/211/210 195/234/210 196/222/210
f 173/213/211 188/236/211 189/223/211
f 182/217/212 181/215/212 196/222/212
f 175/218/213 174/216/213 189/223/213
f 182/217/214 197/224/214 198/226/214
f 176/204/215 175/218/215 190/225/215
f 184/203/216 183/219/216 198/226/216
f 176/204/217 191/227/217 192/229/217
f 184/203/218 199/228/218 200/230/218
f 178/207/219 177/205/219 192/229/219
f 185/206/220 200/230/220 201/232/220
f 178/207/221 193/231/221 194/233/221
f 187/210/222 186/208/222 201/232/222
f 180/211/223 179/209/223 194/233/223
f 200/230/225 199/228/225 214/237/225
f 192/229/226 207/253/226 208/239/226
f 201/232/227 200/230/227 215/238/227
f 193/231/228 208/239/228 209/241/228
f 202/221/229 201/232/229 216/240/229
f 194/233/230 209/241/230 210/243/230
f 196/222/233 195/234/233 210/243/233
f 188/236/234 203/245/234 204/248/234
f 197/224/235 196/222/235 211/247/235
f 189/223/236 204/248/236 205/250/236
f 198/226/237 197/224/237 212/249/237
f 190/225/238 205/250/238 206/252/238
f 199/228/239 198/226/239 213/251/239
f 191/227/240 206/252/240 207/253/240
f 203/245/241 218/269/241 219/254/241
f 212/249/242 211/247/242 226/255/242
f 205/250/243 204/248/243 219/254/243
f 213/251/244 212/249/244 227/256/244
f 205/250/245 220/257/245 221/259/245
f 213/251/246 228/258/246 229/260/246
f 207/253/247 206/252/247 221/259/247
f 215/238/248 214/237/248 229/260/248
f 207/253/249 222/261/249 223/263/249
f 215/238/250 230/262/250 231/264/250
f 208/239/251 223/263/251 224/265/251
f 217/242/252 216/240/252 231/264/252
f 210/243/253 209/241/550 224/265/253
f 210/243/256 225/267/256 226/255/256
f 222/261/258 237/286/258 238/271/258
f 230/262/259 245/287/259 246/272/259
f 223/263/260 238/271/260 239/273/260
f 232/266/261 231/264/261 246/272/261
f 225/267/262 224/265/551 239/273/262
f 225/267/265 240/275/265 241/279/265
f 218/269/267 233/277/267 234/280/267
f 227/256/268 226/255/268 241/279/268
f 220/257/269 219/254/269 234/280/269
f 228/258/270 227/256/270 242/281/270
f 220/257/271 235/282/271 236/284/271
f 229/260/272 228/258/272 243/283/272
f 221/259/273 236/284/273 237/286/273
f 230/262/274 229/260/274 244/285/274
f 241/279/275 256/303/275 257/288/275
f 234/280/276 249/304/276 250/289/276
f 242/281/277 257/288/277 258/290/277
f 236/284/278 235/282/278 250/289/278
f 243/283/279 258/290/279 259/292/279
f 237/286/280 236/284/280 251/291/280
f 244/285/281 259/292/281 260/294/281
f 238/271/282 237/286/282 252/293/282
f 246/272/283 245/287/283 260/294/283
f 239/273/284 238/271/284 253/295/284
f 246/272/285 261/296/285 262/298/285
f 240/275/286 239/273/552 254/297/286
f 240/275/290 255/299/553 256/303/290
f 234/280/292 233/277/292 248/301/292
f 260/294/293 275/321/293 276/305/293
f 254/297/294 253/295/294 268/306/294
f 261/296/295 276/305/295 277/308/295
f 255/299/296 254/297/296 269/307/296
f 255/299/300 270/309/554 271/313/300
f 249/304/301 248/301/301 263/311/301
f 256/303/302 271/313/302 272/315/302
f 249/304/303 264/314/303 265/316/303
f 258/290/304 257/288/304 272/315/304
f 250/289/305 265/316/305 266/318/305
f 259/292/306 258/290/306 273/317/306
f 251/291/307 266/318/307 267/320/307
f 260/294/308 259/292/308 274/319/308
f 252/293/309 267/320/309 268/306/309
f 264/314/310 279/338/310 280/322/311
f 273/317/312 272/315/312 287/323/312
f 265/316/313 280/322/313 281/325/313
f 273/317/314 288/324/314 289/326/314
f 267/320/315 266/318/315 281/325/315
f 275/321/316 274/319/316 289/326/316
f 267/320/317 282/327/317 283/329/317
f 276/305/318 275/321/319 290/328/319
f 269/307/320 268/306/320 283/329/320
f 276/305/321 291/330/321 292/332/321
f 270/309/322 269/307/322 284/331/322
f 270/309/325 285/333/325 286/337/325
f 264/314/326 263/311/326 278/335/326
f 271/313/327 286/337/327 287/323/327
f 284/331/328 283/329/328 298/339/328
f 292/332/329 291/330/330 306/341/330
f 285/333/331 284/331/331 299/340/331
f 285/333/334 300/343/334 301/347/334
f 278/335/335 293/345/335 294/348/336
f 286/337/337 301/347/337 302/349/337
f 279/338/338 294/348/338 295/350/338
f 288/324/339 287/323/339 302/349/339
f 280/322/340 295/350/340 296/352/340
f 288/324/341 303/351/341 304/353/341
f 282/327/342 281/325/342 296/352/342
f 290/328/343 289/326/343 304/353/343
f 282/327/344 297/354/344 298/339/344
f 291/330/345 290/328/345 305/355/345
f 303/351/346 302/349/346 318/356/346
f 296/352/347 295/350/347 311/358/347
f 304/353/348 303/351/348 319/357/348
f 296/352/349 312/359/349 313/361/349
f 304/353/350 320/360/350 321/362/350
f 297/354/351 313/361/351 314/363/351
f 305/355/352 321/362/352 322/364/352
f 299/340/353 298/339/353 314/363/353
f 307/342/354 306/341/354 322/364/354
f 300/343/355 299/340/355 315/365/355
f 300/343/358 316/367/358 317/371/358
f 293/345/359 309/369/359 310/372/359
f 301/347/360 317/371/360 318/356/360
f 295/350/361 294/348/361 310/372/361
f 323/366/362 322/364/362 337/373/362
f 316/367/363 315/365/363 330/375/363
f 316/367/367 331/376/555 332/380/367
f 309/369/368 324/378/368 325/381/368
f 317/371/369 332/380/369 333/382/369
f 310/372/370 325/381/370 326/383/370
f 319/357/371 318/356/371 333/382/371
f 311/358/372 326/383/372 327/385/372
f 320/360/373 319/357/373 334/384/373
f 312/359/374 327/385/374 328/387/374
f 321/362/375 320/360/375 335/386/375
f 313/361/376 328/387/376 329/389/376
f 322/364/377 321/362/377 336/388/377
f 315/365/378 314/363/378 329/389/378
f 334/384/379 349/406/379 350/390/379
f 328/387/380 327/385/380 342/391/380
f 336/388/381 335/386/381 350/390/381
f 328/387/382 343/392/382 344/394/382
f 336/388/383 351/393/383 352/395/383
f 330/375/384 329/389/384 344/394/384
f 338/374/385 337/373/385 352/395/385
f 330/375/386 345/396/386 346/398/386
f 332/380/389 331/376/389 346/398/389
f 324/378/390 339/400/390 340/403/390
f 332/380/391 347/402/391 348/404/391
f 326/383/392 325/381/392 340/403/392
f 334/384/393 333/382/393 348/404/393
f 326/383/394 341/405/394 342/391/394
f 347/402/397 346/398/397 361/411/397
f 339/400/398 354/408/398 355/413/398
f 347/402/399 362/412/399 363/414/399
f 341/405/400 340/403/400 355/413/400
f 349/406/401 348/404/401 363/414/401
f 341/405/402 356/415/402 357/417/402
f 349/406/403 364/416/403 365/418/403
f 343/392/404 342/391/404 357/417/404
f 351/393/405 350/390/405 365/418/405
f 343/392/406 358/419/406 359/421/406
f 351/393/407 366/420/407 367/422/407
f 345/396/408 344/394/408 359/421/408
f 353/397/409 352/395/409 367/422/409
f 345/396/410 360/423/410 361/411/410
f 358/424/411 357/454/411 372/425/411
f 365/427/412 380/455/412 381/428/412
f 359/430/413 358/424/413 373/426/413
f 367/432/414 366/429/414 381/428/414
f 360/434/415 359/430/415 374/431/415
f 367/432/416 382/433/416 383/436/416
f 361/438/417 360/434/417 375/435/417
f 361/438/420 376/439/420 377/444/420
f 355/446/421 354/440/421 369/442/421
f 362/445/422 377/444/422 378/448/422
f 355/446/423 370/447/423 371/450/423
f 363/449/424 378/448/424 379/452/424
f 357/454/425 356/451/425 371/450/425
f 364/453/426 379/452/426 380/455/426
f 376/439/427 391/470/427 392/456/427
f 370/447/428 369/442/428 384/457/428
f 377/444/429 392/456/429 393/459/429
f 370/447/430 385/458/430 386/460/430
f 379/452/431 378/448/431 393/459/431
f 371/450/432 386/460/432 387/462/432
f 380/455/433 379/452/433 394/461/433
f 372/425/434 387/462/434 388/464/434
f 381/428/435 380/455/435 395/463/435
f 373/426/436 388/464/436 389/466/436
f 382/433/437 381/428/437 396/465/437
f 375/435/438 374/431/438 389/466/438
f 382/433/439 397/467/439 398/469/439
f 376/439/440 375/435/440 390/468/440
f 395/463/443 410/488/443 411/473/443
f 388/464/444 403/489/444 404/474/444
f 397/467/445 396/465/446 411/473/446
f 389/466/447 404/474/447 405/476/447
f 398/469/448 397/467/448 412/475/448
f 391/470/449 390/468/449 405/476/449
f 391/470/452 406/478/452 407/482/452
f 384/457/453 399/480/556 400/483/453
f 393/459/454 392/456/454 407/482/454
f 385/458/455 400/483/455 401/485/456
f 394/461/457 393/459/457 408/484/457
f 387/462/458 386/460/458 401/485/458
f 394/461/459 409/486/459 410/488/459
f 388/464/460 387/462/460 402/487/460
f 400/483/461 399/480/461 414/490/461
f 407/482/462 422/506/462 423/492/462
f 401/485/463 400/483/463 415/491/463
f 409/486/464 408/484/464 423/492/464
f 401/485/465 416/493/465 417/495/465
f 409/486/466 424/494/466 425/496/466
f 403/489/467 402/487/467 417/495/467
f 411/473/468 410/488/468 425/496/468
f 403/489/469 418/497/469 419/499/469
f 411/473/470 426/498/470 427/500/470
f 405/476/471 404/474/471 419/499/471
f 412/475/472 427/500/472 428/502/472
f 406/478/473 405/476/473 420/501/473
f 406/478/476 421/503/476 422/506/476
f 418/497/477 433/523/477 434/507/477
f 427/500/478 426/498/478 441/508/478
f 420/501/479 419/499/479 434/507/479
f 428/502/480 427/500/480 442/509/480
f 420/501/481 435/510/481 436/512/481
f 422/506/484 421/503/484 436/512/484
f 414/490/485 429/514/485 430/517/485
f 422/506/486 437/516/486 438/518/486
f 415/491/487 430/517/487 431/519/487
f 424/494/488 423/492/488 438/518/488
f 417/495/489 416/493/489 431/519/489
f 425/496/490 424/494/490 439/520/490
f 417/495/491 432/521/491 433/523/491
f 425/496/492 440/522/492 441/508/492
f 437/516/493 452/539/493 453/524/493
f 430/517/494 445/540/494 446/525/494
f 439/520/495 438/518/495 453/524/495
f 431/519/496 446/525/496 447/527/496
f 440/522/497 439/520/497 454/526/497
f 432/521/498 447/527/498 448/529/498
f 441/508/499 440/522/499 455/528/499
f 433/523/500 448/529/500 449/531/500
f 442/509/501 441/508/501 456/530/501
f 435/510/502 434/507/502 449/531/502
f 443/511/503 442/509/503 457/532/503
f 436/512/504 435/510/504 450/533/504
f 436/512/508 451/535/557 452/539/508
f 429/514/509 444/537/558 445/540/509
f 456/530/510 471/557/510 472/541/510
f 450/533/511 449/531/511 464/542/511
f 457/532/512 472/541/512 473/544/512
f 450/533/513 465/543/513 466/545/513
f 452/539/516 451/535/516 466/545/516
f 445/540/517 444/537/517 459/547/517
f 452/539/518 467/549/518 468/551/518
f 446/525/519 445/540/519 460/550/519
f 454/526/520 453/524/520 468/551/520
f 447/527/521 446/525/521 461/552/521
f 454/526/522 469/553/522 470/555/522
f 448/529/523 447/527/523 462/554/523
f 455/528/524 470/555/524 471/557/524
f 448/529/525 463/556/525 464/542/525
f 469/553/526 468/551/526 478/32/526
f 461/552/527 1/3/527 476/7/527
f 469/553/528 6/4/528 479/9/528
f 463/556/529 462/554/529 476/7/529
f 471/557/530 470/555/530 479/9/530
f 463/556/531 2/12/531 477/16/531
f 471/557/532 480/14/532 481/17/532
f 465/543/533 464/542/533 477/16/533
f 473/544/534 472/541/534 481/17/534
f 465/543/535 3/19/559 4/24/535
f 467/549/538 466/545/538 4/24/538
f 459/547/540 474/25/540 475/1/540
f 467/549/541 5/29/541 478/32/541
f 461/552/542 460/550/542 475/1/542
