# Blender 4.4.0
# www.blender.org
mtllib sphere.mtl
o 球
v 0.000000 8.314696 -5.555702
v 0.000000 5.555702 -8.314696
v 0.000000 1.950903 -9.807853
v 0.000000 0.000000 -10.000000
v 0.000000 -1.950903 -9.807853
v 0.000000 -5.555702 -8.314696
v 0.380602 9.807853 -1.913417
v 0.746578 9.238795 -3.753303
v 1.083864 8.314696 -5.448951
v 1.379497 7.071068 -6.935199
v 1.622117 5.555702 -8.154931
v 1.802399 3.826835 -9.061274
v 1.913417 1.950903 -9.619397
v 1.950903 0.000000 -9.807853
v 1.913417 -1.950903 -9.619397
v 1.802399 -3.826835 -9.061274
v 1.622117 -5.555702 -8.154931
v 1.379497 -7.071068 -6.935199
v 1.083864 -8.314696 -5.448951
v 0.746578 -9.238795 -3.753303
v 0.380602 -9.807853 -1.913417
v 0.746578 9.807853 -1.802399
v 1.464466 9.238795 -3.535534
v 2.126075 8.314696 -5.132799
v 2.705981 7.071068 -6.532815
v 3.181896 5.555702 -7.681776
v 3.535533 3.826835 -8.535534
v 3.753303 1.950903 -9.061274
v 3.826834 0.000000 -9.238794
v 3.753303 -1.950903 -9.061274
v 3.535533 -3.826835 -8.535534
v 3.181896 -5.555702 -7.681776
v 2.705981 -7.071068 -6.532815
v 2.126075 -8.314696 -5.132799
v 1.464466 -9.238795 -3.535534
v 0.746578 -9.807853 -1.802399
v 1.083864 9.807853 -1.622117
v 2.126075 9.238795 -3.181896
v 3.086583 8.314696 -4.619397
v 3.928475 7.071068 -5.879378
v 4.619397 5.555702 -6.913416
v 5.132799 3.826835 -7.681777
v 5.448951 1.950903 -8.154931
v 5.555702 0.000000 -8.314694
v 5.448951 -1.950903 -8.154931
v 5.132799 -3.826835 -7.681777
v 4.619397 -5.555702 -6.913416
v 3.928475 -7.071068 -5.879378
v 3.086583 -8.314696 -4.619397
v 2.126075 -9.238795 -3.181896
v 1.083864 -9.807853 -1.622117
v 1.379497 9.807853 -1.379497
v 2.705981 9.238795 -2.705980
v 3.928474 8.314696 -3.928474
v 5.000000 7.071068 -5.000000
v 5.879377 5.555702 -5.879376
v 6.532814 3.826835 -6.532815
v 6.935199 1.950903 -6.935198
v 7.071068 0.000000 -7.071066
v 6.935199 -1.950903 -6.935198
v 6.532814 -3.826835 -6.532815
v 5.879377 -5.555702 -5.879376
v 5.000000 -7.071068 -5.000000
v 3.928474 -8.314696 -3.928474
v 2.705981 -9.238795 -2.705980
v 1.379497 -9.807853 -1.379497
v 1.622117 9.807853 -1.083863
v 3.181896 9.238795 -2.126075
v 4.619397 8.314696 -3.086582
v 5.879378 7.071068 -3.928475
v 6.913416 5.555702 -4.619396
v 7.681776 3.826835 -5.132800
v 8.154931 1.950903 -5.448950
v 8.314695 0.000000 -5.555700
v 8.154931 -1.950903 -5.448950
v 7.681776 -3.826835 -5.132800
v 6.913416 -5.555702 -4.619396
v 5.879378 -7.071068 -3.928475
v 4.619397 -8.314696 -3.086582
v 3.181896 -9.238795 -2.126075
v 1.622117 -9.807853 -1.083863
v 0.000000 10.000000 0.000000
v 1.802399 9.807853 -0.746578
v 3.535533 9.238795 -1.464466
v 5.132799 8.314696 -2.126075
v 6.532815 7.071068 -2.705981
v 7.681776 5.555702 -3.181895
v 8.535533 3.826835 -3.535534
v 9.061274 1.950903 -3.753302
v 9.238794 0.000000 -3.826832
v 9.061274 -1.950903 -3.753302
v 8.535533 -3.826835 -3.535534
v 7.681776 -5.555702 -3.181895
v 6.532815 -7.071068 -2.705981
v 5.132799 -8.314696 -2.126075
v 3.535533 -9.238795 -1.464466
v 1.802399 -9.807853 -0.746578
v 1.913417 9.807853 -0.380602
v 3.753302 9.238795 -0.746578
v 5.448951 8.314696 -1.083863
v 6.935199 7.071068 -1.379497
v 8.154930 5.555702 -1.622116
v 9.061274 3.826835 -1.802400
v 9.619396 1.950903 -1.913416
v 9.807851 0.000000 -1.950901
v 9.619396 -1.950903 -1.913416
v 9.061274 -3.826835 -1.802400
v 8.154930 -5.555702 -1.622116
v 6.935199 -7.071068 -1.379497
v 5.448951 -8.314696 -1.083863
v 3.753302 -9.238795 -0.746578
v 1.913417 -9.807853 -0.380602
v 1.950903 9.807853 0.000000
v 3.826834 9.238795 0.000000
v 5.555701 8.314696 0.000001
v 7.071067 7.071068 -0.000000
v 8.314694 5.555702 0.000001
v 9.238794 3.826835 -0.000000
v 9.807852 1.950903 0.000001
v 9.999997 0.000000 0.000002
v 9.807852 -1.950903 0.000001
v 9.238794 -3.826835 -0.000000
v 8.314694 -5.555702 0.000001
v 7.071067 -7.071068 -0.000000
v 5.555701 -8.314696 0.000001
v 3.826834 -9.238795 0.000000
v 1.950903 -9.807853 0.000000
v 1.913417 9.807853 0.380602
v 3.753302 9.238795 0.746579
v 5.448950 8.314696 1.083864
v 6.935198 7.071068 1.379497
v 8.154929 5.555702 1.622117
v 9.061274 3.826835 1.802399
v 9.619396 1.950903 1.913418
v 9.807849 0.000000 1.950904
v 9.619396 -1.950903 1.913418
v 9.061274 -3.826835 1.802399
v 8.154929 -5.555702 1.622117
v 6.935198 -7.071068 1.379497
v 5.448950 -8.314696 1.083864
v 3.753302 -9.238795 0.746579
v 1.913417 -9.807853 0.380602
v 1.802399 9.807853 0.746578
v 3.535533 9.238795 1.464466
v 5.132798 8.314696 2.126075
v 6.532814 7.071068 2.705980
v 7.681775 5.555702 3.181896
v 8.535533 3.826835 3.535533
v 9.061272 1.950903 3.753303
v 9.238791 0.000000 3.826835
v 9.061272 -1.950903 3.753303
v 8.535533 -3.826835 3.535533
v 7.681775 -5.555702 3.181896
v 6.532814 -7.071068 2.705980
v 5.132798 -8.314696 2.126075
v 3.535533 -9.238795 1.464466
v 1.802399 -9.807853 0.746578
v 1.622116 9.807853 1.083863
v 3.181896 9.238795 2.126075
v 4.619396 8.314696 3.086582
v 5.879377 7.071068 3.928474
v 6.913414 5.555702 4.619397
v 7.681776 3.826835 5.132799
v 8.154929 1.950903 5.448951
v 8.314692 0.000000 5.555702
v 8.154929 -1.950903 5.448951
v 7.681776 -3.826835 5.132799
v 6.913414 -5.555702 4.619397
v 5.879377 -7.071068 3.928474
v 4.619396 -8.314696 3.086582
v 3.181896 -9.238795 2.126075
v 1.622116 -9.807853 1.083863
v 1.379496 9.807853 1.379496
v 2.705980 9.238795 2.705980
v 3.928473 8.314696 3.928474
v 5.000000 7.071068 5.000000
v 5.879375 5.555702 5.879376
v 6.532814 3.826835 6.532813
v 6.935197 1.950903 6.935198
v 7.071062 0.000000 7.071066
v 6.935197 -1.950903 6.935198
v 6.532814 -3.826835 6.532813
v 5.879375 -5.555702 5.879376
v 5.000000 -7.071068 5.000000
v 3.928473 -8.314696 3.928474
v 2.705980 -9.238795 2.705980
v 1.379496 -9.807853 1.379496
v 1.083863 9.807853 1.622116
v 2.126074 9.238795 3.181896
v 3.086581 8.314696 4.619397
v 3.928474 7.071068 5.879377
v 4.619395 5.555702 6.913415
v 5.132799 3.826835 7.681776
v 5.448949 1.950903 8.154930
v 5.555697 0.000000 8.314693
v 5.448949 -1.950903 8.154930
v 5.132799 -3.826835 7.681776
v 4.619395 -5.555702 6.913415
v 3.928474 -7.071068 5.879377
v 3.086581 -8.314696 4.619397
v 2.126074 -9.238795 3.181896
v 1.083863 -9.807853 1.622116
v 0.746578 9.807853 1.802399
v 1.464465 9.238795 3.535533
v 2.126074 8.314696 5.132798
v 2.705980 7.071068 6.532814
v 3.181894 5.555702 7.681775
v 3.535533 3.826835 8.535532
v 3.753300 1.950903 9.061272
v 3.826829 0.000000 9.238791
v 3.753300 -1.950903 9.061272
v 3.535533 -3.826835 8.535532
v 3.181894 -5.555702 7.681775
v 2.705980 -7.071068 6.532814
v 2.126074 -8.314696 5.132798
v 1.464465 -9.238795 3.535533
v 0.746578 -9.807853 1.802399
v 0.380602 9.807853 1.913416
v 0.746578 9.238795 3.753302
v 1.083862 8.314696 5.448949
v 1.379497 7.071068 6.935198
v 1.622115 5.555702 8.154928
v 1.802399 3.826835 9.061272
v 1.913415 1.950903 9.619394
v 1.950899 0.000000 9.807848
v 1.913415 -1.950903 9.619394
v 1.802399 -3.826835 9.061272
v 1.622115 -5.555702 8.154928
v 1.379497 -7.071068 6.935198
v 1.083862 -8.314696 5.448949
v 0.746578 -9.238795 3.753302
v 0.380602 -9.807853 1.913416
v -0.000000 9.807853 1.950902
v -0.000001 9.238795 3.826833
v -0.000001 8.314696 5.555699
v -0.000000 7.071068 7.071066
v -0.000001 5.555702 8.314693
v 0.000000 3.826835 9.238792
v -0.000001 1.950903 9.807850
v -0.000003 0.000000 9.999993
v -0.000001 -1.950903 9.807850
v 0.000000 -3.826835 9.238792
v -0.000001 -5.555702 8.314693
v -0.000000 -7.071068 7.071066
v -0.000001 -8.314696 5.555699
v -0.000001 -9.238795 3.826833
v -0.000000 -9.807853 1.950902
v -0.380602 9.807853 1.913416
v -0.746579 9.238795 3.753302
v -1.083864 8.314696 5.448948
v -1.379497 7.071068 6.935198
v -1.622117 5.555702 8.154928
v -1.802399 3.826835 9.061272
v -1.913418 1.950903 9.619394
v -1.950905 0.000000 9.807845
v -1.913418 -1.950903 9.619394
v -1.802399 -3.826835 9.061272
v -1.622117 -5.555702 8.154928
v -1.379497 -7.071068 6.935198
v -1.083864 -8.314696 5.448948
v -0.746579 -9.238795 3.753302
v -0.380602 -9.807853 1.913416
v -0.746578 9.807853 1.802398
v -1.464466 9.238795 3.535533
v -2.126075 8.314696 5.132796
v -2.705980 7.071068 6.532813
v -3.181896 5.555702 7.681774
v -3.535532 3.826835 8.535531
v -3.753303 1.950903 9.061271
v -3.826835 0.000000 9.238788
v -3.753303 -1.950903 9.061271
v -3.535532 -3.826835 8.535531
v -3.181896 -5.555702 7.681774
v -2.705980 -7.071068 6.532813
v -2.126075 -8.314696 5.132796
v -1.464466 -9.238795 3.535533
v -0.746578 -9.807853 1.802398
v -1.083863 9.807853 1.622115
v -2.126075 9.238795 3.181895
v -3.086582 8.314696 4.619394
v -3.928474 7.071068 5.879376
v -4.619396 5.555702 6.913414
v -5.132797 3.826835 7.681775
v -5.448951 1.950903 8.154927
v -5.555701 0.000000 8.314688
v -5.448951 -1.950903 8.154927
v -5.132797 -3.826835 7.681775
v -4.619396 -5.555702 6.913414
v -3.928474 -7.071068 5.879376
v -3.086582 -8.314696 4.619394
v -2.126075 -9.238795 3.181895
v -1.083863 -9.807853 1.622115
v -1.379496 9.807853 1.379496
v -2.705980 9.238795 2.705979
v -3.928473 8.314696 3.928471
v -4.999999 7.071068 4.999999
v -5.879376 5.555702 5.879374
v -6.532812 3.826835 6.532813
v -6.935198 1.950903 6.935195
v -7.071065 0.000000 7.071059
v -6.935198 -1.950903 6.935195
v -6.532812 -3.826835 6.532813
v -5.879376 -5.555702 5.879374
v -4.999999 -7.071068 4.999999
v -3.928473 -8.314696 3.928471
v -2.705980 -9.238795 2.705979
v -1.379496 -9.807853 1.379496
v 0.000000 -10.000000 0.000000
v -1.622115 9.807853 1.083863
v -3.181896 9.238795 2.126074
v -4.619395 8.314696 3.086579
v -5.879376 7.071068 3.928473
v -6.913414 5.555702 4.619394
v -7.681775 3.826835 5.132798
v -8.154929 1.950903 5.448947
v -8.314692 0.000000 5.555694
v -8.154929 -1.950903 5.448947
v -7.681775 -3.826835 5.132798
v -6.913414 -5.555702 4.619394
v -5.879376 -7.071068 3.928473
v -4.619395 -8.314696 3.086579
v -3.181896 -9.238795 2.126074
v -1.622115 -9.807853 1.083863
v -1.802398 9.807853 0.746578
v -3.535533 9.238795 1.464465
v -5.132796 8.314696 2.126072
v -6.532813 7.071068 2.705980
v -7.681774 5.555702 3.181893
v -8.535530 3.826835 3.535533
v -9.061272 1.950903 3.753299
v -9.238789 0.000000 3.826827
v -9.061272 -1.950903 3.753299
v -8.535530 -3.826835 3.535533
v -7.681774 -5.555702 3.181893
v -6.532813 -7.071068 2.705980
v -5.132796 -8.314696 2.126072
v -3.535533 -9.238795 1.464465
v -1.802398 -9.807853 0.746578
v -1.913415 9.807853 0.380602
v -3.753301 9.238795 0.746578
v -5.448947 8.314696 1.083861
v -6.935198 7.071068 1.379496
v -8.154927 5.555702 1.622114
v -9.061271 3.826835 1.802399
v -9.619394 1.950903 1.913414
v -9.807844 0.000000 1.950897
v -9.619394 -1.950903 1.913414
v -9.061271 -3.826835 1.802399
v -8.154927 -5.555702 1.622114
v -6.935198 -7.071068 1.379496
v -5.448947 -8.314696 1.083861
v -3.753301 -9.238795 0.746578
v -1.913415 -9.807853 0.380602
v -1.950902 9.807853 -0.000000
v -3.826833 9.238795 -0.000001
v -5.555697 8.314696 -0.000001
v -7.071066 7.071068 -0.000000
v -8.314692 5.555702 -0.000002
v -9.238791 3.826835 -0.000000
v -9.807848 1.950903 -0.000003
v -9.999990 0.000000 -0.000004
v -9.807848 -1.950903 -0.000003
v -9.238791 -3.826835 -0.000000
v -8.314692 -5.555702 -0.000002
v -7.071066 -7.071068 -0.000000
v -5.555697 -8.314696 -0.000001
v -3.826833 -9.238795 -0.000001
v -1.950902 -9.807853 -0.000000
v -1.913415 9.807853 -0.380602
v -3.753301 9.238795 -0.746579
v -5.448946 8.314696 -1.083864
v -6.935197 7.071068 -1.379497
v -8.154926 5.555702 -1.622118
v -9.061271 3.826835 -1.802399
v -9.619392 1.950903 -1.913419
v -9.807842 0.000000 -1.950906
v -9.619392 -1.950903 -1.913419
v -9.061271 -3.826835 -1.802399
v -8.154926 -5.555702 -1.622118
v -6.935197 -7.071068 -1.379497
v -5.448946 -8.314696 -1.083864
v -3.753301 -9.238795 -0.746579
v -1.913415 -9.807853 -0.380602
v -1.802398 9.807853 -0.746578
v -3.535532 9.238795 -1.464466
v -5.132794 8.314696 -2.126075
v -6.532813 7.071068 -2.705980
v -7.681772 5.555702 -3.181896
v -8.535530 3.826835 -3.535532
v -9.061269 1.950903 -3.753303
v -9.238785 0.000000 -3.826835
v -9.061269 -1.950903 -3.753303
v -8.535530 -3.826835 -3.535532
v -7.681772 -5.555702 -3.181896
v -6.532813 -7.071068 -2.705980
v -5.132794 -8.314696 -2.126075
v -3.535532 -9.238795 -1.464466
v -1.802398 -9.807853 -0.746578
v -1.622115 9.807853 -1.083863
v -3.181894 9.238795 -2.126075
v -4.619392 8.314696 -3.086581
v -5.879376 7.071068 -3.928474
v -6.913412 5.555702 -4.619396
v -7.681774 3.826835 -5.132797
v -8.154925 1.950903 -5.448951
v -8.314685 0.000000 -5.555701
v -8.154925 -1.950903 -5.448951
v -7.681774 -3.826835 -5.132797
v -6.913412 -5.555702 -4.619396
v -5.879376 -7.071068 -3.928474
v -4.619392 -8.314696 -3.086581
v -3.181894 -9.238795 -2.126075
v -1.622115 -9.807853 -1.083863
v -1.379495 9.807853 -1.379496
v -2.705979 9.238795 -2.705979
v -3.928469 8.314696 -3.928473
v -4.999998 7.071068 -4.999999
v -5.879373 5.555702 -5.879375
v -6.532812 3.826835 -6.532812
v -6.935194 1.950903 -6.935197
v -7.071057 0.000000 -7.071064
v -6.935194 -1.950903 -6.935197
v -6.532812 -3.826835 -6.532812
v -5.879373 -5.555702 -5.879375
v -4.999998 -7.071068 -4.999999
v -3.928469 -8.314696 -3.928473
v -2.705979 -9.238795 -2.705979
v -1.379495 -9.807853 -1.379496
v -1.083863 9.807853 -1.622115
v -2.126074 9.238795 -3.181895
v -3.086578 8.314696 -4.619394
v -3.928473 7.071068 -5.879376
v -4.619393 5.555702 -6.913414
v -5.132797 3.826835 -7.681774
v -5.448946 1.950903 -8.154928
v -5.555692 0.000000 -8.314690
v -5.448946 -1.950903 -8.154928
v -5.132797 -3.826835 -7.681774
v -4.619393 -5.555702 -6.913414
v -3.928473 -7.071068 -5.879376
v -3.086578 -8.314696 -4.619394
v -2.126074 -9.238795 -3.181895
v -1.083863 -9.807853 -1.622115
v -0.746577 9.807853 -1.802398
v -1.464465 9.238795 -3.535532
v -2.126071 8.314696 -5.132795
v -2.705979 7.071068 -6.532813
v -3.181892 5.555702 -7.681773
v -3.535532 3.826835 -8.535530
v -3.753298 1.950903 -9.061270
v -3.826826 0.000000 -9.238786
v -3.753298 -1.950903 -9.061270
v -3.535532 -3.826835 -8.535530
v -3.181892 -5.555702 -7.681773
v -2.705979 -7.071068 -6.532813
v -2.126071 -8.314696 -5.132795
v -1.464465 -9.238795 -3.535532
v -0.746577 -9.807853 -1.802398
v -0.380602 9.807853 -1.913415
v -0.746577 9.238795 -3.753301
v -1.083860 8.314696 -5.448945
v -1.379496 7.071068 -6.935198
v -1.622113 5.555702 -8.154925
v -1.802398 3.826835 -9.061270
v -1.913413 1.950903 -9.619392
v -1.950896 0.000000 -9.807842
v -1.913413 -1.950903 -9.619392
v -1.802398 -3.826835 -9.061270
v -1.622113 -5.555702 -8.154925
v -1.379496 -7.071068 -6.935198
v -1.083860 -8.314696 -5.448945
v -0.746577 -9.238795 -3.753301
v -0.380602 -9.807853 -1.913415
v 0.000000 9.807853 -1.950901
v 0.000001 9.238795 -3.826832
v 0.000001 7.071068 -7.071066
v 0.000001 3.826835 -9.238791
v 0.000001 -3.826835 -9.238791
v 0.000001 -7.071068 -7.071066
v 0.000002 -8.314696 -5.555696
v 0.000001 -9.238795 -3.826832
v 0.000000 -9.807853 -1.950901
vn 0.0975 0.0975 -0.9904
vn 0.0097 0.9951 -0.0980
vn 0.0097 -0.9951 -0.0980
vn 0.0975 -0.0976 -0.9904
vn 0.0286 0.9565 -0.2902
vn 0.0938 -0.2890 -0.9527
vn 0.0464 0.8810 -0.4709
vn 0.0865 -0.4696 -0.8786
vn 0.0624 0.7715 -0.6332
vn 0.0759 -0.6326 -0.7708
vn 0.0759 0.6326 -0.7708
vn 0.0624 -0.7715 -0.6332
vn 0.0865 0.4696 -0.8786
vn 0.0464 -0.8810 -0.4709
vn 0.0938 0.2890 -0.9527
vn 0.0286 -0.9565 -0.2902
vn 0.2779 0.2890 -0.9161
vn 0.0846 -0.9565 -0.2790
vn 0.2889 0.0976 -0.9524
vn 0.0286 0.9951 -0.0942
vn 0.0286 -0.9951 -0.0942
vn 0.2889 -0.0976 -0.9524
vn 0.0846 0.9565 -0.2790
vn 0.2779 -0.2890 -0.9161
vn 0.1374 0.8810 -0.4528
vn 0.2563 -0.4696 -0.8448
vn 0.1847 0.7715 -0.6088
vn 0.2248 -0.6326 -0.7412
vn 0.2248 0.6326 -0.7412
vn 0.1847 -0.7715 -0.6088
vn 0.2563 0.4696 -0.8448
vn 0.1374 -0.8810 -0.4528
vn 0.4162 -0.4696 -0.7786
vn 0.2999 0.7715 -0.5611
vn 0.3651 -0.6326 -0.6831
vn 0.3651 0.6326 -0.6831
vn 0.2999 -0.7715 -0.5611
vn 0.4162 0.4696 -0.7786
vn 0.2230 -0.8810 -0.4173
vn 0.4513 0.2890 -0.8443
vn 0.1374 -0.9565 -0.2571
vn 0.4691 0.0975 -0.8777
vn 0.0464 0.9951 -0.0869
vn 0.0464 -0.9951 -0.0869
vn 0.4691 -0.0975 -0.8777
vn 0.1374 0.9565 -0.2571
vn 0.4513 -0.2890 -0.8443
vn 0.2231 0.8810 -0.4173
vn 0.1850 -0.9565 -0.2254
vn 0.6314 0.0975 -0.7693
vn 0.0625 0.9951 -0.0761
vn 0.0625 -0.9951 -0.0761
vn 0.6314 -0.0975 -0.7693
vn 0.1850 0.9565 -0.2254
vn 0.6073 -0.2890 -0.7400
vn 0.3002 0.8810 -0.3658
vn 0.5601 -0.4696 -0.6825
vn 0.4036 0.7715 -0.4918
vn 0.4913 -0.6326 -0.5987
vn 0.4913 0.6326 -0.5987
vn 0.4036 -0.7715 -0.4918
vn 0.5601 0.4696 -0.6825
vn 0.3002 -0.8810 -0.3658
vn 0.6073 0.2890 -0.7400
vn 0.4918 0.7715 -0.4036
vn 0.5987 -0.6326 -0.4913
vn 0.5987 0.6326 -0.4913
vn 0.4918 -0.7715 -0.4036
vn 0.6825 0.4696 -0.5601
vn 0.3658 -0.8810 -0.3002
vn 0.7400 0.2890 -0.6073
vn 0.2254 -0.9566 -0.1850
vn 0.7693 0.0975 -0.6314
vn 0.0761 0.9951 -0.0625
vn 0.0761 -0.9951 -0.0625
vn 0.7693 -0.0975 -0.6314
vn 0.2254 0.9565 -0.1850
vn 0.7400 -0.2890 -0.6073
vn 0.3658 0.8810 -0.3002
vn 0.6825 -0.4696 -0.5601
vn 0.8777 0.0975 -0.4691
vn 0.0869 0.9951 -0.0464
vn 0.0869 -0.9951 -0.0464
vn 0.8777 -0.0975 -0.4691
vn 0.2571 0.9565 -0.1374
vn 0.8443 -0.2890 -0.4513
vn 0.4173 0.8810 -0.2230
vn 0.7786 -0.4696 -0.4162
vn 0.5611 0.7715 -0.2999
vn 0.6831 -0.6326 -0.3651
vn 0.6831 0.6326 -0.3651
vn 0.5611 -0.7715 -0.2999
vn 0.7786 0.4696 -0.4162
vn 0.4173 -0.8810 -0.2230
vn 0.8443 0.2890 -0.4513
vn 0.2571 -0.9565 -0.1374
vn 0.7412 -0.6326 -0.2248
vn 0.7412 0.6326 -0.2248
vn 0.6088 -0.7715 -0.1847
vn 0.8448 0.4696 -0.2563
vn 0.4528 -0.8810 -0.1374
vn 0.9161 0.2890 -0.2779
vn 0.2790 -0.9565 -0.0846
vn 0.9524 0.0975 -0.2889
vn 0.0942 0.9951 -0.0286
vn 0.0942 -0.9951 -0.0286
vn 0.9524 -0.0975 -0.2889
vn 0.2790 0.9565 -0.0846
vn 0.9161 -0.2890 -0.2779
vn 0.4528 0.8810 -0.1374
vn 0.8448 -0.4696 -0.2563
vn 0.6088 0.7715 -0.1847
vn 0.0980 -0.9951 -0.0097
vn 0.9904 -0.0975 -0.0975
vn 0.2902 0.9565 -0.0286
vn 0.9527 -0.2890 -0.0938
vn 0.4709 0.8810 -0.0464
vn 0.8786 -0.4696 -0.0865
vn 0.6332 0.7715 -0.0624
vn 0.7708 -0.6326 -0.0759
vn 0.7708 0.6326 -0.0759
vn 0.6332 -0.7715 -0.0624
vn 0.8786 0.4696 -0.0865
vn 0.4709 -0.8810 -0.0464
vn 0.9527 0.2890 -0.0938
vn 0.2902 -0.9565 -0.0286
vn 0.9904 0.0975 -0.0975
vn 0.0980 0.9951 -0.0097
vn 0.6332 -0.7715 0.0624
vn 0.8786 0.4696 0.0865
vn 0.4709 -0.8810 0.0464
vn 0.9527 0.2890 0.0938
vn 0.2902 -0.9565 0.0286
vn 0.9904 0.0975 0.0976
vn 0.0980 0.9951 0.0097
vn 0.0980 -0.9951 0.0097
vn 0.9904 -0.0975 0.0976
vn 0.2902 0.9565 0.0286
vn 0.9527 -0.2890 0.0938
vn 0.4709 0.8810 0.0464
vn 0.8786 -0.4696 0.0865
vn 0.6332 0.7715 0.0624
vn 0.7708 -0.6326 0.0759
vn 0.7708 0.6326 0.0759
vn 0.2790 0.9565 0.0846
vn 0.9161 -0.2890 0.2779
vn 0.4528 0.8810 0.1374
vn 0.8448 -0.4696 0.2563
vn 0.6088 0.7715 0.1847
vn 0.7412 -0.6326 0.2248
vn 0.7412 0.6326 0.2248
vn 0.6088 -0.7715 0.1847
vn 0.8448 0.4696 0.2563
vn 0.4528 -0.8810 0.1374
vn 0.9161 0.2890 0.2779
vn 0.2790 -0.9565 0.0846
vn 0.9524 0.0975 0.2889
vn 0.0942 0.9951 0.0286
vn 0.0942 -0.9951 0.0286
vn 0.9524 -0.0975 0.2889
vn 0.7786 0.4696 0.4162
vn 0.4173 -0.8810 0.2230
vn 0.8443 0.2890 0.4513
vn 0.2571 -0.9566 0.1374
vn 0.8777 0.0975 0.4691
vn 0.0869 0.9951 0.0464
vn 0.0869 -0.9951 0.0464
vn 0.8777 -0.0975 0.4691
vn 0.2571 0.9565 0.1374
vn 0.8443 -0.2890 0.4513
vn 0.4173 0.8810 0.2231
vn 0.7786 -0.4696 0.4162
vn 0.5611 0.7715 0.2999
vn 0.6831 -0.6326 0.3651
vn 0.6831 0.6326 0.3651
vn 0.5611 -0.7715 0.2999
vn 0.7400 -0.2890 0.6073
vn 0.3658 0.8810 0.3002
vn 0.6825 -0.4696 0.5601
vn 0.4918 0.7715 0.4036
vn 0.5987 -0.6326 0.4913
vn 0.5987 0.6326 0.4913
vn 0.4918 -0.7715 0.4036
vn 0.6825 0.4696 0.5601
vn 0.3658 -0.8810 0.3002
vn 0.7400 0.2890 0.6073
vn 0.2254 -0.9565 0.1850
vn 0.7693 0.0975 0.6314
vn 0.0761 0.9951 0.0625
vn 0.0761 -0.9951 0.0625
vn 0.7693 -0.0975 0.6314
vn 0.2254 0.9565 0.1850
vn 0.3002 -0.8810 0.3658
vn 0.6073 0.2890 0.7400
vn 0.1850 -0.9565 0.2254
vn 0.6314 0.0975 0.7693
vn 0.0625 0.9951 0.0761
vn 0.0625 -0.9951 0.0761
vn 0.6314 -0.0975 0.7693
vn 0.1850 0.9565 0.2254
vn 0.6073 -0.2890 0.7400
vn 0.3002 0.8810 0.3658
vn 0.5601 -0.4696 0.6825
vn 0.4036 0.7715 0.4918
vn 0.4913 -0.6326 0.5987
vn 0.4913 0.6326 0.5987
vn 0.4036 -0.7715 0.4918
vn 0.5601 0.4696 0.6825
vn 0.2230 0.8810 0.4173
vn 0.4162 -0.4696 0.7786
vn 0.2999 0.7715 0.5611
vn 0.3651 -0.6326 0.6831
vn 0.3651 0.6326 0.6831
vn 0.2999 -0.7715 0.5611
vn 0.4162 0.4696 0.7786
vn 0.2230 -0.8810 0.4173
vn 0.4513 0.2890 0.8443
vn 0.1374 -0.9565 0.2571
vn 0.4691 0.0975 0.8777
vn 0.0464 0.9951 0.0869
vn 0.0464 -0.9951 0.0869
vn 0.4691 -0.0975 0.8777
vn 0.1374 0.9565 0.2571
vn 0.4513 -0.2890 0.8443
vn 0.2779 0.2890 0.9161
vn 0.0846 -0.9565 0.2790
vn 0.2889 0.0975 0.9524
vn 0.0286 0.9951 0.0942
vn 0.0286 -0.9951 0.0942
vn 0.2889 -0.0975 0.9524
vn 0.0846 0.9565 0.2790
vn 0.2779 -0.2890 0.9161
vn 0.1374 0.8810 0.4528
vn 0.2563 -0.4696 0.8448
vn 0.1847 0.7715 0.6088
vn 0.2248 -0.6326 0.7412
vn 0.2248 0.6326 0.7412
vn 0.1847 -0.7715 0.6088
vn 0.2563 0.4696 0.8448
vn 0.1374 -0.8810 0.4528
vn 0.0865 -0.4696 0.8786
vn 0.0624 0.7715 0.6332
vn 0.0759 -0.6326 0.7708
vn 0.0759 0.6326 0.7708
vn 0.0624 -0.7715 0.6332
vn 0.0865 0.4696 0.8786
vn 0.0464 -0.8810 0.4709
vn 0.0938 0.2890 0.9527
vn 0.0286 -0.9565 0.2902
vn 0.0975 0.0975 0.9904
vn 0.0097 0.9951 0.0980
vn 0.0097 -0.9951 0.0980
vn 0.0975 -0.0975 0.9904
vn 0.0286 0.9565 0.2902
vn 0.0938 -0.2890 0.9527
vn 0.0464 0.8810 0.4709
vn -0.0286 -0.9565 0.2902
vn -0.0976 0.0975 0.9904
vn -0.0097 0.9951 0.0980
vn -0.0097 -0.9951 0.0980
vn -0.0975 -0.0975 0.9904
vn -0.0286 0.9565 0.2902
vn -0.0938 -0.2890 0.9527
vn -0.0464 0.8810 0.4709
vn -0.0865 -0.4696 0.8786
vn -0.0624 0.7715 0.6332
vn -0.0759 -0.6326 0.7708
vn -0.0759 0.6326 0.7708
vn -0.0624 -0.7715 0.6332
vn -0.0865 0.4696 0.8786
vn -0.0464 -0.8810 0.4709
vn -0.0938 0.2890 0.9527
vn -0.2248 -0.6326 0.7412
vn -0.2248 0.6326 0.7412
vn -0.1847 -0.7715 0.6088
vn -0.2563 0.4696 0.8448
vn -0.1374 -0.8810 0.4528
vn -0.2779 0.2890 0.9161
vn -0.0846 -0.9565 0.2790
vn -0.2889 0.0975 0.9524
vn -0.0286 0.9951 0.0942
vn -0.0286 -0.9951 0.0942
vn -0.2889 -0.0975 0.9524
vn -0.0846 0.9565 0.2790
vn -0.2779 -0.2890 0.9161
vn -0.1374 0.8810 0.4528
vn -0.2563 -0.4696 0.8448
vn -0.1847 0.7715 0.6088
vn -0.0464 0.9951 0.0869
vn -0.0464 -0.9951 0.0869
vn -0.4691 -0.0975 0.8777
vn -0.1374 0.9565 0.2571
vn -0.4513 -0.2890 0.8443
vn -0.2230 0.8810 0.4173
vn -0.4162 -0.4696 0.7786
vn -0.2999 0.7715 0.5611
vn -0.3651 -0.6326 0.6831
vn -0.3651 0.6326 0.6831
vn -0.2999 -0.7715 0.5611
vn -0.4162 0.4696 0.7786
vn -0.2230 -0.8810 0.4173
vn -0.4513 0.2890 0.8443
vn -0.1374 -0.9565 0.2571
vn -0.4691 0.0975 0.8777
vn -0.4913 0.6326 0.5987
vn -0.4036 -0.7715 0.4918
vn -0.5601 0.4696 0.6825
vn -0.3002 -0.8810 0.3658
vn -0.6073 0.2890 0.7400
vn -0.1850 -0.9565 0.2254
vn -0.6314 0.0975 0.7693
vn -0.0625 0.9951 0.0761
vn -0.0625 -0.9951 0.0761
vn -0.6314 -0.0975 0.7693
vn -0.1850 0.9565 0.2254
vn -0.6073 -0.2890 0.7400
vn -0.3002 0.8810 0.3658
vn -0.5601 -0.4696 0.6825
vn -0.4036 0.7715 0.4918
vn -0.4913 -0.6326 0.5987
vn -0.7693 -0.0975 0.6314
vn -0.2254 0.9565 0.1850
vn -0.7400 -0.2890 0.6073
vn -0.3658 0.8810 0.3002
vn -0.6825 -0.4696 0.5601
vn -0.4918 0.7715 0.4036
vn -0.5987 -0.6326 0.4913
vn -0.5987 0.6326 0.4913
vn -0.4918 -0.7715 0.4036
vn -0.6825 0.4696 0.5601
vn -0.3658 -0.8810 0.3002
vn -0.7400 0.2890 0.6073
vn -0.2254 -0.9566 0.1850
vn -0.7693 0.0975 0.6314
vn -0.0761 0.9951 0.0625
vn -0.0761 -0.9951 0.0625
vn -0.5611 -0.7715 0.2999
vn -0.7786 0.4696 0.4162
vn -0.4173 -0.8810 0.2231
vn -0.8443 0.2890 0.4513
vn -0.2571 -0.9565 0.1374
vn -0.8777 0.0975 0.4691
vn -0.0869 0.9951 0.0464
vn -0.0869 -0.9951 0.0464
vn -0.8777 -0.0975 0.4691
vn -0.2571 0.9565 0.1374
vn -0.8443 -0.2890 0.4513
vn -0.4173 0.8810 0.2230
vn -0.7786 -0.4696 0.4162
vn -0.5611 0.7715 0.2999
vn -0.6831 -0.6326 0.3651
vn -0.6831 0.6326 0.3651
vn -0.2790 0.9565 0.0846
vn -0.9161 -0.2890 0.2779
vn -0.4528 0.8810 0.1374
vn -0.8448 -0.4696 0.2563
vn -0.6088 0.7715 0.1847
vn -0.7412 -0.6326 0.2248
vn -0.7412 0.6326 0.2248
vn -0.6088 -0.7715 0.1847
vn -0.8448 0.4696 0.2563
vn -0.4528 -0.8810 0.1374
vn -0.9161 0.2890 0.2779
vn -0.2790 -0.9565 0.0846
vn -0.9524 0.0975 0.2889
vn -0.0942 0.9951 0.0286
vn -0.0942 -0.9951 0.0286
vn -0.9524 -0.0975 0.2889
vn -0.8786 0.4696 0.0865
vn -0.4709 -0.8810 0.0464
vn -0.9527 0.2890 0.0938
vn -0.2902 -0.9565 0.0286
vn -0.9904 0.0975 0.0975
vn -0.0980 0.9951 0.0097
vn -0.0980 -0.9951 0.0097
vn -0.9904 -0.0975 0.0976
vn -0.2902 0.9565 0.0286
vn -0.9527 -0.2890 0.0938
vn -0.4709 0.8810 0.0464
vn -0.8786 -0.4696 0.0865
vn -0.6332 0.7715 0.0624
vn -0.7708 -0.6326 0.0759
vn -0.7708 0.6326 0.0759
vn -0.6332 -0.7715 0.0624
vn -0.9527 -0.2890 -0.0938
vn -0.4709 0.8810 -0.0464
vn -0.8786 -0.4696 -0.0865
vn -0.6332 0.7715 -0.0624
vn -0.7708 -0.6326 -0.0759
vn -0.7708 0.6326 -0.0759
vn -0.6332 -0.7715 -0.0624
vn -0.8786 0.4696 -0.0865
vn -0.4709 -0.8810 -0.0464
vn -0.9527 0.2890 -0.0938
vn -0.2902 -0.9565 -0.0286
vn -0.9904 0.0975 -0.0975
vn -0.0980 0.9951 -0.0097
vn -0.0980 -0.9951 -0.0097
vn -0.9904 -0.0975 -0.0976
vn -0.2902 0.9565 -0.0286
vn -0.4528 -0.8810 -0.1374
vn -0.9161 0.2890 -0.2779
vn -0.2790 -0.9565 -0.0846
vn -0.9524 0.0975 -0.2889
vn -0.0942 0.9951 -0.0286
vn -0.0942 -0.9951 -0.0286
vn -0.9524 -0.0975 -0.2889
vn -0.2790 0.9565 -0.0846
vn -0.9161 -0.2890 -0.2779
vn -0.4528 0.8810 -0.1374
vn -0.8448 -0.4696 -0.2563
vn -0.6088 0.7715 -0.1847
vn -0.7412 -0.6326 -0.2248
vn -0.7412 0.6326 -0.2248
vn -0.6088 -0.7715 -0.1847
vn -0.8448 0.4696 -0.2563
vn -0.7786 -0.4696 -0.4162
vn -0.5611 0.7715 -0.2999
vn -0.6831 -0.6326 -0.3651
vn -0.6831 0.6326 -0.3651
vn -0.5611 -0.7715 -0.2999
vn -0.7786 0.4696 -0.4162
vn -0.4173 -0.8810 -0.2231
vn -0.8443 0.2890 -0.4513
vn -0.2571 -0.9565 -0.1374
vn -0.8777 0.0975 -0.4691
vn -0.0869 0.9951 -0.0464
vn -0.0869 -0.9951 -0.0464
vn -0.8777 -0.0975 -0.4691
vn -0.2571 0.9565 -0.1374
vn -0.8443 -0.2890 -0.4513
vn -0.4173 0.8810 -0.2231
vn -0.2254 -0.9565 -0.1850
vn -0.7693 0.0975 -0.6314
vn -0.0761 0.9951 -0.0625
vn -0.0761 -0.9951 -0.0625
vn -0.7693 -0.0975 -0.6314
vn -0.2254 0.9565 -0.1850
vn -0.7400 -0.2890 -0.6073
vn -0.3658 0.8810 -0.3002
vn -0.6825 -0.4696 -0.5601
vn -0.4918 0.7715 -0.4036
vn -0.5987 -0.6326 -0.4913
vn -0.5987 0.6326 -0.4913
vn -0.4918 -0.7715 -0.4036
vn -0.6825 0.4696 -0.5601
vn -0.3658 -0.8810 -0.3002
vn -0.7400 0.2890 -0.6073
vn -0.4036 0.7715 -0.4918
vn -0.4913 -0.6326 -0.5987
vn -0.4913 0.6326 -0.5987
vn -0.4036 -0.7715 -0.4918
vn -0.5601 0.4696 -0.6825
vn -0.3002 -0.8810 -0.3658
vn -0.6073 0.2890 -0.7400
vn -0.1850 -0.9565 -0.2254
vn -0.6314 0.0975 -0.7693
vn -0.0625 0.9951 -0.0761
vn -0.0625 -0.9951 -0.0761
vn -0.6314 -0.0975 -0.7693
vn -0.1850 0.9565 -0.2254
vn -0.6073 -0.2890 -0.7400
vn -0.3002 0.8810 -0.3658
vn -0.5601 -0.4696 -0.6825
vn -0.4691 0.0975 -0.8777
vn -0.0464 0.9951 -0.0869
vn -0.0464 -0.9951 -0.0869
vn -0.4691 -0.0975 -0.8777
vn -0.1374 0.9565 -0.2571
vn -0.4513 -0.2890 -0.8443
vn -0.2230 0.8810 -0.4173
vn -0.4162 -0.4696 -0.7786
vn -0.2999 0.7715 -0.5611
vn -0.3651 -0.6326 -0.6831
vn -0.3651 0.6326 -0.6831
vn -0.2999 -0.7715 -0.5611
vn -0.4162 0.4696 -0.7786
vn -0.2230 -0.8810 -0.4173
vn -0.4513 0.2890 -0.8443
vn -0.1374 -0.9565 -0.2571
vn -0.2248 -0.6326 -0.7412
vn -0.2248 0.6326 -0.7412
vn -0.1847 -0.7715 -0.6088
vn -0.2563 0.4696 -0.8448
vn -0.1374 -0.8810 -0.4528
vn -0.2779 0.2890 -0.9161
vn -0.0846 -0.9565 -0.2790
vn -0.2889 0.0975 -0.9524
vn -0.0286 0.9951 -0.0942
vn -0.0286 -0.9951 -0.0942
vn -0.2889 -0.0975 -0.9524
vn -0.0846 0.9565 -0.2790
vn -0.2779 -0.2890 -0.9161
vn -0.1374 0.8810 -0.4528
vn -0.2563 -0.4696 -0.8448
vn -0.1847 0.7715 -0.6088
vn -0.0097 0.9951 -0.0980
vn -0.0097 -0.9951 -0.0980
vn -0.0976 -0.0975 -0.9904
vn -0.0286 0.9565 -0.2902
vn -0.0938 -0.2890 -0.9527
vn -0.0464 0.8810 -0.4709
vn -0.0865 -0.4696 -0.8786
vn -0.0624 0.7715 -0.6332
vn -0.0759 -0.6326 -0.7708
vn -0.0759 0.6326 -0.7708
vn -0.0624 -0.7715 -0.6332
vn -0.0865 0.4696 -0.8786
vn -0.0464 -0.8810 -0.4709
vn -0.0938 0.2890 -0.9527
vn -0.0286 -0.9565 -0.2902
vn -0.0976 0.0975 -0.9904
vn 0.0975 0.0976 -0.9904
vn 0.0975 -0.0975 -0.9904
vn 0.2231 -0.8810 -0.4173
vn 0.2230 0.8810 -0.4173
vn 0.2254 -0.9565 -0.1850
vn 0.4173 -0.8810 0.2231
vn 0.2571 -0.9565 0.1374
vn 0.4173 0.8810 0.2230
vn -0.0975 0.0975 0.9904
vn -0.0976 -0.0975 0.9904
vn -0.2231 0.8810 0.4173
vn -0.2231 -0.8810 0.4173
vn -0.2254 -0.9565 0.1850
vn -0.4173 -0.8810 0.2230
vn -0.9904 0.0975 0.0976
vn -0.9904 -0.0975 0.0975
vn -0.9904 0.0975 -0.0976
vn -0.9904 -0.0975 -0.0975
vt 0.750000 0.562500
vt 0.718750 0.500000
vt 0.750000 0.500000
vt 0.750000 0.937500
vt 0.734375 1.000000
vt 0.718750 0.937500
vt 0.734375 0.000000
vt 0.750000 0.062500
vt 0.718750 0.062500
vt 0.718750 0.437500
vt 0.750000 0.437500
vt 0.750000 0.875000
vt 0.718750 0.875000
vt 0.718750 0.375000
vt 0.750000 0.375000
vt 0.750000 0.812500
vt 0.718750 0.812500
vt 0.718750 0.312500
vt 0.750000 0.312500
vt 0.750000 0.750000
vt 0.718750 0.750000
vt 0.750000 0.250000
vt 0.718750 0.250000
vt 0.718750 0.687500
vt 0.750000 0.687500
vt 0.718750 0.187500
vt 0.750000 0.187500
vt 0.750000 0.625000
vt 0.718750 0.625000
vt 0.718750 0.125000
vt 0.750000 0.125000
vt 0.718750 0.562500
vt 0.687500 0.625000
vt 0.687500 0.562500
vt 0.687500 0.062500
vt 0.687500 0.500000
vt 0.703125 1.000000
vt 0.687500 0.937500
vt 0.703125 0.000000
vt 0.687500 0.437500
vt 0.687500 0.875000
vt 0.687500 0.375000
vt 0.687500 0.812500
vt 0.687500 0.312500
vt 0.687500 0.750000
vt 0.687500 0.250000
vt 0.687500 0.687500
vt 0.687500 0.187500
vt 0.687500 0.125000
vt 0.656250 0.375000
vt 0.656250 0.312500
vt 0.656250 0.750000
vt 0.656250 0.250000
vt 0.656250 0.687500
vt 0.656250 0.187500
vt 0.656250 0.625000
vt 0.656250 0.125000
vt 0.656250 0.562500
vt 0.656250 0.062500
vt 0.656250 0.500000
vt 0.671875 1.000000
vt 0.656250 0.937500
vt 0.671875 0.000000
vt 0.656250 0.437500
vt 0.656250 0.875000
vt 0.656250 0.812500
vt 0.625000 0.125000
vt 0.625000 0.062500
vt 0.625000 0.562500
vt 0.625000 0.500000
vt 0.640625 1.000000
vt 0.625000 0.937500
vt 0.640625 0.000000
vt 0.625000 0.437500
vt 0.625000 0.875000
vt 0.625000 0.375000
vt 0.625000 0.812500
vt 0.625000 0.312500
vt 0.625000 0.750000
vt 0.625000 0.250000
vt 0.625000 0.687500
vt 0.625000 0.187500
vt 0.625000 0.625000
vt 0.593750 0.750000
vt 0.593750 0.250000
vt 0.593750 0.687500
vt 0.593750 0.187500
vt 0.593750 0.625000
vt 0.593750 0.125000
vt 0.593750 0.562500
vt 0.593750 0.062500
vt 0.593750 0.500000
vt 0.609375 1.000000
vt 0.593750 0.937500
vt 0.609375 0.000000
vt 0.593750 0.437500
vt 0.593750 0.875000
vt 0.593750 0.375000
vt 0.593750 0.812500
vt 0.593750 0.312500
vt 0.562500 0.562500
vt 0.562500 0.500000
vt 0.578125 1.000000
vt 0.562500 0.937500
vt 0.578125 0.000000
vt 0.562500 0.062500
vt 0.562500 0.437500
vt 0.562500 0.875000
vt 0.562500 0.375000
vt 0.562500 0.812500
vt 0.562500 0.312500
vt 0.562500 0.750000
vt 0.562500 0.250000
vt 0.562500 0.687500
vt 0.562500 0.187500
vt 0.562500 0.625000
vt 0.562500 0.125000
vt 0.531250 0.250000
vt 0.531250 0.750000
vt 0.531250 0.687500
vt 0.531250 0.187500
vt 0.531250 0.625000
vt 0.531250 0.125000
vt 0.531250 0.562500
vt 0.531250 0.062500
vt 0.531250 0.500000
vt 0.546875 1.000000
vt 0.531250 0.937500
vt 0.546875 0.000000
vt 0.531250 0.437500
vt 0.531250 0.875000
vt 0.531250 0.375000
vt 0.531250 0.812500
vt 0.531250 0.312500
vt 0.515625 0.000000
vt 0.500000 0.062500
vt 0.500000 0.437500
vt 0.500000 0.875000
vt 0.500000 0.375000
vt 0.500000 0.812500
vt 0.500000 0.312500
vt 0.500000 0.750000
vt 0.500000 0.250000
vt 0.500000 0.687500
vt 0.500000 0.187500
vt 0.500000 0.625000
vt 0.500000 0.125000
vt 0.500000 0.562500
vt 0.500000 0.500000
vt 0.515625 1.000000
vt 0.500000 0.937500
vt 0.468750 0.250000
vt 0.468750 0.187500
vt 0.468750 0.625000
vt 0.468750 0.125000
vt 0.468750 0.562500
vt 0.468750 0.062500
vt 0.468750 0.500000
vt 0.484375 1.000000
vt 0.468750 0.937500
vt 0.484375 0.000000
vt 0.468750 0.437500
vt 0.468750 0.875000
vt 0.468750 0.375000
vt 0.468750 0.812500
vt 0.468750 0.312500
vt 0.468750 0.750000
vt 0.468750 0.687500
vt 0.437500 0.875000
vt 0.437500 0.375000
vt 0.437500 0.812500
vt 0.437500 0.312500
vt 0.437500 0.750000
vt 0.437500 0.250000
vt 0.437500 0.687500
vt 0.437500 0.187500
vt 0.437500 0.625000
vt 0.437500 0.125000
vt 0.437500 0.562500
vt 0.437500 0.062500
vt 0.437500 0.500000
vt 0.453125 1.000000
vt 0.437500 0.937500
vt 0.453125 0.000000
vt 0.437500 0.437500
vt 0.406250 0.625000
vt 0.406250 0.187500
vt 0.406250 0.125000
vt 0.406250 0.562500
vt 0.406250 0.062500
vt 0.406250 0.500000
vt 0.421875 1.000000
vt 0.406250 0.937500
vt 0.421875 0.000000
vt 0.406250 0.437500
vt 0.406250 0.875000
vt 0.406250 0.375000
vt 0.406250 0.812500
vt 0.406250 0.312500
vt 0.406250 0.750000
vt 0.406250 0.250000
vt 0.406250 0.687500
vt 0.375000 0.375000
vt 0.375000 0.812500
vt 0.375000 0.312500
vt 0.375000 0.750000
vt 0.375000 0.250000
vt 0.375000 0.687500
vt 0.375000 0.187500
vt 0.375000 0.625000
vt 0.375000 0.125000
vt 0.375000 0.562500
vt 0.375000 0.062500
vt 0.375000 0.500000
vt 0.390625 1.000000
vt 0.375000 0.937500
vt 0.390625 0.000000
vt 0.375000 0.437500
vt 0.375000 0.875000
vt 0.343750 0.125000
vt 0.343750 0.625000
vt 0.343750 0.562500
vt 0.343750 0.062500
vt 0.343750 0.500000
vt 0.359375 1.000000
vt 0.343750 0.937500
vt 0.359375 0.000000
vt 0.343750 0.437500
vt 0.343750 0.875000
vt 0.343750 0.375000
vt 0.343750 0.812500
vt 0.343750 0.312500
vt 0.343750 0.750000
vt 0.343750 0.250000
vt 0.343750 0.687500
vt 0.343750 0.187500
vt 0.312500 0.812500
vt 0.312500 0.375000
vt 0.312500 0.312500
vt 0.312500 0.750000
vt 0.312500 0.250000
vt 0.312500 0.687500
vt 0.312500 0.187500
vt 0.312500 0.625000
vt 0.312500 0.125000
vt 0.312500 0.562500
vt 0.312500 0.062500
vt 0.312500 0.500000
vt 0.328125 1.000000
vt 0.312500 0.937500
vt 0.328125 0.000000
vt 0.312500 0.437500
vt 0.312500 0.875000
vt 0.281250 0.625000
vt 0.281250 0.562500
vt 0.281250 0.125000
vt 0.281250 0.062500
vt 0.281250 0.500000
vt 0.296875 1.000000
vt 0.281250 0.937500
vt 0.296875 0.000000
vt 0.281250 0.437500
vt 0.281250 0.875000
vt 0.281250 0.375000
vt 0.281250 0.812500
vt 0.281250 0.312500
vt 0.281250 0.750000
vt 0.281250 0.250000
vt 0.281250 0.687500
vt 0.281250 0.187500
vt 0.250000 0.375000
vt 0.250000 0.312500
vt 0.250000 0.750000
vt 0.250000 0.250000
vt 0.250000 0.687500
vt 0.250000 0.187500
vt 0.250000 0.625000
vt 0.250000 0.125000
vt 0.250000 0.562500
vt 0.250000 0.062500
vt 0.250000 0.500000
vt 0.265625 1.000000
vt 0.250000 0.937500
vt 0.265625 0.000000
vt 0.250000 0.437500
vt 0.250000 0.875000
vt 0.250000 0.812500
vt 0.218750 0.062500
vt 0.218750 0.562500
vt 0.218750 0.500000
vt 0.234375 1.000000
vt 0.218750 0.937500
vt 0.234375 0.000000
vt 0.218750 0.437500
vt 0.218750 0.875000
vt 0.218750 0.375000
vt 0.218750 0.812500
vt 0.218750 0.312500
vt 0.218750 0.750000
vt 0.218750 0.250000
vt 0.218750 0.687500
vt 0.218750 0.187500
vt 0.218750 0.625000
vt 0.218750 0.125000
vt 0.187500 0.250000
vt 0.187500 0.750000
vt 0.187500 0.687500
vt 0.187500 0.187500
vt 0.187500 0.625000
vt 0.187500 0.125000
vt 0.187500 0.562500
vt 0.187500 0.062500
vt 0.187500 0.500000
vt 0.203125 1.000000
vt 0.187500 0.937500
vt 0.203125 0.000000
vt 0.187500 0.437500
vt 0.187500 0.875000
vt 0.187500 0.375000
vt 0.187500 0.812500
vt 0.187500 0.312500
vt 0.171875 1.000000
vt 0.156250 0.937500
vt 0.171875 0.000000
vt 0.156250 0.062500
vt 0.156250 0.437500
vt 0.156250 0.875000
vt 0.156250 0.375000
vt 0.156250 0.812500
vt 0.156250 0.312500
vt 0.156250 0.750000
vt 0.156250 0.250000
vt 0.156250 0.687500
vt 0.156250 0.187500
vt 0.156250 0.625000
vt 0.156250 0.125000
vt 0.156250 0.562500
vt 0.156250 0.500000
vt 0.125000 0.750000
vt 0.125000 0.687500
vt 0.125000 0.250000
vt 0.125000 0.187500
vt 0.125000 0.625000
vt 0.125000 0.125000
vt 0.125000 0.562500
vt 0.125000 0.062500
vt 0.125000 0.500000
vt 0.140625 1.000000
vt 0.125000 0.937500
vt 0.140625 0.000000
vt 0.125000 0.437500
vt 0.125000 0.875000
vt 0.125000 0.375000
vt 0.125000 0.812500
vt 0.125000 0.312500
vt 0.093750 0.437500
vt 0.093750 0.937500
vt 0.093750 0.875000
vt 0.093750 0.375000
vt 0.093750 0.812500
vt 0.093750 0.312500
vt 0.093750 0.750000
vt 0.093750 0.250000
vt 0.093750 0.687500
vt 0.093750 0.187500
vt 0.093750 0.625000
vt 0.093750 0.125000
vt 0.093750 0.562500
vt 0.093750 0.062500
vt 0.093750 0.500000
vt 0.109375 1.000000
vt 0.109375 0.000000
vt 0.062500 0.250000
vt 0.062500 0.187500
vt 0.062500 0.625000
vt 0.062500 0.125000
vt 0.062500 0.562500
vt 0.062500 0.062500
vt 0.062500 0.500000
vt 0.078125 1.000000
vt 0.062500 0.937500
vt 0.078125 0.000000
vt 0.062500 0.437500
vt 0.062500 0.875000
vt 0.062500 0.375000
vt 0.062500 0.812500
vt 0.062500 0.312500
vt 0.062500 0.750000
vt 0.062500 0.687500
vt 0.031250 0.875000
vt 0.031250 0.375000
vt 0.031250 0.812500
vt 0.031250 0.312500
vt 0.031250 0.750000
vt 0.031250 0.250000
vt 0.031250 0.687500
vt 0.031250 0.187500
vt 0.031250 0.625000
vt 0.031250 0.125000
vt 0.031250 0.562500
vt 0.031250 0.062500
vt 0.031250 0.500000
vt 0.046875 1.000000
vt 0.031250 0.937500
vt 0.046875 0.000000
vt 0.031250 0.437500
vt 0.000000 0.625000
vt 0.000000 0.125000
vt 0.000000 0.562500
vt 0.000000 0.062500
vt 0.000000 0.500000
vt 0.015625 1.000000
vt 0.000000 0.937500
vt 0.015625 0.000000
vt 0.000000 0.437500
vt 0.000000 0.875000
vt 0.000000 0.375000
vt 0.000000 0.812500
vt 0.000000 0.312500
vt 0.000000 0.750000
vt 0.000000 0.250000
vt 0.000000 0.687500
vt 0.000000 0.187500
vt 1.000000 0.437500
vt 0.968750 0.375000
vt 1.000000 0.375000
vt 1.000000 0.812500
vt 0.968750 0.875000
vt 0.968750 0.812500
vt 1.000000 0.312500
vt 0.968750 0.312500
vt 0.968750 0.750000
vt 1.000000 0.750000
vt 0.968750 0.250000
vt 1.000000 0.250000
vt 1.000000 0.687500
vt 0.968750 0.687500
vt 1.000000 0.187500
vt 0.968750 0.187500
vt 0.968750 0.625000
vt 1.000000 0.625000
vt 0.968750 0.125000
vt 1.000000 0.125000
vt 1.000000 0.562500
vt 0.968750 0.562500
vt 0.968750 0.062500
vt 1.000000 0.062500
vt 1.000000 0.500000
vt 0.968750 0.500000
vt 1.000000 0.937500
vt 0.984375 1.000000
vt 0.968750 0.937500
vt 0.984375 0.000000
vt 0.968750 0.437500
vt 1.000000 0.875000
vt 0.937500 0.125000
vt 0.937500 0.625000
vt 0.937500 0.562500
vt 0.937500 0.062500
vt 0.937500 0.500000
vt 0.953125 1.000000
vt 0.937500 0.937500
vt 0.953125 0.000000
vt 0.937500 0.437500
vt 0.937500 0.875000
vt 0.937500 0.375000
vt 0.937500 0.812500
vt 0.937500 0.312500
vt 0.937500 0.750000
vt 0.937500 0.250000
vt 0.937500 0.687500
vt 0.937500 0.187500
vt 0.906250 0.375000
vt 0.906250 0.312500
vt 0.906250 0.750000
vt 0.906250 0.250000
vt 0.906250 0.687500
vt 0.906250 0.187500
vt 0.906250 0.625000
vt 0.906250 0.125000
vt 0.906250 0.562500
vt 0.906250 0.062500
vt 0.906250 0.500000
vt 0.921875 1.000000
vt 0.906250 0.937500
vt 0.921875 0.000000
vt 0.906250 0.437500
vt 0.906250 0.875000
vt 0.906250 0.812500
vt 0.875000 0.062500
vt 0.875000 0.562500
vt 0.875000 0.500000
vt 0.890625 1.000000
vt 0.875000 0.937500
vt 0.890625 0.000000
vt 0.875000 0.437500
vt 0.875000 0.875000
vt 0.875000 0.375000
vt 0.875000 0.812500
vt 0.875000 0.312500
vt 0.875000 0.750000
vt 0.875000 0.250000
vt 0.875000 0.687500
vt 0.875000 0.187500
vt 0.875000 0.625000
vt 0.875000 0.125000
vt 0.843750 0.750000
vt 0.843750 0.250000
vt 0.843750 0.687500
vt 0.843750 0.187500
vt 0.843750 0.625000
vt 0.843750 0.125000
vt 0.843750 0.562500
vt 0.843750 0.062500
vt 0.843750 0.500000
vt 0.859375 1.000000
vt 0.843750 0.937500
vt 0.859375 0.000000
vt 0.843750 0.437500
vt 0.843750 0.875000
vt 0.843750 0.375000
vt 0.843750 0.812500
vt 0.843750 0.312500
vt 0.812500 0.562500
vt 0.812500 0.500000
vt 0.828125 1.000000
vt 0.812500 0.937500
vt 0.828125 0.000000
vt 0.812500 0.062500
vt 0.812500 0.437500
vt 0.812500 0.875000
vt 0.812500 0.375000
vt 0.812500 0.812500
vt 0.812500 0.312500
vt 0.812500 0.750000
vt 0.812500 0.250000
vt 0.812500 0.687500
vt 0.812500 0.187500
vt 0.812500 0.625000
vt 0.812500 0.125000
vt 0.781250 0.250000
vt 0.781250 0.750000
vt 0.781250 0.687500
vt 0.781250 0.187500
vt 0.781250 0.625000
vt 0.781250 0.125000
vt 0.781250 0.562500
vt 0.781250 0.062500
vt 0.781250 0.500000
vt 0.796875 1.000000
vt 0.781250 0.937500
vt 0.796875 0.000000
vt 0.781250 0.437500
vt 0.781250 0.875000
vt 0.781250 0.375000
vt 0.781250 0.812500
vt 0.781250 0.312500
vt 0.765625 1.000000
vt 0.765625 0.000000
s 0
f 3/1/1 14/2/1 4/3/1
f 474/4/2 82/5/2 7/6/2
f 308/7/3 482/8/3 21/9/3
f 4/3/4 15/10/4 5/11/4
f 475/12/5 7/6/5 8/13/5
f 5/11/6 16/14/6 478/15/6
f 1/16/7 8/13/7 9/17/7
f 478/15/8 17/18/8 6/19/8
f 476/20/9 9/17/9 10/21/9
f 479/22/10 17/18/10 18/23/10
f 476/20/11 11/24/11 2/25/11
f 479/22/12 19/26/12 480/27/12
f 477/28/13 11/24/13 12/29/13
f 480/27/14 20/30/14 481/31/14
f 3/1/15 12/29/15 13/32/15
f 481/31/16 21/9/16 482/8/16
f 13/32/17 27/33/17 28/34/17
f 20/30/18 36/35/18 21/9/18
f 13/32/19 29/36/19 14/2/19
f 7/6/20 82/37/20 22/38/20
f 308/39/21 21/9/21 36/35/21
f 14/2/22 30/40/22 15/10/22
f 7/6/23 23/41/23 8/13/23
f 15/10/24 31/42/24 16/14/24
f 8/13/25 24/43/25 9/17/25
f 17/18/26 31/42/26 32/44/26
f 9/17/27 25/45/27 10/21/27
f 18/23/28 32/44/28 33/46/28
f 10/21/29 26/47/29 11/24/29
f 19/26/30 33/46/30 34/48/30
f 11/24/31 27/33/31 12/29/31
f 20/30/32 34/48/32 35/49/32
f 32/44/33 46/50/33 47/51/33
f 24/43/34 40/52/34 25/45/34
f 33/46/35 47/51/35 48/53/35
f 25/45/36 41/54/36 26/47/36
f 34/48/37 48/53/37 49/55/37
f 26/47/38 42/56/38 27/33/38
f 35/49/39 49/55/39 50/57/39
f 28/34/40 42/56/40 43/58/40
f 36/35/41 50/57/41 51/59/41
f 29/36/42 43/58/42 44/60/42
f 22/38/43 82/61/43 37/62/43
f 308/63/44 36/35/44 51/59/44
f 29/36/45 45/64/45 30/40/45
f 22/38/46 38/65/46 23/41/46
f 30/40/47 46/50/47 31/42/47
f 23/41/48 39/66/48 24/43/48
f 51/59/49 65/67/49 66/68/49
f 44/60/50 58/69/50 59/70/50
f 37/62/51 82/71/51 52/72/51
f 308/73/52 51/59/52 66/68/52
f 44/60/53 60/74/53 45/64/53
f 37/62/54 53/75/54 38/65/54
f 45/64/55 61/76/55 46/50/55
f 38/65/56 54/77/56 39/66/56
f 47/51/57 61/76/57 62/78/57
f 39/66/58 55/79/58 40/52/58
f 47/51/59 63/80/59 48/53/59
f 41/54/60 55/79/60 56/81/60
f 49/55/61 63/80/61 64/82/61
f 41/54/62 57/83/62 42/56/62
f 50/57/63 64/82/63 65/67/63
f 43/58/64 57/83/64 58/69/64
f 54/77/65 70/84/65 55/79/65
f 62/78/66 78/85/66 63/80/66
f 56/81/67 70/84/67 71/86/67
f 64/82/68 78/85/68 79/87/68
f 56/81/69 72/88/69 57/83/69
f 64/82/70 80/89/70 65/67/70
f 58/69/71 72/88/71 73/90/71
f 65/67/72 81/91/72 66/68/72
f 59/70/73 73/90/73 74/92/73
f 52/72/74 82/93/74 67/94/74
f 308/95/75 66/68/75 81/91/75
f 59/70/76 75/96/76 60/74/76
f 53/75/77 67/94/77 68/97/77
f 60/74/78 76/98/78 61/76/78
f 54/77/79 68/97/79 69/99/79
f 62/78/80 76/98/80 77/100/80
f 74/92/81 89/101/81 90/102/81
f 67/94/82 82/103/82 83/104/82
f 308/105/83 81/91/83 97/106/83
f 74/92/84 91/107/84 75/96/84
f 67/94/85 84/108/85 68/97/85
f 75/96/86 92/109/86 76/98/86
f 68/97/87 85/110/87 69/99/87
f 77/100/88 92/109/88 93/111/88
f 69/99/89 86/112/89 70/84/89
f 77/100/90 94/113/90 78/85/90
f 71/86/91 86/112/91 87/114/91
f 79/87/92 94/113/92 95/115/92
f 71/86/93 88/116/93 72/88/93
f 80/89/94 95/115/94 96/117/94
f 73/90/95 88/116/95 89/101/95
f 81/91/96 96/117/96 97/106/96
f 93/111/97 109/118/97 94/113/97
f 87/114/98 101/119/98 102/120/98
f 95/115/99 109/118/99 110/121/99
f 87/114/100 103/122/100 88/116/100
f 95/115/101 111/123/101 96/117/101
f 89/101/102 103/122/102 104/124/102
f 96/117/103 112/125/103 97/106/103
f 90/102/104 104/124/104 105/126/104
f 83/104/105 82/127/105 98/128/105
f 308/129/106 97/106/106 112/125/106
f 90/102/107 106/130/107 91/107/107
f 83/104/108 99/131/108 84/108/108
f 91/107/109 107/132/109 92/109/109
f 85/110/110 99/131/110 100/133/110
f 93/111/111 107/132/111 108/134/111
f 85/110/112 101/119/112 86/112/112
f 308/135/113 112/125/113 127/136/113
f 105/126/114 121/137/114 106/130/114
f 98/128/115 114/138/115 99/131/115
f 106/130/116 122/139/116 107/132/116
f 99/131/117 115/140/117 100/133/117
f 108/134/118 122/139/118 123/141/118
f 100/133/119 116/142/119 101/119/119
f 108/134/120 124/143/120 109/118/120
f 102/120/121 116/142/121 117/144/121
f 110/121/122 124/143/122 125/145/122
f 102/120/123 118/146/123 103/122/123
f 111/123/124 125/145/124 126/147/124
f 104/124/125 118/146/125 119/148/125
f 111/123/126 127/136/126 112/125/126
f 105/126/127 119/148/127 120/149/127
f 98/128/128 82/150/128 113/151/128
f 125/145/129 139/152/129 140/153/129
f 117/144/130 133/154/130 118/146/130
f 125/145/131 141/155/131 126/147/131
f 119/148/132 133/154/132 134/156/132
f 126/147/133 142/157/133 127/136/133
f 120/149/134 134/156/134 135/158/134
f 113/151/135 82/159/135 128/160/135
f 308/161/136 127/136/136 142/157/136
f 120/149/137 136/162/137 121/137/137
f 114/138/138 128/160/138 129/163/138
f 121/137/139 137/164/139 122/139/139
f 115/140/140 129/163/140 130/165/140
f 123/141/141 137/164/141 138/166/141
f 115/140/142 131/167/142 116/142/142
f 123/141/143 139/152/143 124/143/143
f 117/144/144 131/167/144 132/168/144
f 128/160/145 144/169/145 129/163/145
f 136/162/146 152/170/146 137/164/146
f 129/163/147 145/171/147 130/165/147
f 138/166/148 152/170/148 153/172/148
f 130/165/149 146/173/149 131/167/149
f 138/166/150 154/174/150 139/152/150
f 132/168/151 146/173/151 147/175/151
f 140/153/152 154/174/152 155/176/152
f 132/168/153 148/177/153 133/154/153
f 141/155/154 155/176/154 156/178/154
f 134/156/155 148/177/155 149/179/155
f 141/155/156 157/180/156 142/157/156
f 135/158/157 149/179/157 150/181/157
f 128/160/158 82/182/158 143/183/158
f 308/184/159 142/157/159 157/180/159
f 135/158/160 151/185/160 136/162/160
f 147/175/161 163/186/161 148/177/161
f 156/178/162 170/187/162 171/188/162
f 149/179/163 163/186/163 164/189/163
f 157/180/164 171/188/164 172/190/164
f 150/181/165 164/189/165 165/191/165
f 143/183/166 82/192/166 158/193/166
f 308/194/167 157/180/167 172/190/167
f 150/181/168 166/195/168 151/185/168
f 143/183/169 159/196/169 144/169/169
f 151/185/170 167/197/170 152/170/170
f 144/169/171 160/198/171 145/171/171
f 153/172/172 167/197/172 168/199/172
f 145/171/173 161/200/173 146/173/173
f 153/172/174 169/201/174 154/174/174
f 147/175/175 161/200/175 162/202/175
f 155/176/176 169/201/176 170/187/176
f 166/195/177 182/203/177 167/197/177
f 159/196/178 175/204/178 160/198/178
f 168/199/179 182/203/179 183/205/179
f 160/198/180 176/206/180 161/200/180
f 168/199/181 184/207/181 169/201/181
f 162/202/182 176/206/182 177/208/182
f 170/187/183 184/207/183 185/209/183
f 162/202/184 178/210/184 163/186/184
f 171/188/185 185/209/185 186/211/185
f 164/189/186 178/210/186 179/212/186
f 172/190/187 186/211/187 187/213/187
f 165/191/188 179/212/188 180/214/188
f 158/193/189 82/215/189 173/216/189
f 308/217/190 172/190/190 187/213/190
f 165/191/191 181/218/191 166/195/191
f 158/193/192 174/219/192 159/196/192
f 185/209/193 201/220/193 186/211/193
f 179/212/194 193/221/194 194/222/194
f 186/211/195 202/223/195 187/213/195
f 180/214/196 194/222/196 195/224/196
f 173/216/197 82/225/197 188/226/197
f 308/227/198 187/213/198 202/223/198
f 180/214/199 196/228/199 181/218/199
f 174/219/200 188/226/200 189/229/200
f 181/218/201 197/230/201 182/203/201
f 175/204/202 189/229/202 190/231/202
f 183/205/203 197/230/203 198/232/203
f 175/204/204 191/233/204 176/206/204
f 183/205/205 199/234/205 184/207/205
f 177/208/206 191/233/206 192/235/206
f 185/209/207 199/234/207 200/236/207
f 177/208/208 193/221/208 178/210/208
f 189/229/209 205/237/209 190/231/209
f 198/232/210 212/238/210 213/239/210
f 190/231/211 206/240/211 191/233/211
f 198/232/212 214/241/212 199/234/212
f 192/235/213 206/240/213 207/242/213
f 200/236/214 214/241/214 215/243/214
f 192/235/215 208/244/215 193/221/215
f 201/220/216 215/243/216 216/245/216
f 194/222/217 208/244/217 209/246/217
f 202/223/218 216/245/218 217/247/218
f 195/224/219 209/246/219 210/248/219
f 188/226/220 82/249/220 203/250/220
f 308/251/221 202/223/221 217/247/221
f 195/224/222 211/252/222 196/228/222
f 188/226/223 204/253/223 189/229/223
f 196/228/224 212/238/224 197/230/224
f 209/246/225 223/254/225 224/255/225
f 217/247/226 231/256/226 232/257/226
f 210/248/227 224/255/227 225/258/227
f 203/250/228 82/259/228 218/260/228
f 308/261/229 217/247/229 232/257/229
f 210/248/230 226/262/230 211/252/230
f 203/250/231 219/263/231 204/253/231
f 211/252/232 227/264/232 212/238/232
f 204/253/233 220/265/233 205/237/233
f 213/239/234 227/264/234 228/266/234
f 205/237/235 221/267/235 206/240/235
f 213/239/236 229/268/236 214/241/236
f 207/242/237 221/267/237 222/269/237
f 215/243/238 229/268/238 230/270/238
f 207/242/239 223/254/239 208/244/239
f 216/245/240 230/270/240 231/256/240
f 228/266/241 242/271/241 243/272/241
f 220/265/242 236/273/242 221/267/242
f 228/266/243 244/274/243 229/268/243
f 222/269/244 236/273/244 237/275/244
f 230/270/245 244/274/245 245/276/245
f 222/269/246 238/277/246 223/254/246
f 231/256/247 245/276/247 246/278/247
f 224/255/248 238/277/248 239/279/248
f 231/256/249 247/280/249 232/257/249
f 225/258/250 239/279/250 240/281/250
f 218/260/251 82/282/251 233/283/251
f 308/284/252 232/257/252 247/280/252
f 225/258/253 241/285/253 226/262/253
f 219/263/254 233/283/254 234/286/254
f 226/262/255 242/271/255 227/264/255
f 219/263/256 235/287/256 220/265/256
f 246/278/257 262/288/257 247/280/257
f 240/281/258 254/289/258 255/290/258
f 233/283/259 82/291/259 248/292/259
f 308/293/260 247/280/260 262/288/260
f 240/281/261 256/294/261 241/285/261
f 234/286/262 248/292/262 249/295/262
f 241/285/263 257/296/263 242/271/263
f 235/287/264 249/295/264 250/297/264
f 243/272/265 257/296/265 258/298/265
f 235/287/266 251/299/266 236/273/266
f 243/272/267 259/300/267 244/274/267
f 237/275/268 251/299/268 252/301/268
f 245/276/269 259/300/269 260/302/269
f 237/275/270 253/303/270 238/277/270
f 245/276/271 261/304/271 246/278/271
f 239/279/272 253/303/272 254/289/272
f 258/298/273 274/305/273 259/300/273
f 252/301/274 266/306/274 267/307/274
f 260/302/275 274/305/275 275/308/275
f 252/301/276 268/309/276 253/303/276
f 261/304/277 275/308/277 276/310/277
f 254/289/278 268/309/278 269/311/278
f 261/304/279 277/312/279 262/288/279
f 255/290/280 269/311/280 270/313/280
f 248/292/281 82/314/281 263/315/281
f 308/316/282 262/288/282 277/312/282
f 255/290/283 271/317/283 256/294/283
f 249/295/284 263/315/284 264/318/284
f 256/294/285 272/319/285 257/296/285
f 249/295/286 265/320/286 250/297/286
f 258/298/287 272/319/287 273/321/287
f 250/297/288 266/306/288 251/299/288
f 263/315/289 82/322/289 278/323/289
f 308/324/290 277/312/290 292/325/290
f 270/313/291 286/326/291 271/317/291
f 263/315/292 279/327/292 264/318/292
f 271/317/293 287/328/293 272/319/293
f 264/318/294 280/329/294 265/320/294
f 273/321/295 287/328/295 288/330/295
f 265/320/296 281/331/296 266/306/296
f 273/321/297 289/332/297 274/305/297
f 267/307/298 281/331/298 282/333/298
f 275/308/299 289/332/299 290/334/299
f 267/307/300 283/335/300 268/309/300
f 275/308/301 291/336/301 276/310/301
f 269/311/302 283/335/302 284/337/302
f 276/310/303 292/325/303 277/312/303
f 270/313/304 284/337/304 285/338/304
f 282/333/305 296/339/305 297/340/305
f 290/334/306 304/341/306 305/342/306
f 282/333/307 298/343/307 283/335/307
f 290/334/308 306/344/308 291/336/308
f 284/337/309 298/343/309 299/345/309
f 292/325/310 306/344/310 307/346/310
f 285/338/311 299/345/311 300/347/311
f 278/323/312 82/348/312 293/349/312
f 308/350/313 292/325/313 307/346/313
f 285/338/314 301/351/314 286/326/314
f 278/323/315 294/352/315 279/327/315
f 286/326/316 302/353/316 287/328/316
f 280/329/317 294/352/317 295/354/317
f 288/330/318 302/353/318 303/355/318
f 280/329/319 296/339/319 281/331/319
f 288/330/320 304/341/320 289/332/320
f 300/347/321 317/356/321 301/351/321
f 294/352/322 309/357/322 310/358/322
f 301/351/323 318/359/323 302/353/323
f 295/354/324 310/358/324 311/360/324
f 303/355/325 318/359/325 319/361/325
f 295/354/326 312/362/326 296/339/326
f 303/355/327 320/363/327 304/341/327
f 297/340/328 312/362/328 313/364/328
f 305/342/329 320/363/329 321/365/329
f 297/340/330 314/366/330 298/343/330
f 305/342/331 322/367/331 306/344/331
f 299/345/332 314/366/332 315/368/332
f 306/344/333 323/369/333 307/346/333
f 300/347/334 315/368/334 316/370/334
f 293/349/335 82/371/335 309/357/335
f 308/372/336 307/346/336 323/369/336
f 321/365/337 335/373/337 336/374/337
f 313/364/338 329/375/338 314/366/338
f 321/365/339 337/376/339 322/367/339
f 315/368/340 329/375/340 330/377/340
f 323/369/341 337/376/341 338/378/341
f 316/370/342 330/377/342 331/379/342
f 309/357/343 82/380/343 324/381/343
f 308/382/344 323/369/344 338/378/344
f 316/370/345 332/383/345 317/356/345
f 309/357/346 325/384/346 310/358/346
f 317/356/347 333/385/347 318/359/347
f 310/358/348 326/386/348 311/360/348
f 319/361/349 333/385/349 334/387/349
f 311/360/350 327/388/350 312/362/350
f 319/361/351 335/373/351 320/363/351
f 313/364/352 327/388/352 328/389/352
f 324/381/353 340/390/353 325/384/353
f 332/383/354 348/391/354 333/385/354
f 326/386/355 340/390/355 341/392/355
f 334/387/356 348/391/356 349/393/356
f 326/386/357 342/394/357 327/388/357
f 334/387/358 350/395/358 335/373/358
f 328/389/359 342/394/359 343/396/359
f 336/374/360 350/395/360 351/397/360
f 328/389/361 344/398/361 329/375/361
f 336/374/362 352/399/362 337/376/362
f 330/377/363 344/398/363 345/400/363
f 338/378/364 352/399/364 353/401/364
f 331/379/365 345/400/365 346/402/365
f 324/381/366 82/403/366 339/404/366
f 308/405/367 338/378/367 353/401/367
f 331/379/368 347/406/368 332/383/368
f 343/396/369 359/407/369 344/398/369
f 351/397/370 367/408/370 352/399/370
f 345/400/371 359/407/371 360/409/371
f 353/401/372 367/408/372 368/410/372
f 346/402/373 360/409/373 361/411/373
f 339/404/374 82/412/374 354/413/374
f 308/414/375 353/401/375 368/410/375
f 346/402/376 362/415/376 347/406/376
f 339/404/377 355/416/377 340/390/377
f 347/406/378 363/417/378 348/391/378
f 341/392/379 355/416/379 356/418/379
f 349/393/380 363/417/380 364/419/380
f 341/392/381 357/420/381 342/394/381
f 349/393/382 365/421/382 350/395/382
f 343/396/383 357/420/383 358/422/383
f 351/397/384 365/421/384 366/423/384
f 362/424/385 378/425/385 363/426/385
f 356/427/386 370/428/386 371/429/386
f 364/430/387 378/425/387 379/431/387
f 356/427/388 372/432/388 357/433/388
f 364/430/389 380/434/389 365/435/389
f 358/436/390 372/432/390 373/437/390
f 366/438/391 380/434/391 381/439/391
f 358/436/392 374/440/392 359/441/392
f 366/438/393 382/442/393 367/443/393
f 360/444/394 374/440/394 375/445/394
f 367/443/395 383/446/395 368/447/395
f 361/448/396 375/445/396 376/449/396
f 354/450/397 82/451/397 369/452/397
f 308/453/398 368/447/398 383/446/398
f 361/448/399 377/454/399 362/424/399
f 355/455/400 369/452/400 370/428/400
f 381/439/401 397/456/401 382/442/401
f 375/445/402 389/457/402 390/458/402
f 382/442/403 398/459/403 383/446/403
f 376/449/404 390/458/404 391/460/404
f 369/452/405 82/461/405 384/462/405
f 308/463/406 383/446/406 398/459/406
f 376/449/407 392/464/407 377/454/407
f 370/428/408 384/462/408 385/465/408
f 377/454/409 393/466/409 378/425/409
f 371/429/410 385/465/410 386/467/410
f 379/431/411 393/466/411 394/468/411
f 371/429/412 387/469/412 372/432/412
f 379/431/413 395/470/413 380/434/413
f 373/437/414 387/469/414 388/471/414
f 381/439/415 395/470/415 396/472/415
f 373/437/416 389/457/416 374/440/416
f 394/468/417 408/473/417 409/474/417
f 386/467/418 402/475/418 387/469/418
f 394/468/419 410/476/419 395/470/419
f 388/471/420 402/475/420 403/477/420
f 396/472/421 410/476/421 411/478/421
f 388/471/422 404/479/422 389/457/422
f 396/472/423 412/480/423 397/456/423
f 390/458/424 404/479/424 405/481/424
f 398/459/425 412/480/425 413/482/425
f 391/460/426 405/481/426 406/483/426
f 384/462/427 82/484/427 399/485/427
f 308/486/428 398/459/428 413/482/428
f 391/460/429 407/487/429 392/464/429
f 384/462/430 400/488/430 385/465/430
f 392/464/431 408/473/431 393/466/431
f 386/467/432 400/488/432 401/489/432
f 412/480/433 428/490/433 413/482/433
f 406/483/434 420/491/434 421/492/434
f 399/485/435 82/493/435 414/494/435
f 308/495/436 413/482/436 428/490/436
f 406/483/437 422/496/437 407/487/437
f 399/485/438 415/497/438 400/488/438
f 407/487/439 423/498/439 408/473/439
f 401/489/440 415/497/440 416/499/440
f 409/474/441 423/498/441 424/500/441
f 401/489/442 417/501/442 402/475/442
f 409/474/443 425/502/443 410/476/443
f 403/477/444 417/501/444 418/503/444
f 411/478/445 425/502/445 426/504/445
f 403/477/446 419/505/446 404/479/446
f 411/478/447 427/506/447 412/480/447
f 405/481/448 419/505/448 420/491/448
f 416/499/449 432/507/449 417/501/449
f 424/500/450 440/508/450 425/502/450
f 418/503/451 432/507/451 433/509/451
f 426/504/452 440/508/452 441/510/452
f 418/503/453 434/511/453 419/505/453
f 426/504/454 442/512/454 427/506/454
f 420/491/455 434/511/455 435/513/455
f 428/490/456 442/512/456 443/514/456
f 421/492/457 435/513/457 436/515/457
f 414/494/458 82/516/458 429/517/458
f 308/518/459 428/490/459 443/514/459
f 421/492/460 437/519/460 422/496/460
f 414/494/461 430/520/461 415/497/461
f 422/496/462 438/521/462 423/498/462
f 416/499/463 430/520/463 431/522/463
f 424/500/464 438/521/464 439/523/464
f 436/515/465 450/524/465 451/525/465
f 429/517/466 82/526/466 444/527/466
f 308/528/467 443/514/467 458/529/467
f 436/515/468 452/530/468 437/519/468
f 430/520/469 444/527/469 445/531/469
f 437/519/470 453/532/470 438/521/470
f 431/522/471 445/531/471 446/533/471
f 439/523/472 453/532/472 454/534/472
f 431/522/473 447/535/473 432/507/473
f 439/523/474 455/536/474 440/508/474
f 433/509/475 447/535/475 448/537/475
f 441/510/476 455/536/476 456/538/476
f 433/509/477 449/539/477 434/511/477
f 441/510/478 457/540/478 442/512/478
f 435/513/479 449/539/479 450/524/479
f 442/512/480 458/529/480 443/514/480
f 454/534/481 470/541/481 455/536/481
f 448/537/482 462/542/482 463/543/482
f 456/538/483 470/541/483 471/544/483
f 448/537/484 464/545/484 449/539/484
f 456/538/485 472/546/485 457/540/485
f 450/524/486 464/545/486 465/547/486
f 458/529/487 472/546/487 473/548/487
f 451/525/488 465/547/488 466/549/488
f 444/527/489 82/550/489 459/551/489
f 308/552/490 458/529/490 473/548/490
f 451/525/491 467/553/491 452/530/491
f 444/527/492 460/554/492 445/531/492
f 452/530/493 468/555/493 453/532/493
f 446/533/494 460/554/494 461/556/494
f 454/534/495 468/555/495 469/557/495
f 446/533/496 462/542/496 447/535/496
f 459/551/497 82/558/497 474/4/497
f 308/559/498 473/548/498 482/8/498
f 466/549/499 5/11/499 467/553/499
f 459/551/500 475/12/500 460/554/500
f 467/553/501 478/15/501 468/555/501
f 461/556/502 475/12/502 1/16/502
f 468/555/503 6/19/503 469/557/503
f 462/542/504 1/16/504 476/20/504
f 469/557/505 479/22/505 470/541/505
f 463/543/506 476/20/506 2/25/506
f 471/544/507 479/22/507 480/27/507
f 464/545/508 2/25/508 477/28/508
f 471/544/509 481/31/509 472/546/509
f 465/547/510 477/28/510 3/1/510
f 472/546/511 482/8/511 473/548/511
f 466/549/512 3/1/512 4/3/512
f 3/1/513 13/32/513 14/2/513
f 4/3/514 14/2/514 15/10/514
f 475/12/5 474/4/5 7/6/5
f 5/11/6 15/10/6 16/14/6
f 1/16/7 475/12/7 8/13/7
f 478/15/8 16/14/8 17/18/8
f 476/20/9 1/16/9 9/17/9
f 479/22/10 6/19/10 17/18/10
f 476/20/11 10/21/11 11/24/11
f 479/22/12 18/23/12 19/26/12
f 477/28/13 2/25/13 11/24/13
f 480/27/14 19/26/14 20/30/14
f 3/1/15 477/28/15 12/29/15
f 481/31/16 20/30/16 21/9/16
f 13/32/17 12/29/17 27/33/17
f 20/30/18 35/49/18 36/35/18
f 13/32/19 28/34/19 29/36/19
f 14/2/22 29/36/22 30/40/22
f 7/6/23 22/38/23 23/41/23
f 15/10/24 30/40/24 31/42/24
f 8/13/25 23/41/25 24/43/25
f 17/18/26 16/14/26 31/42/26
f 9/17/27 24/43/27 25/45/27
f 18/23/28 17/18/28 32/44/28
f 10/21/29 25/45/29 26/47/29
f 19/26/30 18/23/30 33/46/30
f 11/24/31 26/47/31 27/33/31
f 20/30/32 19/26/32 34/48/32
f 32/44/33 31/42/33 46/50/33
f 24/43/34 39/66/34 40/52/34
f 33/46/35 32/44/35 47/51/35
f 25/45/36 40/52/36 41/54/36
f 34/48/37 33/46/37 48/53/37
f 26/47/38 41/54/38 42/56/38
f 35/49/515 34/48/515 49/55/515
f 28/34/40 27/33/40 42/56/40
f 36/35/41 35/49/41 50/57/41
f 29/36/42 28/34/42 43/58/42
f 29/36/45 44/60/45 45/64/45
f 22/38/46 37/62/46 38/65/46
f 30/40/47 45/64/47 46/50/47
f 23/41/516 38/65/516 39/66/516
f 51/59/49 50/57/49 65/67/49
f 44/60/50 43/58/50 58/69/50
f 44/60/53 59/70/53 60/74/53
f 37/62/54 52/72/54 53/75/54
f 45/64/55 60/74/55 61/76/55
f 38/65/56 53/75/56 54/77/56
f 47/51/57 46/50/57 61/76/57
f 39/66/58 54/77/58 55/79/58
f 47/51/59 62/78/59 63/80/59
f 41/54/60 40/52/60 55/79/60
f 49/55/61 48/53/61 63/80/61
f 41/54/62 56/81/62 57/83/62
f 50/57/63 49/55/63 64/82/63
f 43/58/64 42/56/64 57/83/64
f 54/77/65 69/99/65 70/84/65
f 62/78/66 77/100/66 78/85/66
f 56/81/67 55/79/67 70/84/67
f 64/82/68 63/80/68 78/85/68
f 56/81/69 71/86/69 72/88/69
f 64/82/70 79/87/70 80/89/70
f 58/69/71 57/83/71 72/88/71
f 65/67/517 80/89/517 81/91/517
f 59/70/73 58/69/73 73/90/73
f 59/70/76 74/92/76 75/96/76
f 53/75/77 52/72/77 67/94/77
f 60/74/78 75/96/78 76/98/78
f 54/77/79 53/75/79 68/97/79
f 62/78/80 61/76/80 76/98/80
f 74/92/81 73/90/81 89/101/81
f 74/92/84 90/102/84 91/107/84
f 67/94/85 83/104/85 84/108/85
f 75/96/86 91/107/86 92/109/86
f 68/97/87 84/108/87 85/110/87
f 77/100/88 76/98/88 92/109/88
f 69/99/89 85/110/89 86/112/89
f 77/100/90 93/111/90 94/113/90
f 71/86/91 70/84/91 86/112/91
f 79/87/92 78/85/92 94/113/92
f 71/86/93 87/114/93 88/116/93
f 80/89/94 79/87/94 95/115/94
f 73/90/95 72/88/95 88/116/95
f 81/91/96 80/89/96 96/117/96
f 93/111/97 108/134/97 109/118/97
f 87/114/98 86/112/98 101/119/98
f 95/115/99 94/113/99 109/118/99
f 87/114/100 102/120/100 103/122/100
f 95/115/101 110/121/101 111/123/101
f 89/101/102 88/116/102 103/122/102
f 96/117/103 111/123/103 112/125/103
f 90/102/104 89/101/104 104/124/104
f 90/102/107 105/126/107 106/130/107
f 83/104/108 98/128/108 99/131/108
f 91/107/109 106/130/109 107/132/109
f 85/110/110 84/108/110 99/131/110
f 93/111/111 92/109/111 107/132/111
f 85/110/112 100/133/112 101/119/112
f 105/126/114 120/149/114 121/137/114
f 98/128/115 113/151/115 114/138/115
f 106/130/116 121/137/116 122/139/116
f 99/131/117 114/138/117 115/140/117
f 108/134/118 107/132/118 122/139/118
f 100/133/119 115/140/119 116/142/119
f 108/134/120 123/141/120 124/143/120
f 102/120/121 101/119/121 116/142/121
f 110/121/122 109/118/122 124/143/122
f 102/120/123 117/144/123 118/146/123
f 111/123/124 110/121/124 125/145/124
f 104/124/125 103/122/125 118/146/125
f 111/123/126 126/147/126 127/136/126
f 105/126/127 104/124/127 119/148/127
f 125/145/129 124/143/129 139/152/129
f 117/144/130 132/168/130 133/154/130
f 125/145/131 140/153/131 141/155/131
f 119/148/132 118/146/132 133/154/132
f 126/147/133 141/155/133 142/157/133
f 120/149/134 119/148/134 134/156/134
f 120/149/137 135/158/137 136/162/137
f 114/138/138 113/151/138 128/160/138
f 121/137/139 136/162/139 137/164/139
f 115/140/140 114/138/140 129/163/140
f 123/141/141 122/139/141 137/164/141
f 115/140/142 130/165/142 131/167/142
f 123/141/143 138/166/143 139/152/143
f 117/144/144 116/142/144 131/167/144
f 128/160/145 143/183/145 144/169/145
f 136/162/146 151/185/146 152/170/146
f 129/163/147 144/169/147 145/171/147
f 138/166/148 137/164/148 152/170/148
f 130/165/149 145/171/149 146/173/149
f 138/166/150 153/172/150 154/174/150
f 132/168/151 131/167/151 146/173/151
f 140/153/152 139/152/152 154/174/152
f 132/168/153 147/175/153 148/177/153
f 141/155/154 140/153/154 155/176/154
f 134/156/155 133/154/155 148/177/155
f 141/155/156 156/178/156 157/180/156
f 135/158/157 134/156/157 149/179/157
f 135/158/160 150/181/160 151/185/160
f 147/175/161 162/202/161 163/186/161
f 156/178/518 155/176/518 170/187/518
f 149/179/163 148/177/163 163/186/163
f 157/180/519 156/178/519 171/188/519
f 150/181/165 149/179/165 164/189/165
f 150/181/168 165/191/168 166/195/168
f 143/183/169 158/193/169 159/196/169
f 151/185/170 166/195/170 167/197/170
f 144/169/520 159/196/520 160/198/520
f 153/172/172 152/170/172 167/197/172
f 145/171/173 160/198/173 161/200/173
f 153/172/174 168/199/174 169/201/174
f 147/175/175 146/173/175 161/200/175
f 155/176/176 154/174/176 169/201/176
f 166/195/177 181/218/177 182/203/177
f 159/196/178 174/219/178 175/204/178
f 168/199/179 167/197/179 182/203/179
f 160/198/180 175/204/180 176/206/180
f 168/199/181 183/205/181 184/207/181
f 162/202/182 161/200/182 176/206/182
f 170/187/183 169/201/183 184/207/183
f 162/202/184 177/208/184 178/210/184
f 171/188/185 170/187/185 185/209/185
f 164/189/186 163/186/186 178/210/186
f 172/190/187 171/188/187 186/211/187
f 165/191/188 164/189/188 179/212/188
f 165/191/191 180/214/191 181/218/191
f 158/193/192 173/216/192 174/219/192
f 185/209/193 200/236/193 201/220/193
f 179/212/194 178/210/194 193/221/194
f 186/211/195 201/220/195 202/223/195
f 180/214/196 179/212/196 194/222/196
f 180/214/199 195/224/199 196/228/199
f 174/219/200 173/216/200 188/226/200
f 181/218/201 196/228/201 197/230/201
f 175/204/202 174/219/202 189/229/202
f 183/205/203 182/203/203 197/230/203
f 175/204/204 190/231/204 191/233/204
f 183/205/205 198/232/205 199/234/205
f 177/208/206 176/206/206 191/233/206
f 185/209/207 184/207/207 199/234/207
f 177/208/208 192/235/208 193/221/208
f 189/229/209 204/253/209 205/237/209
f 198/232/210 197/230/210 212/238/210
f 190/231/211 205/237/211 206/240/211
f 198/232/212 213/239/212 214/241/212
f 192/235/213 191/233/213 206/240/213
f 200/236/214 199/234/214 214/241/214
f 192/235/215 207/242/215 208/244/215
f 201/220/216 200/236/216 215/243/216
f 194/222/217 193/221/217 208/244/217
f 202/223/218 201/220/218 216/245/218
f 195/224/219 194/222/219 209/246/219
f 195/224/222 210/248/222 211/252/222
f 188/226/223 203/250/223 204/253/223
f 196/228/224 211/252/224 212/238/224
f 209/246/225 208/244/225 223/254/225
f 217/247/226 216/245/226 231/256/226
f 210/248/227 209/246/227 224/255/227
f 210/248/230 225/258/230 226/262/230
f 203/250/231 218/260/231 219/263/231
f 211/252/232 226/262/232 227/264/232
f 204/253/233 219/263/233 220/265/233
f 213/239/234 212/238/234 227/264/234
f 205/237/235 220/265/235 221/267/235
f 213/239/236 228/266/236 229/268/236
f 207/242/237 206/240/237 221/267/237
f 215/243/238 214/241/238 229/268/238
f 207/242/239 222/269/239 223/254/239
f 216/245/240 215/243/240 230/270/240
f 228/266/241 227/264/241 242/271/241
f 220/265/242 235/287/242 236/273/242
f 228/266/243 243/272/243 244/274/243
f 222/269/244 221/267/244 236/273/244
f 230/270/245 229/268/245 244/274/245
f 222/269/246 237/275/246 238/277/246
f 231/256/247 230/270/247 245/276/247
f 224/255/248 223/254/248 238/277/248
f 231/256/249 246/278/249 247/280/249
f 225/258/250 224/255/250 239/279/250
f 225/258/253 240/281/253 241/285/253
f 219/263/254 218/260/254 233/283/254
f 226/262/255 241/285/255 242/271/255
f 219/263/256 234/286/256 235/287/256
f 246/278/257 261/304/257 262/288/257
f 240/281/521 239/279/521 254/289/521
f 240/281/522 255/290/522 256/294/522
f 234/286/262 233/283/262 248/292/262
f 241/285/263 256/294/263 257/296/263
f 235/287/264 234/286/264 249/295/264
f 243/272/265 242/271/265 257/296/265
f 235/287/266 250/297/266 251/299/266
f 243/272/267 258/298/267 259/300/267
f 237/275/268 236/273/268 251/299/268
f 245/276/269 244/274/269 259/300/269
f 237/275/270 252/301/270 253/303/270
f 245/276/271 260/302/271 261/304/271
f 239/279/272 238/277/272 253/303/272
f 258/298/273 273/321/273 274/305/273
f 252/301/274 251/299/274 266/306/274
f 260/302/275 259/300/275 274/305/275
f 252/301/276 267/307/276 268/309/276
f 261/304/277 260/302/277 275/308/277
f 254/289/278 253/303/278 268/309/278
f 261/304/279 276/310/279 277/312/279
f 255/290/280 254/289/280 269/311/280
f 255/290/283 270/313/283 271/317/283
f 249/295/284 248/292/284 263/315/284
f 256/294/285 271/317/285 272/319/285
f 249/295/286 264/318/286 265/320/286
f 258/298/287 257/296/287 272/319/287
f 250/297/288 265/320/288 266/306/288
f 270/313/291 285/338/291 286/326/291
f 263/315/292 278/323/292 279/327/292
f 271/317/293 286/326/293 287/328/293
f 264/318/523 279/327/523 280/329/523
f 273/321/295 272/319/295 287/328/295
f 265/320/296 280/329/296 281/331/296
f 273/321/297 288/330/297 289/332/297
f 267/307/298 266/306/298 281/331/298
f 275/308/299 274/305/299 289/332/299
f 267/307/300 282/333/300 283/335/300
f 275/308/524 290/334/524 291/336/524
f 269/311/302 268/309/302 283/335/302
f 276/310/303 291/336/303 292/325/303
f 270/313/304 269/311/304 284/337/304
f 282/333/305 281/331/305 296/339/305
f 290/334/306 289/332/306 304/341/306
f 282/333/307 297/340/307 298/343/307
f 290/334/308 305/342/308 306/344/308
f 284/337/309 283/335/309 298/343/309
f 292/325/310 291/336/310 306/344/310
f 285/338/311 284/337/311 299/345/311
f 285/338/314 300/347/314 301/351/314
f 278/323/315 293/349/315 294/352/315
f 286/326/316 301/351/316 302/353/316
f 280/329/317 279/327/317 294/352/317
f 288/330/318 287/328/318 302/353/318
f 280/329/319 295/354/319 296/339/319
f 288/330/320 303/355/320 304/341/320
f 300/347/321 316/370/321 317/356/321
f 294/352/322 293/349/322 309/357/322
f 301/351/323 317/356/323 318/359/323
f 295/354/324 294/352/324 310/358/324
f 303/355/325 302/353/325 318/359/325
f 295/354/326 311/360/326 312/362/326
f 303/355/327 319/361/327 320/363/327
f 297/340/328 296/339/328 312/362/328
f 305/342/329 304/341/329 320/363/329
f 297/340/330 313/364/330 314/366/330
f 305/342/331 321/365/331 322/367/331
f 299/345/332 298/343/332 314/366/332
f 306/344/525 322/367/525 323/369/525
f 300/347/334 299/345/334 315/368/334
f 321/365/337 320/363/337 335/373/337
f 313/364/338 328/389/338 329/375/338
f 321/365/526 336/374/526 337/376/526
f 315/368/340 314/366/340 329/375/340
f 323/369/341 322/367/341 337/376/341
f 316/370/342 315/368/342 330/377/342
f 316/370/345 331/379/345 332/383/345
f 309/357/346 324/381/346 325/384/346
f 317/356/347 332/383/347 333/385/347
f 310/358/348 325/384/348 326/386/348
f 319/361/349 318/359/349 333/385/349
f 311/360/350 326/386/350 327/388/350
f 319/361/351 334/387/351 335/373/351
f 313/364/352 312/362/352 327/388/352
f 324/381/353 339/404/353 340/390/353
f 332/383/354 347/406/354 348/391/354
f 326/386/355 325/384/355 340/390/355
f 334/387/356 333/385/356 348/391/356
f 326/386/357 341/392/357 342/394/357
f 334/387/358 349/393/358 350/395/358
f 328/389/359 327/388/359 342/394/359
f 336/374/360 335/373/360 350/395/360
f 328/389/361 343/396/361 344/398/361
f 336/374/362 351/397/362 352/399/362
f 330/377/363 329/375/363 344/398/363
f 338/378/364 337/376/364 352/399/364
f 331/379/365 330/377/365 345/400/365
f 331/379/368 346/402/368 347/406/368
f 343/396/369 358/422/369 359/407/369
f 351/397/370 366/423/370 367/408/370
f 345/400/371 344/398/371 359/407/371
f 353/401/372 352/399/372 367/408/372
f 346/402/527 345/400/527 360/409/527
f 346/402/528 361/411/528 362/415/528
f 339/404/377 354/413/377 355/416/377
f 347/406/378 362/415/378 363/417/378
f 341/392/379 340/390/379 355/416/379
f 349/393/380 348/391/380 363/417/380
f 341/392/381 356/418/381 357/420/381
f 349/393/382 364/419/382 365/421/382
f 343/396/383 342/394/383 357/420/383
f 351/397/384 350/395/384 365/421/384
f 362/424/385 377/454/385 378/425/385
f 356/427/386 355/455/386 370/428/386
f 364/430/387 363/426/387 378/425/387
f 356/427/388 371/429/388 372/432/388
f 364/430/389 379/431/389 380/434/389
f 358/436/390 357/433/390 372/432/390
f 366/438/391 365/435/391 380/434/391
f 358/436/392 373/437/392 374/440/392
f 366/438/393 381/439/393 382/442/393
f 360/444/394 359/441/394 374/440/394
f 367/443/395 382/442/395 383/446/395
f 361/448/529 360/444/529 375/445/529
f 361/448/530 376/449/530 377/454/530
f 355/455/400 354/450/400 369/452/400
f 381/439/401 396/472/401 397/456/401
f 375/445/402 374/440/402 389/457/402
f 382/442/403 397/456/403 398/459/403
f 376/449/404 375/445/404 390/458/404
f 376/449/407 391/460/407 392/464/407
f 370/428/408 369/452/408 384/462/408
f 377/454/409 392/464/409 393/466/409
f 371/429/410 370/428/410 385/465/410
f 379/431/411 378/425/411 393/466/411
f 371/429/412 386/467/412 387/469/412
f 379/431/413 394/468/413 395/470/413
f 373/437/414 372/432/414 387/469/414
f 381/439/415 380/434/415 395/470/415
f 373/437/416 388/471/416 389/457/416
f 394/468/417 393/466/417 408/473/417
f 386/467/418 401/489/418 402/475/418
f 394/468/419 409/474/419 410/476/419
f 388/471/420 387/469/420 402/475/420
f 396/472/421 395/470/421 410/476/421
f 388/471/422 403/477/422 404/479/422
f 396/472/423 411/478/423 412/480/423
f 390/458/424 389/457/424 404/479/424
f 398/459/425 397/456/425 412/480/425
f 391/460/426 390/458/426 405/481/426
f 391/460/429 406/483/429 407/487/429
f 384/462/430 399/485/430 400/488/430
f 392/464/431 407/487/431 408/473/431
f 386/467/432 385/465/432 400/488/432
f 412/480/433 427/506/433 428/490/433
f 406/483/434 405/481/434 420/491/434
f 406/483/437 421/492/437 422/496/437
f 399/485/438 414/494/438 415/497/438
f 407/487/439 422/496/439 423/498/439
f 401/489/440 400/488/440 415/497/440
f 409/474/441 408/473/441 423/498/441
f 401/489/442 416/499/442 417/501/442
f 409/474/443 424/500/443 425/502/443
f 403/477/444 402/475/444 417/501/444
f 411/478/445 410/476/445 425/502/445
f 403/477/446 418/503/446 419/505/446
f 411/478/447 426/504/447 427/506/447
f 405/481/448 404/479/448 419/505/448
f 416/499/449 431/522/449 432/507/449
f 424/500/450 439/523/450 440/508/450
f 418/503/451 417/501/451 432/507/451
f 426/504/452 425/502/452 440/508/452
f 418/503/453 433/509/453 434/511/453
f 426/504/454 441/510/454 442/512/454
f 420/491/455 419/505/455 434/511/455
f 428/490/456 427/506/456 442/512/456
f 421/492/457 420/491/457 435/513/457
f 421/492/460 436/515/460 437/519/460
f 414/494/461 429/517/461 430/520/461
f 422/496/462 437/519/462 438/521/462
f 416/499/463 415/497/463 430/520/463
f 424/500/464 423/498/464 438/521/464
f 436/515/465 435/513/465 450/524/465
f 436/515/468 451/525/468 452/530/468
f 430/520/469 429/517/469 444/527/469
f 437/519/470 452/530/470 453/532/470
f 431/522/471 430/520/471 445/531/471
f 439/523/472 438/521/472 453/532/472
f 431/522/473 446/533/473 447/535/473
f 439/523/474 454/534/474 455/536/474
f 433/509/475 432/507/475 447/535/475
f 441/510/476 440/508/476 455/536/476
f 433/509/477 448/537/477 449/539/477
f 441/510/478 456/538/478 457/540/478
f 435/513/479 434/511/479 449/539/479
f 442/512/480 457/540/480 458/529/480
f 454/534/481 469/557/481 470/541/481
f 448/537/482 447/535/482 462/542/482
f 456/538/483 455/536/483 470/541/483
f 448/537/484 463/543/484 464/545/484
f 456/538/485 471/544/485 472/546/485
f 450/524/486 449/539/486 464/545/486
f 458/529/487 457/540/487 472/546/487
f 451/525/488 450/524/488 465/547/488
f 451/525/491 466/549/491 467/553/491
f 444/527/492 459/551/492 460/554/492
f 452/530/493 467/553/493 468/555/493
f 446/533/494 445/531/494 460/554/494
f 454/534/495 453/532/495 468/555/495
f 446/533/496 461/556/496 462/542/496
f 466/549/499 4/3/499 5/11/499
f 459/551/500 474/4/500 475/12/500
f 467/553/501 5/11/501 478/15/501
f 461/556/502 460/554/502 475/12/502
f 468/555/503 478/15/503 6/19/503
f 462/542/504 461/556/504 1/16/504
f 469/557/505 6/19/505 479/22/505
f 463/543/506 462/542/506 476/20/506
f 471/544/507 470/541/507 479/22/507
f 464/545/508 463/543/508 2/25/508
f 471/544/509 480/27/509 481/31/509
f 465/547/510 464/545/510 477/28/510
f 472/546/511 481/31/511 482/8/511
f 466/549/512 465/547/512 3/1/512
